<?xml version="1.0" standalone="no"?>
<!DOCTYPE svg PUBLIC "-//W3C//DTD SVG 1.1//EN" "http://www.w3.org/Graphics/SVG/1.1/DTD/svg11.dtd" >
<svg>
<metadata>
Created by FontForge 20090914 at Mon Jan 22 13:21:11 2018
 By www-data
&#194;&#169; 2008 Microsoft Corporation. All rights reserved.
</metadata>
<defs>
<font id="Tahoma-Bold" horiz-adv-x="0" >
  <font-face 
    font-family="Tahoma"
    font-weight="700"
    font-stretch="normal"
    units-per-em="2048"
    panose-1="2 11 8 4 3 5 4 4 2 4"
    ascent="1638"
    descent="-410"
    x-height="1123"
    cap-height="1489"
    bbox="-1429 -442 3328 2182"
    underline-thickness="201"
    underline-position="-44"
    unicode-range="U+0020-U+FFFD"
  />
<missing-glyph horiz-adv-x="2048" 
d="M256 0v1536h1536v-1536h-1536zM384 128h1280v1280h-1280v-1280z" />
    <glyph glyph-name="uniFDF2" unicode="&#x627;&#xfedf;&#xfee0;&#xfeea;" horiz-adv-x="3027" arabic-form="isolated" 
d="M795 645l-0.00195312 240.001c-120.667 -6 -211.667 -26.833 -273 -62.5s-92 -83.834 -92 -144.501c0 -30.667 12.667 -56.5 38 -77.5s57 -31.5 95 -31.5c38.667 0 79.334 6.66699 122.001 20s79.334 32 110.001 56zM1556 147.001
c-23.333 -42 -63.833 -77.666 -121.5 -106.999s-126.167 -44 -205.5 -44c-106.667 0 -196.334 33 -269.001 99s-121 162 -145 288c-30.667 -34.667 -71.834 -63.167 -123.501 -85.5s-102.5 -33.5 -152.5 -33.5c-126 0 -226.833 38.333 -302.5 115s-113.5 175.667 -113.5 297
c0 155.333 59.333 274.166 178 356.499s289.334 128.5 512.001 138.5l260 13v-586c0 -78 13.833 -137.167 41.5 -177.5s71.167 -60.5 130.5 -60.5c60.667 0 104.5 19.167 131.5 57.5s40.5 98.5 40.5 180.5v866h279v-866c0 -82 13.833 -142.167 41.5 -180.5
s71.834 -57.5 132.501 -57.5c64.667 0 110.167 19 136.5 57s39.5 98.333 39.5 181v866h278v-866c0 -194.667 -39.5 -343 -118.5 -445s-188.833 -153 -329.5 -153c-80 0 -147.667 15 -203 45s-94.333 64 -117 102zM1606.5 1613.5
c-21.667 11.667 -36.832 25.835 -45.499 42.502c-6 -25.333 -22.5 -49.5 -49.5 -72.5s-60.167 -34.5 -99.5 -34.5c-50.667 0 -91 14.667 -121 44s-45 70.666 -45 123.999c0 18 0.5 37.167 1.5 57.5s1.83301 34.833 2.5 43.5h96v-7l-3.5 -39
c-1.66699 -18.667 -2.5 -36.334 -2.5 -53.001c0 -24 6.16699 -42.667 18.5 -56s30.166 -20 53.499 -20c28.667 0 51.5 12.667 68.5 38s25.5 63.333 25.5 114v70h94v-60c0 -38 7.5 -66.5 22.5 -85.5s34.167 -28.5 57.5 -28.5c27.333 0 48.5 9.16699 63.5 27.5
s22.5 46.5 22.5 84.5c0 22.667 -0.833008 42 -2.5 58s-2.83398 28 -3.50098 36v7h94c0.666992 -6.66699 1.83398 -17 3.50098 -31s2.5 -38 2.5 -72c0 -65.333 -16.5 -115.833 -49.5 -151.5s-76.5 -53.5 -130.5 -53.5c-27.333 0 -51.833 5.83301 -73.5 17.5zM1506 2180h94
v-210h-94v210zM2842 -3.99707h-278v1556h278v-1556z" />
    <glyph glyph-name="uniFDFC" unicode="&#x631;&#xfef3;&#xfe8e;&#x644;" horiz-adv-x="3346" arabic-form="isolated" 
d="M1415 457c0 -62.667 -15.167 -122.329 -45.5 -178.996s-74.166 -105 -131.499 -145c-60 -42 -131.333 -74.667 -214 -98s-182.334 -35 -299.001 -35c-218.667 0 -373.667 39.667 -465 119s-137 214.333 -137 405c0 71.333 4.66699 142.666 14 213.999
s15 112.666 17 123.999h272v-8c-2 -14.667 -7 -58.834 -15 -132.501s-12 -138.834 -12 -195.501c0 -61.333 26.667 -104.333 80 -129s136 -37 248 -37c134.667 0 237 16.5 307 49.5s105 78.833 105 137.5v1007h278zM2148 0.00488281h-97.999
c-134.667 0 -241.334 54.833 -320.001 164.5s-118 254.167 -118 433.5v956h278v-956c0 -41.333 5.66699 -76.833 17 -106.5s26 -54.167 44 -73.5c18.667 -18.667 40 -33 64 -43s50.667 -15 80 -15h53v-360zM2657 598.005c0 -183.333 -40.167 -328.833 -120.5 -436.5
s-186.5 -161.5 -318.5 -161.5h-168v360h123c62 0 111.667 21 149 63s56 100.333 56 175v293h279v-293zM1901 -317.995h-148v148h148v-148zM2169 -317.995h-148v148h148v-148zM3229 299.005c0 -122.667 -23.999 -232.671 -71.999 -330.004s-129.667 -179.333 -245 -246
c-90 -51.333 -176.167 -88.666 -258.5 -111.999s-166.833 -35 -253.5 -35v363c48.667 0 104.5 5.83301 167.5 17.5s123.167 29.167 180.5 52.5c66 27.333 115.333 61.833 148 103.5s49 92.834 49 153.501c0 72.667 -15.333 149.834 -46 231.501
s-58.334 141.834 -83.001 180.501v12h293c14 -17.333 37.5 -66 70.5 -146s49.5 -161.667 49.5 -245z" />
    <glyph glyph-name="uni06440622.isol" unicode="&#xfedf;&#xfe82;" horiz-adv-x="1399" arabic-form="isolated" 
d="M1237 563c0 -98.667 -19.832 -184.5 -59.499 -257.5s-91.834 -132.833 -156.501 -179.5c-65.333 -47.333 -139 -82.5 -221 -105.5s-166.333 -34.5 -253 -34.5c-101.333 0 -186.5 3.33301 -255.5 10s-108.167 10.667 -117.5 12v363h8
c8.66699 -1.33301 43.5 -5.5 104.5 -12.5s148.5 -10.5 262.5 -10.5c8.66699 0 16.5 0.333008 23.5 1s11.5 1 13.5 1l-473 1129h305l428 -1082c27.333 12.667 52.833 34 76.5 64s35.5 68 35.5 114v979h279v-991zM526.001 1649c-12.667 -10 -31.8291 -21.498 -57.4961 -34.498
s-55.5 -19.5 -89.5 -19.5c-26 0 -64.5 10.333 -115.5 31s-89.167 31 -114.5 31c-22 0 -48.333 -8.33301 -79 -25s-53.334 -29.667 -68.001 -39v101c11.333 9.33301 32.166 21.166 62.499 35.499s58.5 21.5 84.5 21.5c23.333 0 61.166 -10.167 113.499 -30.5
s91.166 -30.5 116.499 -30.5c28.667 0 58.167 7.66699 88.5 23s49.833 26.666 58.5 33.999v-98z" />
    <glyph glyph-name="uni06440622.fina" unicode="&#xfee0;&#xfe82;" horiz-adv-x="1493" arabic-form="final" 
d="M1397 0c-70.667 0 -132.333 14.5 -185 43.5s-99 71.167 -139 126.5c-67.333 -62.667 -146.833 -109 -238.5 -139s-187.5 -45 -287.5 -45c-101.333 0 -186.5 3.33301 -255.5 10s-108.167 10.667 -117.5 12v363h8c8.66699 -1.33301 43.5 -5.5 104.5 -12.5
s148.5 -10.5 262.5 -10.5c8.66699 0 16.5 0.333008 23.5 1s11.5 1 13.5 1l-473 1129h305l428 -1082c27.333 12.667 52.833 34 76.5 64s35.5 68 35.5 114v979h279v-956c0 -41.333 5.66699 -76.833 17 -106.5s26 -54.167 44 -73.5c19.333 -20 40.833 -34.667 64.5 -44
s50.167 -14 79.5 -14h53v-360h-98zM539.001 1649c-12.667 -10 -31.8291 -21.498 -57.4961 -34.498s-55.5 -19.5 -89.5 -19.5c-26 0 -64.5 10.333 -115.5 31s-89.167 31 -114.5 31c-22 0 -48.333 -8.33301 -79 -25s-53.334 -29.667 -68.001 -39v101
c11.333 9.33301 32.166 21.166 62.499 35.499s58.5 21.5 84.5 21.5c23.333 0 61.166 -10.167 113.499 -30.5s91.166 -30.5 116.499 -30.5c28.667 0 58.167 7.66699 88.5 23s49.833 26.666 58.5 33.999v-98z" />
    <glyph glyph-name="uni06440623.isol" unicode="&#xfedf;&#xfe84;" horiz-adv-x="1399" arabic-form="isolated" 
d="M1237 563c0 -98.667 -19.832 -184.5 -59.499 -257.5s-91.834 -132.833 -156.501 -179.5c-65.333 -47.333 -139 -82.5 -221 -105.5s-166.333 -34.5 -253 -34.5c-101.333 0 -186.5 3.33301 -255.5 10s-108.167 10.667 -117.5 12v363h8
c8.66699 -1.33301 43.5 -5.5 104.5 -12.5s148.5 -10.5 262.5 -10.5c8.66699 0 16.5 0.333008 23.5 1s11.5 1 13.5 1l-473 1129h305l428 -1082c27.333 12.667 52.833 34 76.5 64s35.5 68 35.5 114v979h279v-991zM428.001 1596h-336v94h74
c-16 8.66699 -29.167 22.667 -39.5 42s-15.5 39.333 -15.5 60c0 42.667 15.667 80 47 112s73.666 48 126.999 48c35.333 0 61.5 -2 78.5 -6s28.833 -7.33301 35.5 -10v-101h-6c-9.33301 4 -25.166 8.83301 -47.499 14.5s-41.833 8.5 -58.5 8.5c-29.333 0 -51.333 -6 -66 -18
s-22 -28 -22 -48c0 -30 15.333 -54.5 46 -73.5s67 -28.5 109 -28.5h74v-94z" />
    <glyph glyph-name="uni06440623.fina" unicode="&#xfee0;&#xfe84;" horiz-adv-x="1493" arabic-form="final" 
d="M1397 0c-70.667 0 -132.333 14.5 -185 43.5s-99 71.167 -139 126.5c-67.333 -62.667 -146.833 -109 -238.5 -139s-187.5 -45 -287.5 -45c-101.333 0 -186.5 3.33301 -255.5 10s-108.167 10.667 -117.5 12v363h8c8.66699 -1.33301 43.5 -5.5 104.5 -12.5
s148.5 -10.5 262.5 -10.5c8.66699 0 16.5 0.333008 23.5 1s11.5 1 13.5 1l-473 1129h305l428 -1082c27.333 12.667 52.833 34 76.5 64s35.5 68 35.5 114v979h279v-956c0 -41.333 5.66699 -76.833 17 -106.5s26 -54.167 44 -73.5c19.333 -20 40.833 -34.667 64.5 -44
s50.167 -14 79.5 -14h53v-360h-98zM369.001 1596h-336v94h74c-16 8.66699 -29.167 22.667 -39.5 42s-15.5 39.333 -15.5 60c0 42.667 15.667 80 47 112s73.666 48 126.999 48c35.333 0 61.5 -2 78.5 -6s28.833 -7.33301 35.5 -10v-101h-6
c-9.33301 4 -25.166 8.83301 -47.499 14.5s-41.833 8.5 -58.5 8.5c-29.333 0 -51.333 -6 -66 -18s-22 -28 -22 -48c0 -30 15.333 -54.5 46 -73.5s67 -28.5 109 -28.5h74v-94z" />
    <glyph glyph-name="uni06440625.isol" unicode="&#xfedf;&#xfe88;" horiz-adv-x="1399" arabic-form="isolated" 
d="M1237 563c0 -98.667 -19.832 -184.5 -59.499 -257.5s-91.834 -132.833 -156.501 -179.5c-65.333 -47.333 -139 -82.5 -221 -105.5s-166.333 -34.5 -253 -34.5c-101.333 0 -186.5 3.33301 -255.5 10s-108.167 10.667 -117.5 12v363h8
c8.66699 -1.33301 43.5 -5.5 104.5 -12.5s148.5 -10.5 262.5 -10.5c8.66699 0 16.5 0.333008 23.5 1s11.5 1 13.5 1l-473 1129h305l428 -1082c27.333 12.667 52.833 34 76.5 64s35.5 68 35.5 114v979h279v-991zM705.001 -423h-336v94h74
c-16 8.66699 -29.167 22.667 -39.5 42s-15.5 39.333 -15.5 60c0 42.667 15.667 80 47 112s73.666 48 126.999 48c35.333 0 61.5 -2 78.5 -6s28.833 -7.33301 35.5 -10v-101h-6c-9.33301 4 -25.166 8.83301 -47.499 14.5s-41.833 8.5 -58.5 8.5c-29.333 0 -51.333 -6 -66 -18
s-22 -28 -22 -48c0 -30 15.333 -54.5 46 -73.5s67 -28.5 109 -28.5h74v-94z" />
    <glyph glyph-name="uni06440625.fina" unicode="&#xfee0;&#xfe88;" horiz-adv-x="1493" arabic-form="final" 
d="M1397 0c-70.667 0 -132.333 14.5 -185 43.5s-99 71.167 -139 126.5c-67.333 -62.667 -146.833 -109 -238.5 -139s-187.5 -45 -287.5 -45c-101.333 0 -186.5 3.33301 -255.5 10s-108.167 10.667 -117.5 12v363h8c8.66699 -1.33301 43.5 -5.5 104.5 -12.5
s148.5 -10.5 262.5 -10.5c8.66699 0 16.5 0.333008 23.5 1s11.5 1 13.5 1l-473 1129h305l428 -1082c27.333 12.667 52.833 34 76.5 64s35.5 68 35.5 114v979h279v-956c0 -41.333 5.66699 -76.833 17 -106.5s26 -54.167 44 -73.5c19.333 -20 40.833 -34.667 64.5 -44
s50.167 -14 79.5 -14h53v-360h-98zM731.001 -423h-336v94h74c-16 8.66699 -29.167 22.667 -39.5 42s-15.5 39.333 -15.5 60c0 42.667 15.667 80 47 112s73.666 48 126.999 48c35.333 0 61.5 -2 78.5 -6s28.833 -7.33301 35.5 -10v-101h-6
c-9.33301 4 -25.166 8.83301 -47.499 14.5s-41.833 8.5 -58.5 8.5c-29.333 0 -51.333 -6 -66 -18s-22 -28 -22 -48c0 -30 15.333 -54.5 46 -73.5s67 -28.5 109 -28.5h74v-94z" />
    <glyph glyph-name="uni06440627.isol" unicode="&#xfedf;&#xfe8e;" horiz-adv-x="1399" arabic-form="isolated" 
d="M1237 563c0 -98.667 -19.832 -184.5 -59.499 -257.5s-91.834 -132.833 -156.501 -179.5c-65.333 -47.333 -139 -82.5 -221 -105.5s-166.333 -34.5 -253 -34.5c-101.333 0 -186.5 3.33301 -255.5 10s-108.167 10.667 -117.5 12v363h8
c8.66699 -1.33301 43.5 -5.5 104.5 -12.5s148.5 -10.5 262.5 -10.5c8.66699 0 16.5 0.333008 23.5 1s11.5 1 13.5 1l-473 1129h305l428 -1082c27.333 12.667 52.833 34 76.5 64s35.5 68 35.5 114v979h279v-991z" />
    <glyph glyph-name="uni06440627.fina" unicode="&#xfee0;&#xfe8e;" horiz-adv-x="1493" arabic-form="final" 
d="M1397 0c-70.667 0 -132.333 14.5 -185 43.5s-99 71.167 -139 126.5c-67.333 -62.667 -146.833 -109 -238.5 -139s-187.5 -45 -287.5 -45c-101.333 0 -186.5 3.33301 -255.5 10s-108.167 10.667 -117.5 12v363h8c8.66699 -1.33301 43.5 -5.5 104.5 -12.5
s148.5 -10.5 262.5 -10.5c8.66699 0 16.5 0.333008 23.5 1s11.5 1 13.5 1l-473 1129h305l428 -1082c27.333 12.667 52.833 34 76.5 64s35.5 68 35.5 114v979h279v-956c0 -41.333 5.66699 -76.833 17 -106.5s26 -54.167 44 -73.5c19.333 -20 40.833 -34.667 64.5 -44
s50.167 -14 79.5 -14h53v-360h-98zM1399 0z" />
    <glyph glyph-name="lillah" unicode="&#xfedf;&#xfee0;&#x6c1;" horiz-adv-x="2486" 
d="M795 645l-0.00195312 240.001c-120.667 -6 -211.667 -26.833 -273 -62.5s-92 -83.834 -92 -144.501c0 -30.667 12.667 -56.5 38 -77.5s57 -31.5 95 -31.5c38.667 0 79.334 6.66699 122.001 20s79.334 32 110.001 56zM1556 147.001
c-23.333 -42 -63.833 -77.666 -121.5 -106.999s-126.167 -44 -205.5 -44c-106.667 0 -196.334 33 -269.001 99s-121 162 -145 288c-30.667 -34.667 -71.834 -63.167 -123.501 -85.5s-102.5 -33.5 -152.5 -33.5c-126 0 -226.833 38.333 -302.5 115s-113.5 175.667 -113.5 297
c0 155.333 59.333 274.166 178 356.499s289.334 128.5 512.001 138.5l260 13v-586c0 -78 13.833 -137.167 41.5 -177.5s71.167 -60.5 130.5 -60.5c60.667 0 104.5 19.167 131.5 57.5s40.5 98.5 40.5 180.5v866h279v-866c0 -82 13.833 -142.167 41.5 -180.5
s71.834 -57.5 132.501 -57.5c64.667 0 110.167 19 136.5 57s39.5 98.333 39.5 181v866h278v-866c0 -194.667 -39.5 -343 -118.5 -445s-188.833 -153 -329.5 -153c-80 0 -147.667 15 -203 45s-94.333 64 -117 102zM1606.5 1613.5
c-21.667 11.667 -36.832 25.835 -45.499 42.502c-6 -25.333 -22.5 -49.5 -49.5 -72.5s-60.167 -34.5 -99.5 -34.5c-50.667 0 -91 14.667 -121 44s-45 70.666 -45 123.999c0 18 0.5 37.167 1.5 57.5s1.83301 34.833 2.5 43.5h96v-7l-3.5 -39
c-1.66699 -18.667 -2.5 -36.334 -2.5 -53.001c0 -24 6.16699 -42.667 18.5 -56s30.166 -20 53.499 -20c28.667 0 51.5 12.667 68.5 38s25.5 63.333 25.5 114v70h94v-60c0 -38 7.5 -66.5 22.5 -85.5s34.167 -28.5 57.5 -28.5c27.333 0 48.5 9.16699 63.5 27.5
s22.5 46.5 22.5 84.5c0 22.667 -0.833008 42 -2.5 58s-2.83398 28 -3.50098 36v7h94c0.666992 -6.66699 1.83398 -17 3.50098 -31s2.5 -38 2.5 -72c0 -65.333 -16.5 -115.833 -49.5 -151.5s-76.5 -53.5 -130.5 -53.5c-27.333 0 -51.833 5.83301 -73.5 17.5zM1506 2180h94
v-210h-94v210z" />
    <glyph glyph-name="glyph2488" unicode="&#xfedf;&#xfb51;" horiz-adv-x="1399" 
d="M1237 563c0 -98.667 -19.832 -184.5 -59.499 -257.5s-91.834 -132.833 -156.501 -179.5c-65.333 -47.333 -139 -82.5 -221 -105.5s-166.333 -34.5 -253 -34.5c-101.333 0 -186.5 3.33301 -255.5 10s-108.167 10.667 -117.5 12v363h8
c8.66699 -1.33301 43.5 -5.5 104.5 -12.5s148.5 -10.5 262.5 -10.5c8.66699 0 16.5 0.333008 23.5 1s11.5 1 13.5 1l-473 1129h305l428 -1082c27.333 12.667 52.833 34 76.5 64s35.5 68 35.5 114v979h279v-991zM518.001 1817c0 -105.333 -55.002 -157.999 -165.002 -157.999
c-18.667 0 -50 2.66699 -94 8s-77 8 -99 8c-49.333 0 -91.666 -11.333 -126.999 -34v101c33.333 18.667 68.333 28 105 28c27.333 0 46.333 -0.333008 57 -1c0 40.667 10 80.667 30 120c30.667 60 78.334 90 143.001 90c46 0 82.5 -14.833 109.5 -44.5
s40.5 -68.834 40.5 -117.501zM427.999 1817c0 44.667 -20.001 67 -60.001 67c-30 0 -53 -15 -69 -45c-13.333 -24 -20 -52.333 -20 -85c32.667 -4.66699 54.334 -7 65.001 -7c56 0 84 23.333 84 70z" />
    <glyph glyph-name="glyph2489" unicode="&#xfee0;&#xfb51;" horiz-adv-x="1493" 
d="M1397 0c-70.667 0 -132.333 14.5 -185 43.5s-99 71.167 -139 126.5c-67.333 -62.667 -146.833 -109 -238.5 -139s-187.5 -45 -287.5 -45c-101.333 0 -186.5 3.33301 -255.5 10s-108.167 10.667 -117.5 12v363h8c8.66699 -1.33301 43.5 -5.5 104.5 -12.5
s148.5 -10.5 262.5 -10.5c8.66699 0 16.5 0.333008 23.5 1s11.5 1 13.5 1l-473 1129h305l428 -1082c27.333 12.667 52.833 34 76.5 64s35.5 68 35.5 114v979h279v-956c0 -41.333 5.66699 -76.833 17 -106.5s26 -54.167 44 -73.5c19.333 -20 40.833 -34.667 64.5 -44
s50.167 -14 79.5 -14h53v-360h-98zM518.001 1817c0 -105.333 -55.002 -157.999 -165.002 -157.999c-18.667 0 -50 2.66699 -94 8s-77 8 -99 8c-49.333 0 -91.666 -11.333 -126.999 -34v101c33.333 18.667 68.333 28 105 28c27.333 0 46.333 -0.333008 57 -1
c0 40.667 10 80.667 30 120c30.667 60 78.334 90 143.001 90c46 0 82.5 -14.833 109.5 -44.5s40.5 -68.834 40.5 -117.501zM427.999 1817c0 44.667 -20.001 67 -60.001 67c-30 0 -53 -15 -69 -45c-13.333 -24 -20 -52.333 -20 -85c32.667 -4.66699 54.334 -7 65.001 -7
c56 0 84 23.333 84 70z" />
    <glyph glyph-name="uni0622" unicode="&#x622;" horiz-adv-x="627" arabic-form="isolated" 
d="M442 -4h-278v1556h278v-1556zM569 1731c-12.667 -10 -31.8291 -21.498 -57.4961 -34.498s-55.5 -19.5 -89.5 -19.5c-26 0 -64.5 10.333 -115.5 31s-89.167 31 -114.5 31c-22 0 -48.333 -8.33301 -79 -25s-53.334 -29.667 -68.001 -39v101
c11.333 9.33301 32.166 21.166 62.499 35.499s58.5 21.5 84.5 21.5c23.333 0 61.166 -10.167 113.499 -30.5s91.166 -30.5 116.499 -30.5c28.667 0 58.167 7.66699 88.5 23s49.833 26.666 58.5 33.999v-98z" />
    <glyph glyph-name="uni0623" unicode="&#x623;" horiz-adv-x="627" arabic-form="isolated" 
d="M442 -4h-278v1556h278v-1556zM465 1678h-336v94h74c-16 8.66699 -29.167 22.667 -39.5 42s-15.5 39.333 -15.5 60c0 42.667 15.667 80 47 112s73.666 48 126.999 48c35.333 0 61.5 -2 78.5 -6s28.833 -7.33301 35.5 -10v-101h-6c-9.33301 4 -25.166 8.83301 -47.499 14.5
s-41.833 8.5 -58.5 8.5c-29.333 0 -51.333 -6 -66 -18s-22 -28 -22 -48c0 -30 15.333 -54.5 46 -73.5s67 -28.5 109 -28.5h74v-94z" />
    <glyph glyph-name="uni0624" unicode="&#x624;" horiz-adv-x="1083" arabic-form="isolated" 
d="M961 274c0 -136 -30.832 -253.17 -92.499 -351.503s-154.834 -174.5 -279.501 -228.5c-97.333 -43.333 -187.5 -73.833 -270.5 -91.5s-189.167 -26.5 -318.5 -26.5v344c56.667 0 115.667 3.33301 177 10s121.333 16.667 180 30c69.333 15.333 130.333 36.333 183 63
s91 61.334 115 104.001c-6.66699 -1.33301 -25.167 -4 -55.5 -8s-48.5 -6 -54.5 -6c-136.667 0 -246 39.167 -328 117.5s-123 176.833 -123 295.5c0 126.667 40.5 233.834 121.5 321.501s175.167 131.5 282.5 131.5c128.667 0 238 -64.667 328 -194
s135 -299.666 135 -510.999zM666.001 448.997c-12.667 64.667 -32.833 115.499 -60.5 152.499s-59.5 55.5 -95.5 55.5s-68.167 -12.167 -96.5 -36.5s-42.5 -53.833 -42.5 -88.5c0 -24.667 13.333 -47.167 40 -67.5s67 -30.5 121 -30.5c28 0 55.667 1.83301 83 5.5
s44.333 6.83398 51 9.50098zM633.002 1188h-336v94h74c-16 8.66699 -29.167 22.667 -39.5 42s-15.5 39.333 -15.5 60c0 42.667 15.667 80 47 112s73.666 48 126.999 48c35.333 0 61.5 -2 78.5 -6s28.833 -7.33301 35.5 -10v-101h-6c-9.33301 4 -25.166 8.83301 -47.499 14.5
s-41.833 8.5 -58.5 8.5c-29.333 0 -51.333 -6 -66 -18s-22 -28 -22 -48c0 -30 15.333 -54.5 46 -73.5s67 -28.5 109 -28.5h74v-94z" />
    <glyph glyph-name="uni0625" unicode="&#x625;" horiz-adv-x="627" arabic-form="isolated" 
d="M442 -4h-278v1556h278v-1556zM458 -423h-336v94h74c-16 8.66699 -29.167 22.667 -39.5 42s-15.5 39.333 -15.5 60c0 42.667 15.667 80 47 112s73.666 48 126.999 48c35.333 0 61.5 -2 78.5 -6s28.833 -7.33301 35.5 -10v-101h-6c-9.33301 4 -25.166 8.83301 -47.499 14.5
s-41.833 8.5 -58.5 8.5c-29.333 0 -51.333 -6 -66 -18s-22 -28 -22 -48c0 -30 15.333 -54.5 46 -73.5s67 -28.5 109 -28.5h74v-94z" />
    <glyph glyph-name="uni0626" unicode="&#x626;" horiz-adv-x="1991" arabic-form="isolated" 
d="M1860 932l-9 0.000976562c-36 19.333 -94.667 37.166 -176 53.499s-162.333 24.5 -243 24.5c-68 0 -120.833 -8.16699 -158.5 -24.5s-56.5 -38.166 -56.5 -65.499c0 -24 35.333 -46.833 106 -68.5l222 -70.5c36.667 -12.667 75.334 -28.334 116.001 -47.001
s77 -39.667 109 -63c30 -22.667 54.5 -49 73.5 -79s28.5 -63.333 28.5 -100c0 -156 -89.667 -278 -269 -366s-440 -132 -782 -132c-236 0 -411.667 42.333 -527 127s-173 219 -173 403c0 83.333 4.83301 158.5 14.5 225.5s15.167 104.5 16.5 112.5h272v-18
c-2.66699 -10.667 -7.83398 -51.334 -15.501 -122.001s-11.5 -136 -11.5 -196c0 -54.667 28.5 -96.667 85.5 -126s170.5 -44 340.5 -44c254 0 445.833 10.167 575.5 30.5s194.5 54.5 194.5 102.5c0 23.333 -25.167 44.833 -75.5 64.5s-124.833 42.834 -223.5 69.501
c-43.333 12 -88.833 28.333 -136.5 49s-86.5 42.334 -116.5 65.001c-30 22 -54.667 48.667 -74 80s-29 66.333 -29 105c0 114 46 210 138 288s211.333 117 358 117c85.333 0 165.833 -7.33301 241.5 -22s137.167 -31.334 184.5 -50.001v-323zM756 1079h-336v94h74
c-16 8.66699 -29.167 22.667 -39.5 42s-15.5 39.333 -15.5 60c0 42.667 15.667 80 47 112s73.666 48 126.999 48c35.333 0 61.5 -2 78.5 -6s28.833 -7.33301 35.5 -10v-101h-6c-9.33301 4 -25.166 8.83301 -47.499 14.5s-41.833 8.5 -58.5 8.5c-29.333 0 -51.333 -6 -66 -18
s-22 -28 -22 -48c0 -30 15.333 -54.5 46 -73.5s67 -28.5 109 -28.5h74v-94z" />
    <glyph glyph-name="uni0627" unicode="&#x627;" horiz-adv-x="627" arabic-form="isolated" 
d="M442 -4h-278v1556h278v-1556z" />
    <glyph glyph-name="uni0628" unicode="&#x628;" horiz-adv-x="1901" arabic-form="isolated" 
d="M1772 582c0 -187.333 -67.6689 -332.498 -203.002 -435.498s-342.333 -154.5 -621 -154.5c-278 0 -484 52.333 -618 157s-201 249 -201 433c0 64 4.66699 125.333 14 184s15 92 17 100h274v-10c-4 -20 -9.33301 -58.167 -16 -114.5s-10 -105.5 -10 -147.5
c0 -76 46.833 -135 140.5 -177s227.5 -63 401.5 -63c172 0 305.5 21 400.5 63s142.5 101 142.5 177c0 52.667 -3.66699 104.667 -11 156s-12.666 86.666 -15.999 105.999v10h273c4.66699 -19.333 11.334 -60.333 20.001 -123s13 -116.334 13 -161.001zM1024 -309.998h-148
v148h148v-148z" />
    <glyph glyph-name="uni0629" unicode="&#x629;" horiz-adv-x="1114" arabic-form="isolated" 
d="M1036 453c0 -140 -45.167 -253.831 -135.5 -341.498s-203.5 -131.5 -339.5 -131.5c-138.667 0 -252.167 43.5 -340.5 130.5s-132.5 201.167 -132.5 342.5c0 97.333 25.167 183.666 75.5 258.999s120.166 140.333 209.499 195l37 23l-134 127h322l180 -158
c86.667 -74.667 151.334 -147.834 194.001 -219.501s64 -147.167 64 -226.5zM768 500.002c0 42.667 -14.333 84.167 -43 124.5s-71.667 85.5 -129 135.5l-16 14l-37 -22c-57.333 -34.667 -101.333 -72.167 -132 -112.5s-46 -86.833 -46 -139.5c0 -42 18 -79.167 54 -111.5
s84 -48.5 144 -48.5c58.667 0 107.5 16.833 146.5 50.5s58.5 70.167 58.5 109.5zM455 1296h-148v148h148v-148zM723 1296h-148v148h148v-148z" />
    <glyph glyph-name="uni062A" unicode="&#x62a;" horiz-adv-x="1901" arabic-form="isolated" 
d="M1772 582c0 -187.333 -67.6689 -332.498 -203.002 -435.498s-342.333 -154.5 -621 -154.5c-278 0 -484 52.333 -618 157s-201 249 -201 433c0 64 4.66699 125.333 14 184s15 92 17 100h274v-10c-4 -20 -9.33301 -58.167 -16 -114.5s-10 -105.5 -10 -147.5
c0 -76 46.833 -135 140.5 -177s227.5 -63 401.5 -63c172 0 305.5 21 400.5 63s142.5 101 142.5 177c0 52.667 -3.66699 104.667 -11 156s-12.666 86.666 -15.999 105.999v10h273c4.66699 -19.333 11.334 -60.333 20.001 -123s13 -116.334 13 -161.001zM881.998 1024h-148
v148h148v-148zM1150 1024h-148v148h148v-148z" />
    <glyph glyph-name="uni062B" unicode="&#x62b;" horiz-adv-x="1901" arabic-form="isolated" 
d="M1772 582c0 -187.333 -67.6689 -332.498 -203.002 -435.498s-342.333 -154.5 -621 -154.5c-278 0 -484 52.333 -618 157s-201 249 -201 433c0 64 4.66699 125.333 14 184s15 92 17 100h274v-10c-4 -20 -9.33301 -58.167 -16 -114.5s-10 -105.5 -10 -147.5
c0 -76 46.833 -135 140.5 -177s227.5 -63 401.5 -63c172 0 305.5 21 400.5 63s142.5 101 142.5 177c0 52.667 -3.66699 104.667 -11 156s-12.666 86.666 -15.999 105.999v10h273c4.66699 -19.333 11.334 -60.333 20.001 -123s13 -116.334 13 -161.001zM872.998 1024h-148
v148h148v-148zM1169 1024h-148v148h148v-148zM1021 1233h-148v148h148v-148z" />
    <glyph glyph-name="uni062C" unicode="&#x62c;" horiz-adv-x="1425" arabic-form="isolated" 
d="M1303 575l-132.003 0.00292969c-128.667 0 -241.834 -9 -339.501 -27s-179.167 -43.667 -244.5 -77c-64 -32.667 -111.667 -72.334 -143 -119.001s-47 -97.667 -47 -153c0 -78 33.167 -141.667 99.5 -191s159.5 -74 279.5 -74c86.667 0 171.834 8.33301 255.501 25
s156.834 40 219.501 70h9v-346c-62.667 -34.667 -136 -61.167 -220 -79.5s-171.333 -27.5 -262 -27.5c-184 0 -339.167 57.167 -465.5 171.5s-189.5 264.166 -189.5 449.499c0 75.333 17.5 146.166 52.5 212.499s84.5 125.833 148.5 178.5c63.333 52 140.5 94.667 231.5 128
s192.5 54.666 304.5 63.999c-40.667 12.667 -122.667 27.834 -246 45.501s-238 26.5 -344 26.5h-67v309h84c150.667 0 313.834 -28.333 489.501 -85s331.834 -134 468.501 -232h58v-269zM812.997 156.003h-148v148h148v-148z" />
    <glyph glyph-name="uni062D" unicode="&#x62d;" horiz-adv-x="1425" arabic-form="isolated" 
d="M1303 575l-132.003 0.00292969c-128.667 0 -241.834 -9 -339.501 -27s-179.167 -43.667 -244.5 -77c-64 -32.667 -111.667 -72.334 -143 -119.001s-47 -97.667 -47 -153c0 -78 33.167 -141.667 99.5 -191s159.5 -74 279.5 -74c86.667 0 171.834 8.33301 255.501 25
s156.834 40 219.501 70h9v-346c-62.667 -34.667 -136 -61.167 -220 -79.5s-171.333 -27.5 -262 -27.5c-184 0 -339.167 57.167 -465.5 171.5s-189.5 264.166 -189.5 449.499c0 75.333 17.5 146.166 52.5 212.499s84.5 125.833 148.5 178.5c63.333 52 140.5 94.667 231.5 128
s192.5 54.666 304.5 63.999c-40.667 12.667 -122.667 27.834 -246 45.501s-238 26.5 -344 26.5h-67v309h84c150.667 0 313.834 -28.333 489.501 -85s331.834 -134 468.501 -232h58v-269z" />
    <glyph glyph-name="uni062E" unicode="&#x62e;" horiz-adv-x="1425" arabic-form="isolated" 
d="M1303 575l-132.003 0.00292969c-128.667 0 -241.834 -9 -339.501 -27s-179.167 -43.667 -244.5 -77c-64 -32.667 -111.667 -72.334 -143 -119.001s-47 -97.667 -47 -153c0 -78 33.167 -141.667 99.5 -191s159.5 -74 279.5 -74c86.667 0 171.834 8.33301 255.501 25
s156.834 40 219.501 70h9v-346c-62.667 -34.667 -136 -61.167 -220 -79.5s-171.333 -27.5 -262 -27.5c-184 0 -339.167 57.167 -465.5 171.5s-189.5 264.166 -189.5 449.499c0 75.333 17.5 146.166 52.5 212.499s84.5 125.833 148.5 178.5c63.333 52 140.5 94.667 231.5 128
s192.5 54.666 304.5 63.999c-40.667 12.667 -122.667 27.834 -246 45.501s-238 26.5 -344 26.5h-67v309h84c150.667 0 313.834 -28.333 489.501 -85s331.834 -134 468.501 -232h58v-269zM997.997 1304h-148v148h148v-148z" />
    <glyph glyph-name="uni062F" unicode="&#x62f;" horiz-adv-x="1114" arabic-form="isolated" 
d="M768 822c70.667 -57.333 130.333 -119.499 179 -186.499s73 -134.167 73 -201.5c0 -138 -41.5 -244.833 -124.5 -320.5s-194.5 -113.5 -334.5 -113.5h-481v360h479c66.667 0 114 6.83301 142 20.5s42 33.5 42 59.5c0 28 -10.833 56.167 -32.5 84.5
s-52.167 57.166 -91.5 86.499c-39.333 30 -84.833 60.333 -136.5 91l-183.5 105v323h8l229.5 -142.5c89 -56.333 166.167 -111.5 231.5 -165.5z" />
    <glyph glyph-name="uni0630" unicode="&#x630;" horiz-adv-x="1114" arabic-form="isolated" 
d="M768 822c70.667 -57.333 130.333 -119.499 179 -186.499s73 -134.167 73 -201.5c0 -138 -41.5 -244.833 -124.5 -320.5s-194.5 -113.5 -334.5 -113.5h-481v360h479c66.667 0 114 6.83301 142 20.5s42 33.5 42 59.5c0 28 -10.833 56.167 -32.5 84.5
s-52.167 57.166 -91.5 86.499c-39.333 30 -84.833 60.333 -136.5 91l-183.5 105v323h8l229.5 -142.5c89 -56.333 166.167 -111.5 231.5 -165.5zM409.999 1372h-148v148h148v-148z" />
    <glyph glyph-name="uni0631" unicode="&#x631;" horiz-adv-x="946" arabic-form="isolated" 
d="M829 299c0 -122.667 -23.999 -232.671 -71.999 -330.004s-129.667 -179.333 -245 -246c-90 -51.333 -176.167 -88.666 -258.5 -111.999s-166.833 -35 -253.5 -35v363c48.667 0 104.5 5.83301 167.5 17.5s123.167 29.167 180.5 52.5c66 27.333 115.333 61.833 148 103.5
s49 92.834 49 153.501c0 72.667 -15.333 149.834 -46 231.501s-58.334 141.834 -83.001 180.501v12h293c14 -17.333 37.5 -66 70.5 -146s49.5 -161.667 49.5 -245z" />
    <glyph glyph-name="uni0632" unicode="&#x632;" horiz-adv-x="946" arabic-form="isolated" 
d="M829 299c0 -122.667 -23.999 -232.671 -71.999 -330.004s-129.667 -179.333 -245 -246c-90 -51.333 -176.167 -88.666 -258.5 -111.999s-166.833 -35 -253.5 -35v363c48.667 0 104.5 5.83301 167.5 17.5s123.167 29.167 180.5 52.5c66 27.333 115.333 61.833 148 103.5
s49 92.834 49 153.501c0 72.667 -15.333 149.834 -46 231.501s-58.334 141.834 -83.001 180.501v12h293c14 -17.333 37.5 -66 70.5 -146s49.5 -161.667 49.5 -245zM627.001 931.996h-148v148h148v-148z" />
    <glyph glyph-name="uni0633" unicode="&#x633;" horiz-adv-x="2871" arabic-form="isolated" 
d="M2748 598c0 -84 -9.83691 -163.501 -29.5039 -238.501s-48.167 -138.833 -85.5 -191.5c-39.333 -55.333 -86.333 -98.166 -141 -128.499s-119.334 -45.5 -194 -45.5c-72.667 0 -139.167 14.5 -199.5 43.5s-103.166 63.5 -128.499 103.5c-37.333 -50 -84 -87 -140 -111
s-117 -36 -183 -36c-40 0 -78.167 9 -114.5 27s-65.166 41.667 -86.499 71c-23.333 -156 -96.666 -281 -219.999 -375s-274 -141 -452 -141c-92.667 0 -178.667 14.167 -258 42.5s-148.333 69.833 -207 124.5c-57.333 54.667 -102.666 123.667 -135.999 207
s-50 177.666 -50 282.999c0 98.667 5.5 182.834 16.5 252.501l20.5 130.5h284v-6c-2.66699 -8 -10.5 -56 -23.5 -144s-19.5 -164 -19.5 -228c0 -89.333 35.5 -161.5 106.5 -216.5s159.833 -82.5 266.5 -82.5c118 0 213.333 34 286 102s109 158 109 270
c0 92.667 -2.5 182.167 -7.5 268.5s-7.83301 132.833 -8.5 139.5h305c0 -116 17.5 -205.833 52.5 -269.5s80.5 -95.5 136.5 -95.5c54 0 98.167 20.5 132.5 61.5s51.5 92.833 51.5 155.5v148h278v-150c0 -58 14 -107.333 42 -148s67.333 -61 118 -61
c58 0 106 19.167 144 57.5s57 98.5 57 180.5v293h278v-293z" />
    <glyph glyph-name="uni0634" unicode="&#x634;" horiz-adv-x="2871" arabic-form="isolated" 
d="M2748 598c0 -84 -9.83691 -163.501 -29.5039 -238.501s-48.167 -138.833 -85.5 -191.5c-39.333 -55.333 -86.333 -98.166 -141 -128.499s-119.334 -45.5 -194 -45.5c-72.667 0 -139.167 14.5 -199.5 43.5s-103.166 63.5 -128.499 103.5c-37.333 -50 -84 -87 -140 -111
s-117 -36 -183 -36c-40 0 -78.167 9 -114.5 27s-65.166 41.667 -86.499 71c-23.333 -156 -96.666 -281 -219.999 -375s-274 -141 -452 -141c-92.667 0 -178.667 14.167 -258 42.5s-148.333 69.833 -207 124.5c-57.333 54.667 -102.666 123.667 -135.999 207
s-50 177.666 -50 282.999c0 98.667 5.5 182.834 16.5 252.501l20.5 130.5h284v-6c-2.66699 -8 -10.5 -56 -23.5 -144s-19.5 -164 -19.5 -228c0 -89.333 35.5 -161.5 106.5 -216.5s159.833 -82.5 266.5 -82.5c118 0 213.333 34 286 102s109 158 109 270
c0 92.667 -2.5 182.167 -7.5 268.5s-7.83301 132.833 -8.5 139.5h305c0 -116 17.5 -205.833 52.5 -269.5s80.5 -95.5 136.5 -95.5c54 0 98.167 20.5 132.5 61.5s51.5 92.833 51.5 155.5v148h278v-150c0 -58 14 -107.333 42 -148s67.333 -61 118 -61
c58 0 106 19.167 144 57.5s57 98.5 57 180.5v293h278v-293zM1577 960.999h-148v148h148v-148zM1873 960.999h-148v148h148v-148zM1725 1170h-148v148h148v-148z" />
    <glyph glyph-name="uni0635" unicode="&#x635;" horiz-adv-x="2910" arabic-form="isolated" 
d="M2385 419c42.667 18 74.334 38.501 95 61.501c20.667 23 31 47.833 31 74.5c0 39.333 -15.5 74.5 -46.5 105.5s-74.167 46.5 -129.5 46.5c-65.333 0 -125.5 -11.5 -180.5 -34.5s-106.833 -52.5 -155.5 -88.5c-46 -34.667 -87.167 -72.334 -123.5 -113.001
s-67.5 -77.667 -93.5 -111h190c93.333 0 175 5.33301 245 16s126 25 168 43zM774 -423.999c-199.333 0 -357.665 59.168 -474.998 177.501s-176 278.166 -176 479.499c0 98.667 5.83301 185.167 17.5 259.5s18.167 115.5 19.5 123.5h284v-12
c-8.66699 -35.333 -18 -88.833 -28 -160.5s-15 -140.167 -15 -205.5c0 -88 35.167 -159.833 105.5 -215.5s159.5 -83.5 267.5 -83.5c53.333 0 104 8.16699 152 24.5s89 39.166 123 68.499c39.333 34 69.166 74.333 89.499 121s30.5 99.334 30.5 158.001
c0 94 -2 164.667 -6 212s-7.33301 78.333 -10 93h285l6 -38c6 -40 10.167 -82.333 12.5 -127s11.166 -70.667 26.499 -78c189.333 268.667 346 444.334 470 527.001s250.667 124 380 124c130 0 238.167 -45 324.5 -135s129.5 -206.667 129.5 -350
c0 -74 -18 -143.833 -54 -209.5s-86 -122.834 -150 -171.501c-65.333 -49.333 -141.833 -88 -229.5 -116s-185.5 -42 -293.5 -42h-635c-46.667 -134 -126.667 -238.167 -240 -312.5s-250.333 -111.5 -411 -111.5z" />
    <glyph glyph-name="uni0636" unicode="&#x636;" horiz-adv-x="2910" arabic-form="isolated" 
d="M2385 419c42.667 18 74.334 38.501 95 61.501c20.667 23 31 47.833 31 74.5c0 39.333 -15.5 74.5 -46.5 105.5s-74.167 46.5 -129.5 46.5c-65.333 0 -125.5 -11.5 -180.5 -34.5s-106.833 -52.5 -155.5 -88.5c-46 -34.667 -87.167 -72.334 -123.5 -113.001
s-67.5 -77.667 -93.5 -111h190c93.333 0 175 5.33301 245 16s126 25 168 43zM774 -423.999c-199.333 0 -357.665 59.168 -474.998 177.501s-176 278.166 -176 479.499c0 98.667 5.83301 185.167 17.5 259.5s18.167 115.5 19.5 123.5h284v-12
c-8.66699 -35.333 -18 -88.833 -28 -160.5s-15 -140.167 -15 -205.5c0 -88 35.167 -159.833 105.5 -215.5s159.5 -83.5 267.5 -83.5c53.333 0 104 8.16699 152 24.5s89 39.166 123 68.499c39.333 34 69.166 74.333 89.499 121s30.5 99.334 30.5 158.001
c0 94 -2 164.667 -6 212s-7.33301 78.333 -10 93h285l6 -38c6 -40 10.167 -82.333 12.5 -127s11.166 -70.667 26.499 -78c189.333 268.667 346 444.334 470 527.001s250.667 124 380 124c130 0 238.167 -45 324.5 -135s129.5 -206.667 129.5 -350
c0 -74 -18 -143.833 -54 -209.5s-86 -122.834 -150 -171.501c-65.333 -49.333 -141.833 -88 -229.5 -116s-185.5 -42 -293.5 -42h-635c-46.667 -134 -126.667 -238.167 -240 -312.5s-250.333 -111.5 -411 -111.5zM1756 1165h-148v148h148v-148z" />
    <glyph glyph-name="uni0637" unicode="&#x637;" horiz-adv-x="1663" arabic-form="isolated" 
d="M1264 553c0 44 -15.6699 80.668 -47.0029 110.001s-74.666 44 -129.999 44c-61.333 0 -119.666 -11.833 -174.999 -35.5s-107 -52.834 -155 -87.501c-42 -30.667 -81.667 -65.167 -119 -103.5s-72.666 -78.5 -105.999 -120.5h197c93.333 0 174.833 5.5 244.5 16.5
s125.167 25.5 166.5 43.5c40.667 18 71.5 38.333 92.5 61s31.5 46.667 31.5 72zM1540 549.001c0 -75.333 -18.999 -147.667 -56.999 -217s-88.667 -127.333 -152 -174c-66.667 -50 -144.334 -88.833 -233.001 -116.5s-187 -41.5 -295 -41.5h-873v360h287l31 31v1165h276
v-815c71.333 81.333 156.833 148.833 256.5 202.5s201.167 80.5 304.5 80.5c132 0 240.833 -44 326.5 -132s128.5 -202.333 128.5 -343z" />
    <glyph glyph-name="uni0638" unicode="&#x638;" horiz-adv-x="1663" arabic-form="isolated" 
d="M1264 553c0 44 -15.6699 80.668 -47.0029 110.001s-74.666 44 -129.999 44c-61.333 0 -119.666 -11.833 -174.999 -35.5s-107 -52.834 -155 -87.501c-42 -30.667 -81.667 -65.167 -119 -103.5s-72.666 -78.5 -105.999 -120.5h197c93.333 0 174.833 5.5 244.5 16.5
s125.167 25.5 166.5 43.5c40.667 18 71.5 38.333 92.5 61s31.5 46.667 31.5 72zM1540 549.001c0 -75.333 -18.999 -147.667 -56.999 -217s-88.667 -127.333 -152 -174c-66.667 -50 -144.334 -88.833 -233.001 -116.5s-187 -41.5 -295 -41.5h-873v360h287l31 31v1165h276
v-815c71.333 81.333 156.833 148.833 256.5 202.5s201.167 80.5 304.5 80.5c132 0 240.833 -44 326.5 -132s128.5 -202.333 128.5 -343zM929.998 1266h-148v148h148v-148z" />
    <glyph glyph-name="uni0639" unicode="&#x639;" horiz-adv-x="1427" arabic-form="isolated" 
d="M1247 -338c-54 -28 -118.668 -49.334 -194.001 -64.001s-165 -22 -269 -22c-206 0 -368.333 50.833 -487 152.5s-178 239.167 -178 412.5c0 91.333 16 165 48 221s77.333 106 136 150c-27.333 21.333 -53.666 57.833 -78.999 109.5s-38 105.834 -38 162.501
c0 132 45 239.167 135 321.5s207.667 123.5 353 123.5c77.333 0 144.333 -2.83301 201 -8.5s90 -9.16699 100 -10.5v-313h-10c-24.667 2 -65 4.83301 -121 8.5s-110 5.5 -162 5.5c-61.333 0 -112.833 -17.833 -154.5 -53.5s-62.5 -75.834 -62.5 -120.501
c0 -28 5.66699 -52.667 17 -74s26 -37.666 44 -48.999l543 136v-267l-434 -108c-77.333 -18.667 -136.333 -47.5 -177 -86.5s-61 -87.5 -61 -145.5c0 -63.333 33.833 -114 101.5 -152s162.167 -57 283.5 -57c82 0 167.167 6.83301 255.5 20.5s155.5 29.5 201.5 47.5h8v-340z
" />
    <glyph glyph-name="uni063A" unicode="&#x63a;" horiz-adv-x="1427" arabic-form="isolated" 
d="M1247 -338c-54 -28 -118.668 -49.334 -194.001 -64.001s-165 -22 -269 -22c-206 0 -368.333 50.833 -487 152.5s-178 239.167 -178 412.5c0 91.333 16 165 48 221s77.333 106 136 150c-27.333 21.333 -53.666 57.833 -78.999 109.5s-38 105.834 -38 162.501
c0 132 45 239.167 135 321.5s207.667 123.5 353 123.5c77.333 0 144.333 -2.83301 201 -8.5s90 -9.16699 100 -10.5v-313h-10c-24.667 2 -65 4.83301 -121 8.5s-110 5.5 -162 5.5c-61.333 0 -112.833 -17.833 -154.5 -53.5s-62.5 -75.834 -62.5 -120.501
c0 -28 5.66699 -52.667 17 -74s26 -37.666 44 -48.999l543 136v-267l-434 -108c-77.333 -18.667 -136.333 -47.5 -177 -86.5s-61 -87.5 -61 -145.5c0 -63.333 33.833 -114 101.5 -152s162.167 -57 283.5 -57c82 0 167.167 6.83301 255.5 20.5s155.5 29.5 201.5 47.5h8v-340z
M727.999 1468h-148v148h148v-148z" />
    <glyph glyph-name="uni0641" unicode="&#x641;" horiz-adv-x="2095" arabic-form="isolated" 
d="M1972 590c0 -105.333 -26.332 -195.832 -78.999 -271.499s-120.667 -136.834 -204 -183.501c-85.333 -48.667 -182.166 -84.667 -290.499 -108s-221.5 -35 -339.5 -35h-45c-298.667 0 -521.834 49.5 -669.501 148.5s-221.5 246.167 -221.5 441.5
c0 55.333 4.33301 116.166 13 182.499l14 107.5h274v-4c-2 -10 -6.66699 -49.5 -14 -118.5s-11 -120.833 -11 -155.5c0 -76 50.167 -135.333 150.5 -178s255.166 -64 464.499 -64h22c116 0 211.667 3.66699 287 11s136 18 182 32c44 13.333 78.333 29.166 103 47.499
s46 40.833 64 67.5c-8 0 -17 -0.666992 -27 -2s-23.333 -2.66602 -40 -3.99902c-16 -1.33301 -33.5 -2.66602 -52.5 -3.99902s-36.167 -2 -51.5 -2c-123.333 0 -220 33.667 -290 101s-105 155 -105 263c0 118.667 36.167 218.667 108.5 300s156.833 122 253.5 122
c136 0 254 -63.167 354 -189.5s150 -294.5 150 -504.5zM1677 772.001c-8 54 -32.165 102.669 -72.498 146.002s-78.833 65 -115.5 65c-32 0 -57.833 -11.833 -77.5 -35.5s-29.5 -50.834 -29.5 -81.501c0 -30 12 -55.167 36 -75.5s55.667 -30.5 95 -30.5
c25.333 0 57.166 1.16699 95.499 3.5s61.166 5.16602 68.499 8.49902zM1455 1526h-148v148h148v-148z" />
    <glyph glyph-name="uni0642" unicode="&#x642;" horiz-adv-x="2023" arabic-form="isolated" 
d="M1901 455c0 -136 -25.3359 -255.831 -76.0029 -359.498s-119.334 -189.167 -206.001 -256.5c-87.333 -68 -188.166 -119.333 -302.499 -154s-239.166 -52 -374.499 -52c-280 0 -486.5 52.167 -619.5 156.5s-199.5 249.166 -199.5 434.499
c0 73.333 5.5 138.666 16.5 195.999s16.833 88.666 17.5 93.999h267v-4c-2 -10 -6.66699 -42.333 -14 -97s-11 -113.667 -11 -177c0 -76 47.5 -135 142.5 -177s229.167 -63 402.5 -63c94 0 181.333 11.333 262 34s149.334 52.334 206.001 89.001
c60 38 105.5 78.833 136.5 122.5s48.167 88.167 51.5 133.5c-8 -1.33301 -16.667 -2.33301 -26 -3s-23 -2 -41 -4c-15.333 -1.33301 -32.666 -2.66602 -51.999 -3.99902s-36.666 -2 -51.999 -2c-125.333 0 -222.5 35.167 -291.5 105.5s-103.5 156.833 -103.5 259.5
c0 111.333 34.667 209.5 104 294.5s155.666 127.5 258.999 127.5c60.667 0 121 -14.833 181 -44.5s114 -73.834 162 -132.501c50 -61.333 89.333 -135.333 118 -222s43 -185 43 -295zM1606 637.002c-8.66699 54 -33.167 102.667 -73.5 146s-78.833 65 -115.5 65
c-31.333 0 -56.833 -11.833 -76.5 -35.5s-29.5 -50.834 -29.5 -81.501c0 -30 11.833 -55.167 35.5 -75.5s55.5 -30.5 95.5 -30.5c25.333 0 57.5 1.33301 96.5 4s61.5 5.33398 67.5 8.00098zM1573 1391h-148v147h148v-147zM1305 1391h-148v147h148v-147z" />
    <glyph glyph-name="uni0643" unicode="&#x643;" horiz-adv-x="1749" arabic-form="isolated" 
d="M1465 162.5c-80 -108.333 -185.333 -162.501 -316 -162.501h-563c-66 0 -127 5.83301 -183 17.5s-104 31.5 -144 59.5c-42 28.667 -75.167 68.667 -99.5 120s-36.5 118 -36.5 200c0 49.333 2.33301 94.333 7 135s7.66699 64.667 9 72h271v-8
c-0.666992 -3.33301 -2.66699 -21.166 -6 -53.499s-5 -59.5 -5 -81.5c0 -32.667 15.5 -57.667 46.5 -75s77.833 -26 140.5 -26h518c60 0 108.833 21.333 146.5 64s56.5 100.667 56.5 174v956h278v-956c0 -182 -40 -327.167 -120 -435.5zM1006 902.999
c0 -56.667 -33.668 -101.835 -101.001 -135.502s-154.666 -50.5 -261.999 -50.5v94c77.333 0 141.666 7 192.999 21s77 34.333 77 61c0 12 -6.5 22 -19.5 30s-31.5 15 -55.5 21l-76 19c-35.333 8.66699 -63.666 23.834 -84.999 45.501s-32 50.834 -32 87.501
c0 46.667 23.167 84.5 69.5 113.5s113.5 43.5 201.5 43.5v-90c-62 0 -108 -5.83301 -138 -17.5s-45 -27.5 -45 -47.5c0 -12 6.83301 -22.333 20.5 -31s32.167 -16 55.5 -22l84 -21c30 -7.33301 56.333 -19.833 79 -37.5s34 -45.5 34 -83.5z" />
    <glyph glyph-name="uni0644" unicode="&#x644;" horiz-adv-x="1579" arabic-form="isolated" 
d="M1415 457c0 -62.667 -15.167 -122.329 -45.5 -178.996s-74.166 -105 -131.499 -145c-60 -42 -131.333 -74.667 -214 -98s-182.334 -35 -299.001 -35c-218.667 0 -373.667 39.667 -465 119s-137 214.333 -137 405c0 71.333 4.66699 142.666 14 213.999
s15 112.666 17 123.999h272v-8c-2 -14.667 -7 -58.834 -15 -132.501s-12 -138.834 -12 -195.501c0 -61.333 26.667 -104.333 80 -129s136 -37 248 -37c134.667 0 237 16.5 307 49.5s105 78.833 105 137.5v1007h278z" />
    <glyph glyph-name="uni0645" unicode="&#x645;" horiz-adv-x="1386" arabic-form="isolated" 
d="M1113 812c46 -44 82.6641 -96.5029 109.997 -157.503s41 -131.833 41 -212.5c0 -90 -14.333 -164.833 -43 -224.5s-64 -106.5 -106 -140.5c-42 -33.333 -86.5 -57.166 -133.5 -71.499s-91.5 -21.5 -133.5 -21.5c-55.333 0 -110.833 10.333 -166.5 31
s-105.5 50.334 -149.5 89.001c-49.333 -155.333 -121.666 -274.833 -216.999 -358.5s-200.333 -140.167 -315 -169.5v358c46.667 14 88.334 31.833 125.001 53.5s71.667 53.5 105 95.5c33.333 42.667 61.333 97.834 84 165.501s40.334 157.5 53.001 269.5
c15.333 138 55.833 243.833 121.5 317.5s160.167 110.5 283.5 110.5c64.667 0 126 -11.333 184 -34s110.333 -56 157 -100zM982.997 466.997c0 48 -19.833 89.332 -59.5 123.999s-85.5 52 -137.5 52c-40 0 -73.5 -14.167 -100.5 -42.5s-40.5 -62.5 -40.5 -102.5
c0 -41.333 18.5 -77.666 55.5 -108.999s82.167 -47 135.5 -47c44 0 79.5 11.333 106.5 34s40.5 53 40.5 91z" />
    <glyph glyph-name="uni0646" unicode="&#x646;" horiz-adv-x="1591" arabic-form="isolated" 
d="M1468 633c0 -110 -17.8311 -205.335 -53.498 -286.002s-83.834 -146.334 -144.501 -197.001c-62 -51.333 -133 -89.166 -213 -113.499s-166.667 -36.5 -260 -36.5c-90.667 0 -177.5 12.333 -260.5 37s-154.5 62.334 -214.5 113.001c-62 52 -110.667 118 -146 198
s-53 175 -53 285c0 69.333 5.83301 150 17.5 242l19.5 153h282v-8c-3.33301 -12 -11.333 -59.667 -24 -143s-19 -165.333 -19 -246c0 -83.333 41.167 -149.333 123.5 -198s172.5 -73 270.5 -73c99.333 0 190.666 24 273.999 72s125 114.333 125 199
c0 81.333 -5.66699 160.833 -17 238.5s-20 127.834 -26 150.501v8h278c4.66699 -24 12.667 -82.333 24 -175s17 -166 17 -220zM870.002 1202h-147v148h147v-148z" />
    <glyph glyph-name="uni0647" unicode="&#x647;" horiz-adv-x="1114" arabic-form="isolated" 
d="M1036 453c0 -140 -45.167 -253.831 -135.5 -341.498s-203.5 -131.5 -339.5 -131.5c-138.667 0 -252.167 43.5 -340.5 130.5s-132.5 201.167 -132.5 342.5c0 97.333 25.167 183.666 75.5 258.999s120.166 140.333 209.499 195l37 23l-134 127h322l180 -158
c86.667 -74.667 151.334 -147.834 194.001 -219.501s64 -147.167 64 -226.5zM768 500.002c0 42.667 -14.333 84.167 -43 124.5s-71.667 85.5 -129 135.5l-16 14l-37 -22c-57.333 -34.667 -101.333 -72.167 -132 -112.5s-46 -86.833 -46 -139.5c0 -42 18 -79.167 54 -111.5
s84 -48.5 144 -48.5c58.667 0 107.5 16.833 146.5 50.5s58.5 70.167 58.5 109.5z" />
    <glyph glyph-name="uni0648" unicode="&#x648;" horiz-adv-x="1083" arabic-form="isolated" 
d="M961 274c0 -136 -30.832 -253.17 -92.499 -351.503s-154.834 -174.5 -279.501 -228.5c-97.333 -43.333 -187.5 -73.833 -270.5 -91.5s-189.167 -26.5 -318.5 -26.5v344c56.667 0 115.667 3.33301 177 10s121.333 16.667 180 30c69.333 15.333 130.333 36.333 183 63
s91 61.334 115 104.001c-6.66699 -1.33301 -25.167 -4 -55.5 -8s-48.5 -6 -54.5 -6c-136.667 0 -246 39.167 -328 117.5s-123 176.833 -123 295.5c0 126.667 40.5 233.834 121.5 321.501s175.167 131.5 282.5 131.5c128.667 0 238 -64.667 328 -194
s135 -299.666 135 -510.999zM666.001 448.997c-12.667 64.667 -32.833 115.499 -60.5 152.499s-59.5 55.5 -95.5 55.5s-68.167 -12.167 -96.5 -36.5s-42.5 -53.833 -42.5 -88.5c0 -24.667 13.333 -47.167 40 -67.5s67 -30.5 121 -30.5c28 0 55.667 1.83301 83 5.5
s44.333 6.83398 51 9.50098z" />
    <glyph glyph-name="uni0649" unicode="&#x649;" horiz-adv-x="1991" arabic-form="isolated" 
d="M1860 932l-9 0.000976562c-36 19.333 -94.667 37.166 -176 53.499s-162.333 24.5 -243 24.5c-68 0 -120.833 -8.16699 -158.5 -24.5s-56.5 -38.166 -56.5 -65.499c0 -24 35.333 -46.833 106 -68.5l222 -70.5c36.667 -12.667 75.334 -28.334 116.001 -47.001
s77 -39.667 109 -63c30 -22.667 54.5 -49 73.5 -79s28.5 -63.333 28.5 -100c0 -156 -89.667 -278 -269 -366s-440 -132 -782 -132c-236 0 -411.667 42.333 -527 127s-173 219 -173 403c0 83.333 4.83301 158.5 14.5 225.5s15.167 104.5 16.5 112.5h272v-18
c-2.66699 -10.667 -7.83398 -51.334 -15.501 -122.001s-11.5 -136 -11.5 -196c0 -54.667 28.5 -96.667 85.5 -126s170.5 -44 340.5 -44c254 0 445.833 10.167 575.5 30.5s194.5 54.5 194.5 102.5c0 23.333 -25.167 44.833 -75.5 64.5s-124.833 42.834 -223.5 69.501
c-43.333 12 -88.833 28.333 -136.5 49s-86.5 42.334 -116.5 65.001c-30 22 -54.667 48.667 -74 80s-29 66.333 -29 105c0 114 46 210 138 288s211.333 117 358 117c85.333 0 165.833 -7.33301 241.5 -22s137.167 -31.334 184.5 -50.001v-323z" />
    <glyph glyph-name="uni064A" unicode="&#x64a;" horiz-adv-x="1991" arabic-form="isolated" 
d="M1860 932l-9 0.000976562c-36 19.333 -94.667 37.166 -176 53.499s-162.333 24.5 -243 24.5c-68 0 -120.833 -8.16699 -158.5 -24.5s-56.5 -38.166 -56.5 -65.499c0 -24 35.333 -46.833 106 -68.5l222 -70.5c36.667 -12.667 75.334 -28.334 116.001 -47.001
s77 -39.667 109 -63c30 -22.667 54.5 -49 73.5 -79s28.5 -63.333 28.5 -100c0 -156 -89.667 -278 -269 -366s-440 -132 -782 -132c-236 0 -411.667 42.333 -527 127s-173 219 -173 403c0 83.333 4.83301 158.5 14.5 225.5s15.167 104.5 16.5 112.5h272v-18
c-2.66699 -10.667 -7.83398 -51.334 -15.501 -122.001s-11.5 -136 -11.5 -196c0 -54.667 28.5 -96.667 85.5 -126s170.5 -44 340.5 -44c254 0 445.833 10.167 575.5 30.5s194.5 54.5 194.5 102.5c0 23.333 -25.167 44.833 -75.5 64.5s-124.833 42.834 -223.5 69.501
c-43.333 12 -88.833 28.333 -136.5 49s-86.5 42.334 -116.5 65.001c-30 22 -54.667 48.667 -74 80s-29 66.333 -29 105c0 114 46 210 138 288s211.333 117 358 117c85.333 0 165.833 -7.33301 241.5 -22s137.167 -31.334 184.5 -50.001v-323zM791 -290.999h-148v148h148
v-148zM1059 -290.999h-148v148h148v-148z" />
    <glyph glyph-name="glyph796" unicode="&#x66e;" horiz-adv-x="2107" 
d="M2107 0l-159.002 0.000976562c-52 0 -104.667 14.5 -158 43.5s-92.333 64.5 -117 106.5c-26.667 -42.667 -67.167 -78.334 -121.5 -107.001s-115.5 -43 -183.5 -43h-424c-270 0 -474 50.5 -612 151.5s-207 247.167 -207 438.5c0 64 5.33301 125 16 183
s17.667 91.667 21 101h266v-8c-4 -16.667 -9.5 -53 -16.5 -109s-10.5 -107.667 -10.5 -155c0 -75.333 47.333 -134.5 142 -177.5s229 -64.5 403 -64.5h249h128c60.667 0 111.667 12.833 153 38.5s62 64.167 62 115.5c0 56 -1.66699 100.833 -5 134.5
s-5.66602 54.5 -6.99902 62.5v10h270c4 -16 8.83301 -45.833 14.5 -89.5s8.5 -85.5 8.5 -125.5c0 -38.667 14.333 -72.667 43 -102s63.334 -44 104.001 -44h141v-360zM1901 0.000976562z" />
    <glyph glyph-name="glyph774" unicode="&#x66f;" horiz-adv-x="1110" 
d="M827 1116c49.333 -61.333 88.3311 -135.334 116.998 -222.001s43 -185.334 43 -296.001c0 -93.333 -20.833 -177.666 -62.5 -252.999s-94.5 -138 -158.5 -188c-66 -51.333 -137.667 -90.333 -215 -117s-153 -40 -227 -40h-394v360h371c90 0 169 13.667 237 41
s117.667 66.333 149 117c-13.333 -2 -37.333 -4.5 -72 -7.5s-67.667 -4.5 -99 -4.5c-62 0 -117.5 8.83301 -166.5 26.5s-91.167 43.834 -126.5 78.501c-33.333 32.667 -58.666 71 -75.999 115s-26 92 -26 144c0 114 34.833 212.833 104.5 296.5s155.5 125.5 257.5 125.5
c62.667 0 123.334 -14.5 182.001 -43.5s112.667 -73.167 162 -132.5zM691.998 779.999c-8 54 -32.165 102.669 -72.498 146.002s-78.833 65 -115.5 65c-32 0 -57.833 -11.833 -77.5 -35.5s-29.5 -50.834 -29.5 -81.501c0 -30 12 -55.167 36 -75.5s55.667 -30.5 95 -30.5
c25.333 0 57.166 1.16699 95.499 3.5s61.166 5.16602 68.499 8.49902z" />
    <glyph glyph-name="glyph793" unicode="&#x66f;" horiz-adv-x="1171" 
d="M1171 0l-139 -0.00488281c-47.333 0 -92.5 5.16699 -135.5 15.5s-83.5 23.5 -121.5 39.5c-38 16.667 -72.167 33.667 -102.5 51s-59.833 35.333 -88.5 54l-85 -53c-26.667 -16.667 -61.667 -34 -105 -52s-83 -31.667 -119 -41s-82 -14 -138 -14h-207v360h133
c55.333 0 103.166 3.33301 143.499 10s67.833 12.334 82.5 17.001c-35.333 32 -63.333 68.667 -84 110s-31 90 -31 146c0 55.333 9.16699 104.833 27.5 148.5s45.5 82.834 81.5 117.501c34.667 32.667 77.834 58.334 129.501 77.001s108.834 28 171.501 28
c128 0 228.5 -36 301.5 -108s109.5 -165.667 109.5 -281c0 -46 -11 -89.5 -33 -130.5s-50.333 -76.833 -85 -107.5c9.33301 -3.33301 18.666 -5.66602 27.999 -6.99902s24.333 -3.66602 45 -6.99902c24.667 -3.33301 48.667 -6.33301 72 -9s51.333 -4 84 -4h65v-360z
M719 611.995c0 30 -12.5 56.666 -37.5 79.999s-56.833 35 -95.5 35c-44 0 -77.5 -11.833 -100.5 -35.5s-34.5 -50.167 -34.5 -79.5c0 -25.333 15.833 -50.333 47.5 -75s61.5 -42.667 89.5 -54c34.667 16 65.167 35.833 91.5 59.5s39.5 46.834 39.5 69.501z" />
    <glyph glyph-name="glyph804" unicode="&#x66f;" horiz-adv-x="2165" 
d="M1702 383c-8.66699 90 -29.8311 161.667 -63.498 215s-67.834 80 -102.501 80c-36.667 0 -67.334 -14.333 -92.001 -43s-37 -63 -37 -103s29.333 -73.667 88 -101s127.667 -43.333 207 -48zM1946 16c-42 -91.333 -93.3311 -165.835 -153.998 -223.502
s-133 -102.5 -217 -134.5c-80 -30.667 -171.833 -52 -275.5 -64s-222.834 -18 -357.501 -18c-268.667 0 -472.334 50.333 -611.001 151s-208 247 -208 439c0 76.667 5.5 142.667 16.5 198l18.5 93h266v-8c-2.66699 -14 -7.5 -47.667 -14.5 -101s-10.5 -110 -10.5 -170
c0 -75.333 47.333 -134 142 -176s229 -63 403 -63c124 0 230.667 6.66699 320 20s162 28 218 44c60 18 101.167 32.667 123.5 44s35.5 18.333 39.5 21c-166.667 18.667 -294.167 70.334 -382.5 155.001s-132.5 185.667 -132.5 303c0 122.667 39.5 228.834 118.5 318.501
s174.167 134.5 285.5 134.5c119.333 0 222 -54 308 -162s137 -258 153 -450c6.66699 -1.33301 30.167 -2.83301 70.5 -4.5s70.833 -2.5 91.5 -2.5h8v-360h-4c-36.667 0 -77.667 2 -123 6s-76 7.33301 -92 10z" />
    <glyph glyph-name="uni0671" unicode="&#x671;" horiz-adv-x="627" arabic-form="isolated" 
d="M442 -4h-278v1556h278v-1556zM539 1817c0 -105.333 -55.002 -157.999 -165.002 -157.999c-18.667 0 -50 2.66699 -94 8s-77 8 -99 8c-49.333 0 -91.666 -11.333 -126.999 -34v101c33.333 18.667 68.333 28 105 28c27.333 0 46.333 -0.333008 57 -1
c0 40.667 10 80.667 30 120c30.667 60 78.334 90 143.001 90c46 0 82.5 -14.833 109.5 -44.5s40.5 -68.834 40.5 -117.501zM448.998 1817c0 44.667 -20.001 67 -60.001 67c-30 0 -53 -15 -69 -45c-13.333 -24 -20 -52.333 -20 -85c32.667 -4.66699 54.334 -7 65.001 -7
c56 0 84 23.333 84 70z" />
    <glyph glyph-name="glyph1275" unicode="&#x672;" horiz-adv-x="698" 
d="M698 0h-97.999c-134.667 -0 -241.334 54.833 -320.001 164.5s-118 254.167 -118 433.5v956h278v-956c0 -41.333 5.66699 -76.833 17 -106.5s26 -54.167 44 -73.5c18.667 -18.667 40 -33 64 -43s50.667 -15 80 -15h53v-360zM298.001 1659
c-20.667 0 -44.334 4.99902 -71.001 14.999s-44.667 15 -54 15c-28.667 0 -67.667 -21.333 -117 -64v101c42.667 38 81.667 57 117 57c12.667 0 44.667 -10 96 -30c-36.667 20 -55 54 -55 102s17.333 87 52 117c32.667 28.667 73.334 43 122.001 43
c40 0 78 -5.33301 114 -16v-101h-6c-36 15.333 -71.333 23 -106 23c-58.667 0 -88 -22 -88 -66c0 -33.333 18.333 -59.666 55 -78.999c30 -15.333 63.333 -23 100 -23h74v-94h-233z" />
    <glyph glyph-name="glyph1277" unicode="&#x673;" horiz-adv-x="698" 
d="M698 0h-97.999c-134.667 -0 -241.334 54.833 -320.001 164.5s-118 254.167 -118 433.5v956h278v-956c0 -41.333 5.66699 -76.833 17 -106.5s26 -54.167 44 -73.5c18.667 -18.667 40 -33 64 -43s50.667 -15 80 -15h53v-360zM298.001 -389
c-20.667 0 -44.334 4.99902 -71.001 14.999s-44.667 15 -54 15c-28.667 0 -67.667 -21.333 -117 -64v101c42.667 38 81.667 57 117 57c12.667 0 44.667 -10 96 -30c-36.667 20 -55 54 -55 102s17.333 87 52 117c32.667 28.667 73.334 43 122.001 43
c40 0 78 -5.33301 114 -16v-101h-6c-36 15.333 -71.333 23 -106 23c-58.667 0 -88 -22 -88 -66c0 -33.333 18.333 -59.666 55 -78.999c30 -15.333 63.333 -23 100 -23h74v-94h-233z" />
    <glyph glyph-name="glyph1279" unicode="&#x675;" horiz-adv-x="698" 
d="M698 0h-97.999c-134.667 -0 -241.334 54.833 -320.001 164.5s-118 254.167 -118 433.5v956h278v-956c0 -41.333 5.66699 -76.833 17 -106.5s26 -54.167 44 -73.5c18.667 -18.667 40 -33 64 -43s50.667 -15 80 -15h53v-360zM824.001 1196h-336v94h74
c-16 8.66699 -29.167 22.667 -39.5 42s-15.5 39.333 -15.5 60c0 42.667 15.667 80 47 112s73.666 48 126.999 48c35.333 0 61.5 -2 78.5 -6s28.833 -7.33301 35.5 -10v-101h-6c-9.33301 4 -25.166 8.83301 -47.499 14.5s-41.833 8.5 -58.5 8.5c-29.333 0 -51.333 -6 -66 -18
s-22 -28 -22 -48c0 -30 15.333 -54.5 46 -73.5s67 -28.5 109 -28.5h74v-94z" />
    <glyph glyph-name="glyph1281" unicode="&#x676;" horiz-adv-x="1157" 
d="M694 383c-8.66699 90.667 -29.668 162.5 -63.001 215.5s-67.666 79.5 -102.999 79.5c-36 0 -66.5 -14.333 -91.5 -43s-37.5 -63 -37.5 -103s29.333 -73.667 88 -101s127.667 -43.333 207 -48zM1157 0l-4.00195 -0.000976562c-36.667 0 -79 2.33301 -127 7
s-77.333 7.66699 -88 9c-42 -90.667 -103 -165.167 -183 -223.5s-167.333 -103.166 -262 -134.499s-182.667 -52.833 -264 -64.5s-157.666 -17.5 -228.999 -17.5v344c97.333 0 187.5 7.83301 270.5 23.5s150.833 32.5 203.5 50.5c60.667 20.667 101.834 37.5 123.501 50.5
l39.5 23.5c-166.667 18.667 -294 70.167 -382 154.5s-132 185.5 -132 303.5c0 124 39.5 230.5 118.5 319.5s173.833 133.5 284.5 133.5c124 0 228.667 -57 314 -171s134.333 -261 147 -441c11.333 -1.33301 36.833 -2.83301 76.5 -4.5s68.167 -2.5 85.5 -2.5h8v-360z
M1024 1188h-336v94h74c-16 8.66699 -29.167 22.667 -39.5 42s-15.5 39.333 -15.5 60c0 42.667 15.667 80 47 112s73.666 48 126.999 48c35.333 0 61.5 -2 78.5 -6s28.833 -7.33301 35.5 -10v-101h-6c-9.33301 4 -25.166 8.83301 -47.499 14.5s-41.833 8.5 -58.5 8.5
c-29.333 0 -51.333 -6 -66 -18s-22 -28 -22 -48c0 -30 15.333 -54.5 46 -73.5s67 -28.5 109 -28.5h74v-94z" />
    <glyph glyph-name="uni0677" unicode="&#x677;" horiz-adv-x="1083" arabic-form="isolated" 
d="M961 274c0 -136 -30.832 -253.17 -92.499 -351.503s-154.834 -174.5 -279.501 -228.5c-97.333 -43.333 -187.5 -73.833 -270.5 -91.5s-189.167 -26.5 -318.5 -26.5v344c56.667 0 115.667 3.33301 177 10s121.333 16.667 180 30c69.333 15.333 130.333 36.333 183 63
s91 61.334 115 104.001c-6.66699 -1.33301 -25.167 -4 -55.5 -8s-48.5 -6 -54.5 -6c-136.667 0 -246 39.167 -328 117.5s-123 176.833 -123 295.5c0 126.667 40.5 233.834 121.5 321.501s175.167 131.5 282.5 131.5c128.667 0 238 -64.667 328 -194
s135 -299.666 135 -510.999zM666.001 448.997c-12.667 64.667 -32.833 115.499 -60.5 152.499s-59.5 55.5 -95.5 55.5s-68.167 -12.167 -96.5 -36.5s-42.5 -53.833 -42.5 -88.5c0 -24.667 13.333 -47.167 40 -67.5s67 -30.5 121 -30.5c28 0 55.667 1.83301 83 5.5
s44.333 6.83398 51 9.50098zM1024 1188h-336v94h74c-16 8.66699 -29.167 22.667 -39.5 42s-15.5 39.333 -15.5 60c0 42.667 15.667 80 47 112s73.666 48 126.999 48c35.333 0 61.5 -2 78.5 -6s28.833 -7.33301 35.5 -10v-101h-6c-9.33301 4 -25.166 8.83301 -47.499 14.5
s-41.833 8.5 -58.5 8.5c-29.333 0 -51.333 -6 -66 -18s-22 -28 -22 -48c0 -30 15.333 -54.5 46 -73.5s67 -28.5 109 -28.5h74v-94zM496.002 1188l-126.999 27.999c-60.667 -34.667 -120.834 -61 -180.501 -79s-122.5 -29 -188.5 -33v88c50 3.33301 97 9.66602 141 18.999
s87.667 24 131 44c-34 10.667 -64 29.834 -90 57.501s-39 60.5 -39 98.5c0 46 15.5 83.833 46.5 113.5s72.833 44.5 125.5 44.5c46 0 85.833 -15 119.5 -45s50.5 -69 50.5 -117c0 -22.667 -6 -46.167 -18 -70.5s-23.667 -41.166 -35 -50.499l64 -12v-86zM348.003 1311
c14 12 25.332 25.5 33.999 40.5s13 34.167 13 57.5c0 19.333 -7.83301 35 -23.5 47s-33.167 18 -52.5 18c-23.333 0 -42.666 -5.5 -57.999 -16.5s-23 -27.167 -23 -48.5c0 -22.667 9.5 -42.5 28.5 -59.5s46.167 -29.833 81.5 -38.5z" />
    <glyph glyph-name="glyph1285" unicode="&#x678;" horiz-adv-x="2247" 
d="M2247 0l-57.999 0.000976562c-35.333 0 -69.333 9.33301 -102 28s-64.334 42.667 -95.001 72c-30.667 30.667 -61.167 66 -91.5 106l-84.5 115l-83.5 118c-27.667 38.667 -55.5 73 -83.5 103c-28.667 31.333 -57.167 56 -85.5 74s-57.166 27 -86.499 27
c-34.667 0 -64.834 -11 -90.501 -33s-38.5 -43 -38.5 -63c0 -21.333 19.5 -46.333 58.5 -75l111.5 -82c56 -40.667 98.333 -80.334 127 -119.001s43 -77 43 -115c0 -148.667 -75.667 -266.5 -227 -353.5s-364 -130.5 -638 -130.5c-242.667 0 -420 44.167 -532 132.5
s-168 222.5 -168 402.5c0 73.333 3.83301 142.5 11.5 207.5s14.167 107.167 19.5 126.5h274v-11c-2.66699 -14.667 -7.83398 -52.167 -15.501 -112.5s-11.5 -129.833 -11.5 -208.5c0 -59.333 30.333 -103.5 91 -132.5s171.667 -43.5 333 -43.5
c194.667 0 340.667 10.5 438 31.5s146 52.167 146 93.5c0 30 -18.5 59 -55.5 87s-75.167 55.333 -114.5 82c-43.333 29.333 -82.5 61.833 -117.5 97.5s-52.5 77.167 -52.5 124.5c0 96 39.833 181 119.5 255s175.834 111 288.501 111c45.333 0 86.833 -8.33301 124.5 -25
s72.167 -37.334 103.5 -62.001c36 -28 68.333 -59 97 -93l80 -98l78 -101.5c25.333 -33.667 50 -63.167 74 -88.5c26 -27.333 50.667 -48.666 74 -63.999s49 -23 77 -23h62v-360zM2124 1057h-336v94h74c-16 8.66699 -29.167 22.667 -39.5 42s-15.5 39.333 -15.5 60
c0 42.667 15.667 80 47 112s73.666 48 126.999 48c35.333 0 61.5 -2 78.5 -6s28.833 -7.33301 35.5 -10v-101h-6c-9.33301 4 -25.166 8.83301 -47.499 14.5s-41.833 8.5 -58.5 8.5c-29.333 0 -51.333 -6 -66 -18s-22 -28 -22 -48c0 -30 15.333 -54.5 46 -73.5
s67 -28.5 109 -28.5h74v-94z" />
    <glyph glyph-name="uni0679" unicode="&#x679;" horiz-adv-x="1901" arabic-form="isolated" 
d="M1772 582c0 -187.333 -67.6689 -332.498 -203.002 -435.498s-342.333 -154.5 -621 -154.5c-278 0 -484 52.333 -618 157s-201 249 -201 433c0 64 4.66699 125.333 14 184s15 92 17 100h274v-10c-4 -20 -9.33301 -58.167 -16 -114.5s-10 -105.5 -10 -147.5
c0 -76 46.833 -135 140.5 -177s227.5 -63 401.5 -63c172 0 305.5 21 400.5 63s142.5 101 142.5 177c0 52.667 -3.66699 104.667 -11 156s-12.666 86.666 -15.999 105.999v10h273c4.66699 -19.333 11.334 -60.333 20.001 -123s13 -116.334 13 -161.001zM1243 1181
c0 -59.333 -29.332 -103.667 -87.999 -133c-44.667 -22 -98 -33 -160 -33h-289v92h82c14 10.667 21 18.667 21 24v500h83v-397c69.333 75.333 132.666 113 189.999 113c47.333 0 86 -15.667 116 -47s45 -71 45 -119zM1159 1179c0 21.333 -7.5 39.5 -22.5 54.5
s-33.5 22.5 -55.5 22.5c-48 0 -107.667 -49.667 -179 -149h48c139.333 0 209 24 209 72z" />
    <glyph glyph-name="uni067A" unicode="&#x67a;" horiz-adv-x="1901" arabic-form="isolated" 
d="M1772 582c0 -187.333 -67.6689 -332.498 -203.002 -435.498s-342.333 -154.5 -621 -154.5c-278 0 -484 52.333 -618 157s-201 249 -201 433c0 64 4.66699 125.333 14 184s15 92 17 100h274v-10c-4 -20 -9.33301 -58.167 -16 -114.5s-10 -105.5 -10 -147.5
c0 -76 46.833 -135 140.5 -177s227.5 -63 401.5 -63c172 0 305.5 21 400.5 63s142.5 101 142.5 177c0 52.667 -3.66699 104.667 -11 156s-12.666 86.666 -15.999 105.999v10h273c4.66699 -19.333 11.334 -60.333 20.001 -123s13 -116.334 13 -161.001zM1047 1224h-148v148
h148v-148zM1047 1015h-148v148h148v-148z" />
    <glyph glyph-name="uni067B" unicode="&#x67b;" horiz-adv-x="1901" arabic-form="isolated" 
d="M1772 582c0 -187.333 -67.6689 -332.498 -203.002 -435.498s-342.333 -154.5 -621 -154.5c-278 0 -484 52.333 -618 157s-201 249 -201 433c0 64 4.66699 125.333 14 184s15 92 17 100h274v-10c-4 -20 -9.33301 -58.167 -16 -114.5s-10 -105.5 -10 -147.5
c0 -76 46.833 -135 140.5 -177s227.5 -63 401.5 -63c172 0 305.5 21 400.5 63s142.5 101 142.5 177c0 52.667 -3.66699 104.667 -11 156s-12.666 86.666 -15.999 105.999v10h273c4.66699 -19.333 11.334 -60.333 20.001 -123s13 -116.334 13 -161.001zM1047 -210.998h-148
v148h148v-148zM1047 -419.998h-148v148h148v-148z" />
    <glyph glyph-name="glyph1296" unicode="&#x67c;" horiz-adv-x="698" 
d="M537 598c0 -183.333 -40.167 -328.833 -120.5 -436.5s-186.5 -161.5 -318.5 -161.5h-168v360h123c62 0 111.667 21 149 63s56 100.333 56 175v293h279v-293zM331 1015h-148v148h148v-148zM599 1015h-148v148h148v-148zM517 -42c0 -52.667 -18.668 -97.333 -56.001 -134
s-81.666 -55 -132.999 -55c-52 0 -96.333 18.5 -133 55.5s-55 81.5 -55 133.5c0 51.333 18.5 95.5 55.5 132.5s81.167 55.5 132.5 55.5c52 0 96.5 -18.333 133.5 -55s55.5 -81 55.5 -133zM420.999 -43.999c0 26.667 -9.33105 49.334 -27.998 68.001s-41.667 28 -69 28
c-26.667 0 -49.334 -9.33301 -68.001 -28s-28 -41.334 -28 -68.001c0 -25.333 9.66699 -47.333 29 -66s41.666 -28 66.999 -28c26 0 48.667 9.33301 68 28s29 40.667 29 66z" />
    <glyph glyph-name="glyph1297" unicode="&#x67c;" horiz-adv-x="793" 
d="M793 0l-99 -0.000976562c-70.667 0 -132.667 15 -186 45s-91 64 -113 102c-28 -45.333 -67.5 -81.166 -118.5 -107.499s-110.5 -39.5 -178.5 -39.5h-168v360h123c59.333 0 108 20.5 146 61.5s57 99.833 57 176.5v123h279v-123c0 -71.333 18 -128.833 54 -172.5
s86 -65.5 150 -65.5h54v-360zM331 1015h-148v148h148v-148zM599 1015h-148v148h148v-148zM577 -6.00098c0 -52.667 -18.668 -97.333 -56.001 -134s-81.666 -55 -132.999 -55c-52 0 -96.333 18.5 -133 55.5s-55 81.5 -55 133.5c0 51.333 18.5 95.5 55.5 132.5
s81.167 55.5 132.5 55.5c52 0 96.5 -18.333 133.5 -55s55.5 -81 55.5 -133zM480.999 -8c0 26.667 -9.33105 49.334 -27.998 68.001s-41.667 28 -69 28c-26.667 0 -49.334 -9.33301 -68.001 -28s-28 -41.334 -28 -68.001c0 -25.333 9.66699 -47.333 29 -66
s41.666 -28 66.999 -28c26 0 48.667 9.33301 68 28s29 40.667 29 66z" />
    <glyph glyph-name="glyph1295" unicode="&#x67c;" horiz-adv-x="2107" 
d="M2107 0l-159.002 0.000976562c-52 0 -104.667 14.5 -158 43.5s-92.333 64.5 -117 106.5c-26.667 -42.667 -67.167 -78.334 -121.5 -107.001s-115.5 -43 -183.5 -43h-424c-270 0 -474 50.5 -612 151.5s-207 247.167 -207 438.5c0 64 5.33301 125 16 183
s17.667 91.667 21 101h266v-8c-4 -16.667 -9.5 -53 -16.5 -109s-10.5 -107.667 -10.5 -155c0 -75.333 47.333 -134.5 142 -177.5s229 -64.5 403 -64.5h249h128c60.667 0 111.667 12.833 153 38.5s62 64.167 62 115.5c0 56 -1.66699 100.833 -5 134.5
s-5.66602 54.5 -6.99902 62.5v10h270c4 -16 8.83301 -45.833 14.5 -89.5s8.5 -85.5 8.5 -125.5c0 -38.667 14.333 -72.667 43 -102s63.334 -44 104.001 -44h141v-360zM972.998 1015h-148v148h148v-148zM1241 1015h-148v148h148v-148zM1217 -95.999
c0 -52.667 -18.668 -97.333 -56.001 -134s-81.666 -55 -132.999 -55c-52 0 -96.333 18.5 -133 55.5s-55 81.5 -55 133.5c0 51.333 18.5 95.5 55.5 132.5s81.167 55.5 132.5 55.5c52 0 96.5 -18.333 133.5 -55s55.5 -81 55.5 -133zM1121 -97.998
c0 26.667 -9.33105 49.334 -27.998 68.001s-41.667 28 -69 28c-26.667 0 -49.334 -9.33301 -68.001 -28s-28 -41.334 -28 -68.001c0 -25.333 9.66699 -47.333 29 -66s41.666 -28 66.999 -28c26 0 48.667 9.33301 68 28s29 40.667 29 66z" />
    <glyph glyph-name="glyph1300" unicode="&#x67d;" horiz-adv-x="698" 
d="M537 598c0 -183.333 -40.167 -328.833 -120.5 -436.5s-186.5 -161.5 -318.5 -161.5h-168v360h123c62 0 111.667 21 149 63s56 100.333 56 175v293h279v-293zM317 1224h-148v148h148v-148zM613 1224h-148v148h148v-148zM465 1015h-148v148h148v-148z" />
    <glyph glyph-name="glyph1301" unicode="&#x67d;" horiz-adv-x="793" 
d="M793 0l-99 -0.000976562c-70.667 0 -132.667 15 -186 45s-91 64 -113 102c-28 -45.333 -67.5 -81.166 -118.5 -107.499s-110.5 -39.5 -178.5 -39.5h-168v360h123c59.333 0 108 20.5 146 61.5s57 99.833 57 176.5v123h279v-123c0 -71.333 18 -128.833 54 -172.5
s86 -65.5 150 -65.5h54v-360zM317 1224h-148v148h148v-148zM613 1224h-148v148h148v-148zM465 1015h-148v148h148v-148z" />
    <glyph glyph-name="glyph1299" unicode="&#x67d;" horiz-adv-x="2107" 
d="M2107 0l-159.002 0.000976562c-52 0 -104.667 14.5 -158 43.5s-92.333 64.5 -117 106.5c-26.667 -42.667 -67.167 -78.334 -121.5 -107.001s-115.5 -43 -183.5 -43h-424c-270 0 -474 50.5 -612 151.5s-207 247.167 -207 438.5c0 64 5.33301 125 16 183
s17.667 91.667 21 101h266v-8c-4 -16.667 -9.5 -53 -16.5 -109s-10.5 -107.667 -10.5 -155c0 -75.333 47.333 -134.5 142 -177.5s229 -64.5 403 -64.5h249h128c60.667 0 111.667 12.833 153 38.5s62 64.167 62 115.5c0 56 -1.66699 100.833 -5 134.5
s-5.66602 54.5 -6.99902 62.5v10h270c4 -16 8.83301 -45.833 14.5 -89.5s8.5 -85.5 8.5 -125.5c0 -38.667 14.333 -72.667 43 -102s63.334 -44 104.001 -44h141v-360zM958.998 1224h-148v148h148v-148zM1255 1224h-148v148h148v-148zM1107 1015h-148v148h148v-148z" />
    <glyph glyph-name="uni067E" unicode="&#x67e;" horiz-adv-x="1901" arabic-form="isolated" 
d="M1772 582c0 -187.333 -67.6689 -332.498 -203.002 -435.498s-342.333 -154.5 -621 -154.5c-278 0 -484 52.333 -618 157s-201 249 -201 433c0 64 4.66699 125.333 14 184s15 92 17 100h274v-10c-4 -20 -9.33301 -58.167 -16 -114.5s-10 -105.5 -10 -147.5
c0 -76 46.833 -135 140.5 -177s227.5 -63 401.5 -63c172 0 305.5 21 400.5 63s142.5 101 142.5 177c0 52.667 -3.66699 104.667 -11 156s-12.666 86.666 -15.999 105.999v10h273c4.66699 -19.333 11.334 -60.333 20.001 -123s13 -116.334 13 -161.001zM873.998 -213.998
h-148v148h148v-148zM1170 -213.998h-148v148h148v-148zM1022 -422.998h-148v148h148v-148z" />
    <glyph glyph-name="uni067F" unicode="&#x67f;" horiz-adv-x="1901" arabic-form="isolated" 
d="M1772 582c0 -187.333 -67.6689 -332.498 -203.002 -435.498s-342.333 -154.5 -621 -154.5c-278 0 -484 52.333 -618 157s-201 249 -201 433c0 64 4.66699 125.333 14 184s15 92 17 100h274v-10c-4 -20 -9.33301 -58.167 -16 -114.5s-10 -105.5 -10 -147.5
c0 -76 46.833 -135 140.5 -177s227.5 -63 401.5 -63c172 0 305.5 21 400.5 63s142.5 101 142.5 177c0 52.667 -3.66699 104.667 -11 156s-12.666 86.666 -15.999 105.999v10h273c4.66699 -19.333 11.334 -60.333 20.001 -123s13 -116.334 13 -161.001zM1181 1224h-148v148
h148v-148zM1181 1015h-148v148h148v-148zM912.998 1224h-148v148h148v-148zM912.998 1015h-148v148h148v-148z" />
    <glyph glyph-name="uni0680" unicode="&#x680;" horiz-adv-x="1901" arabic-form="isolated" 
d="M1772 582c0 -187.333 -67.6689 -332.498 -203.002 -435.498s-342.333 -154.5 -621 -154.5c-278 0 -484 52.333 -618 157s-201 249 -201 433c0 64 4.66699 125.333 14 184s15 92 17 100h274v-10c-4 -20 -9.33301 -58.167 -16 -114.5s-10 -105.5 -10 -147.5
c0 -76 46.833 -135 140.5 -177s227.5 -63 401.5 -63c172 0 305.5 21 400.5 63s142.5 101 142.5 177c0 52.667 -3.66699 104.667 -11 156s-12.666 86.666 -15.999 105.999v10h273c4.66699 -19.333 11.334 -60.333 20.001 -123s13 -116.334 13 -161.001zM1181 -210.998h-148
v148h148v-148zM1181 -419.998h-148v148h148v-148zM912.998 -210.998h-148v148h148v-148zM912.998 -419.998h-148v148h148v-148z" />
    <glyph glyph-name="glyph1312" unicode="&#x681;" horiz-adv-x="1538" 
d="M1436 584l-455 -258c-46 -25.333 -95.5 -54.333 -148.5 -87s-120.5 -69 -202.5 -109c-76 -37.333 -147.167 -68.333 -213.5 -93s-130.833 -37 -193.5 -37h-293v360h301c116 0 220.333 14.667 313 44s210.334 82.333 353.001 159c-74.667 34 -164.834 62 -270.501 84
s-211.5 33 -317.5 33h-203v309h213c116 0 238 -20.667 366 -62s282.667 -115.333 464 -222l287 151v-272zM986 1133h-336v94h74c-16 8.66699 -29.167 22.667 -39.5 42s-15.5 39.333 -15.5 60c0 42.667 15.667 80 47 112s73.666 48 126.999 48c35.333 0 61.5 -2 78.5 -6
s28.833 -7.33301 35.5 -10v-101h-6c-9.33301 4 -25.166 8.83301 -47.499 14.5s-41.833 8.5 -58.5 8.5c-29.333 0 -51.333 -6 -66 -18s-22 -28 -22 -48c0 -30 15.333 -54.5 46 -73.5s67 -28.5 109 -28.5h74v-94z" />
    <glyph glyph-name="glyph1313" unicode="&#x681;" horiz-adv-x="1538" 
d="M887 270c-114 -68 -231.499 -130 -352.499 -186s-224.833 -84 -311.5 -84h-293v360h301c131.333 0 245.666 17.667 342.999 53s205 85.333 323 150c-74.667 34 -164.834 62 -270.501 84s-211.5 33 -317.5 33h-203v309h213c120.667 0 244.834 -21.333 372.501 -64
s280.167 -116 457.5 -220l287 151v-272l-351 -199c14.667 -8.66699 29.667 -15 45 -19s35.333 -6 60 -6h348v-360h-305c-110 0 -193.667 21 -251 63s-89 111 -95 207zM986.001 1133h-336v94h74c-16 8.66699 -29.167 22.667 -39.5 42s-15.5 39.333 -15.5 60
c0 42.667 15.667 80 47 112s73.666 48 126.999 48c35.333 0 61.5 -2 78.5 -6s28.833 -7.33301 35.5 -10v-101h-6c-9.33301 4 -25.166 8.83301 -47.499 14.5s-41.833 8.5 -58.5 8.5c-29.333 0 -51.333 -6 -66 -18s-22 -28 -22 -48c0 -30 15.333 -54.5 46 -73.5
s67 -28.5 109 -28.5h74v-94z" />
    <glyph glyph-name="glyph1311" unicode="&#x681;" horiz-adv-x="1618" 
d="M1458 575l0.00390625 -119.999c0 -31.333 8.33301 -55 25 -71s41 -24 73 -24h62v-360h-74c-102 0 -179.667 25.833 -233 77.5s-80 130.834 -80 237.501v260h-60c-128.667 0 -241.667 -9 -339 -27s-178.333 -43.667 -243 -77c-60 -30.667 -106.333 -69 -139 -115
s-49 -98.333 -49 -157c0 -78 32.5 -141.667 97.5 -191s157.5 -74 277.5 -74c70 0 143.167 5.33301 219.5 16s147.166 28 212.499 52h9v-346c-72 -28.667 -142.667 -49.167 -212 -61.5s-145 -18.5 -227 -18.5c-91.333 0 -176.5 14.333 -255.5 43
s-148.5 70.334 -208.5 125.001c-59.333 54 -106 119.167 -140 195.5s-51 162.166 -51 257.499c0 75.333 17.5 146.166 52.5 212.499s84.5 125.833 148.5 178.5c63.333 52 140.5 94.667 231.5 128s194.167 54.666 309.5 63.999c-10.667 4 -28.334 8.66699 -53.001 14
s-63 12.666 -115 21.999c-48 8.66699 -111 16.834 -189 24.501s-157.333 11.5 -238 11.5h-67v309h59c167.333 0 339.166 -27 515.499 -81s332.166 -132.667 467.499 -236h260v-269h-47zM1037 1304h-336v94h74c-16 8.66699 -29.167 22.667 -39.5 42s-15.5 39.333 -15.5 60
c0 42.667 15.667 80 47 112s73.666 48 126.999 48c35.333 0 61.5 -2 78.5 -6s28.833 -7.33301 35.5 -10v-101h-6c-9.33301 4 -25.166 8.83301 -47.499 14.5s-41.833 8.5 -58.5 8.5c-29.333 0 -51.333 -6 -66 -18s-22 -28 -22 -48c0 -30 15.333 -54.5 46 -73.5
s67 -28.5 109 -28.5h74v-94z" />
    <glyph glyph-name="glyph1316" unicode="&#x682;" horiz-adv-x="1538" 
d="M1436 584l-455 -258c-46 -25.333 -95.5 -54.333 -148.5 -87s-120.5 -69 -202.5 -109c-76 -37.333 -147.167 -68.333 -213.5 -93s-130.833 -37 -193.5 -37h-293v360h301c116 0 220.333 14.667 313 44s210.334 82.333 353.001 159c-74.667 34 -164.834 62 -270.501 84
s-211.5 33 -317.5 33h-203v309h213c116 0 238 -20.667 366 -62s282.667 -115.333 464 -222l287 151v-272zM947 1342h-148v148h148v-148zM947 1133h-148v148h148v-148z" />
    <glyph glyph-name="glyph1317" unicode="&#x682;" horiz-adv-x="1538" 
d="M887 270c-114 -68 -231.499 -130 -352.499 -186s-224.833 -84 -311.5 -84h-293v360h301c131.333 0 245.666 17.667 342.999 53s205 85.333 323 150c-74.667 34 -164.834 62 -270.501 84s-211.5 33 -317.5 33h-203v309h213c120.667 0 244.834 -21.333 372.501 -64
s280.167 -116 457.5 -220l287 151v-272l-351 -199c14.667 -8.66699 29.667 -15 45 -19s35.333 -6 60 -6h348v-360h-305c-110 0 -193.667 21 -251 63s-89 111 -95 207zM926.001 1342h-148v148h148v-148zM926.001 1133h-148v148h148v-148z" />
    <glyph glyph-name="glyph1315" unicode="&#x682;" horiz-adv-x="1618" 
d="M1458 575l0.00390625 -119.999c0 -31.333 8.33301 -55 25 -71s41 -24 73 -24h62v-360h-74c-102 0 -179.667 25.833 -233 77.5s-80 130.834 -80 237.501v260h-60c-128.667 0 -241.667 -9 -339 -27s-178.333 -43.667 -243 -77c-60 -30.667 -106.333 -69 -139 -115
s-49 -98.333 -49 -157c0 -78 32.5 -141.667 97.5 -191s157.5 -74 277.5 -74c70 0 143.167 5.33301 219.5 16s147.166 28 212.499 52h9v-346c-72 -28.667 -142.667 -49.167 -212 -61.5s-145 -18.5 -227 -18.5c-91.333 0 -176.5 14.333 -255.5 43
s-148.5 70.334 -208.5 125.001c-59.333 54 -106 119.167 -140 195.5s-51 162.166 -51 257.499c0 75.333 17.5 146.166 52.5 212.499s84.5 125.833 148.5 178.5c63.333 52 140.5 94.667 231.5 128s194.167 54.666 309.5 63.999c-10.667 4 -28.334 8.66699 -53.001 14
s-63 12.666 -115 21.999c-48 8.66699 -111 16.834 -189 24.501s-157.333 11.5 -238 11.5h-67v309h59c167.333 0 339.166 -27 515.499 -81s332.166 -132.667 467.499 -236h260v-269h-47zM1051 1514h-148v148h148v-148zM1051 1305h-148v148h148v-148z" />
    <glyph glyph-name="uni0683" unicode="&#x683;" horiz-adv-x="1425" arabic-form="isolated" 
d="M1303 575l-132.003 0.00292969c-128.667 0 -241.834 -9 -339.501 -27s-179.167 -43.667 -244.5 -77c-64 -32.667 -111.667 -72.334 -143 -119.001s-47 -97.667 -47 -153c0 -78 33.167 -141.667 99.5 -191s159.5 -74 279.5 -74c86.667 0 171.834 8.33301 255.501 25
s156.834 40 219.501 70h9v-346c-62.667 -34.667 -136 -61.167 -220 -79.5s-171.333 -27.5 -262 -27.5c-184 0 -339.167 57.167 -465.5 171.5s-189.5 264.166 -189.5 449.499c0 75.333 17.5 146.166 52.5 212.499s84.5 125.833 148.5 178.5c63.333 52 140.5 94.667 231.5 128
s192.5 54.666 304.5 63.999c-40.667 12.667 -122.667 27.834 -246 45.501s-238 26.5 -344 26.5h-67v309h84c150.667 0 313.834 -28.333 489.501 -85s331.834 -134 468.501 -232h58v-269zM778.997 156.003h-148v148h148v-148zM1047 156.003h-148v148h148v-148z" />
    <glyph glyph-name="uni0684" unicode="&#x684;" horiz-adv-x="1425" arabic-form="isolated" 
d="M1303 575l-132.003 0.00292969c-128.667 0 -241.834 -9 -339.501 -27s-179.167 -43.667 -244.5 -77c-64 -32.667 -111.667 -72.334 -143 -119.001s-47 -97.667 -47 -153c0 -78 33.167 -141.667 99.5 -191s159.5 -74 279.5 -74c86.667 0 171.834 8.33301 255.501 25
s156.834 40 219.501 70h9v-346c-62.667 -34.667 -136 -61.167 -220 -79.5s-171.333 -27.5 -262 -27.5c-184 0 -339.167 57.167 -465.5 171.5s-189.5 264.166 -189.5 449.499c0 75.333 17.5 146.166 52.5 212.499s84.5 125.833 148.5 178.5c63.333 52 140.5 94.667 231.5 128
s192.5 54.666 304.5 63.999c-40.667 12.667 -122.667 27.834 -246 45.501s-238 26.5 -344 26.5h-67v309h84c150.667 0 313.834 -28.333 489.501 -85s331.834 -134 468.501 -232h58v-269zM912.997 279.003h-148v148h148v-148zM912.997 70.0029h-148v148h148v-148z" />
    <glyph glyph-name="glyph1328" unicode="&#x685;" horiz-adv-x="1538" 
d="M1436 584l-455 -258c-46 -25.333 -95.5 -54.333 -148.5 -87s-120.5 -69 -202.5 -109c-76 -37.333 -147.167 -68.333 -213.5 -93s-130.833 -37 -193.5 -37h-293v360h301c116 0 220.333 14.667 313 44s210.334 82.333 353.001 159c-74.667 34 -164.834 62 -270.501 84
s-211.5 33 -317.5 33h-203v309h213c116 0 238 -20.667 366 -62s282.667 -115.333 464 -222l287 151v-272zM799 1133h-148v148h148v-148zM1095 1133h-148v148h148v-148zM947 1342h-148v148h148v-148z" />
    <glyph glyph-name="glyph1329" unicode="&#x685;" horiz-adv-x="1538" 
d="M887 270c-114 -68 -231.499 -130 -352.499 -186s-224.833 -84 -311.5 -84h-293v360h301c131.333 0 245.666 17.667 342.999 53s205 85.333 323 150c-74.667 34 -164.834 62 -270.501 84s-211.5 33 -317.5 33h-203v309h213c120.667 0 244.834 -21.333 372.501 -64
s280.167 -116 457.5 -220l287 151v-272l-351 -199c14.667 -8.66699 29.667 -15 45 -19s35.333 -6 60 -6h348v-360h-305c-110 0 -193.667 21 -251 63s-89 111 -95 207zM778.001 1133h-148v148h148v-148zM1074 1133h-148v148h148v-148zM926.001 1342h-148v148h148v-148z" />
    <glyph glyph-name="glyph1327" unicode="&#x685;" horiz-adv-x="1618" 
d="M1458 575l0.00390625 -119.999c0 -31.333 8.33301 -55 25 -71s41 -24 73 -24h62v-360h-74c-102 0 -179.667 25.833 -233 77.5s-80 130.834 -80 237.501v260h-60c-128.667 0 -241.667 -9 -339 -27s-178.333 -43.667 -243 -77c-60 -30.667 -106.333 -69 -139 -115
s-49 -98.333 -49 -157c0 -78 32.5 -141.667 97.5 -191s157.5 -74 277.5 -74c70 0 143.167 5.33301 219.5 16s147.166 28 212.499 52h9v-346c-72 -28.667 -142.667 -49.167 -212 -61.5s-145 -18.5 -227 -18.5c-91.333 0 -176.5 14.333 -255.5 43
s-148.5 70.334 -208.5 125.001c-59.333 54 -106 119.167 -140 195.5s-51 162.166 -51 257.499c0 75.333 17.5 146.166 52.5 212.499s84.5 125.833 148.5 178.5c63.333 52 140.5 94.667 231.5 128s194.167 54.666 309.5 63.999c-10.667 4 -28.334 8.66699 -53.001 14
s-63 12.666 -115 21.999c-48 8.66699 -111 16.834 -189 24.501s-157.333 11.5 -238 11.5h-67v309h59c167.333 0 339.166 -27 515.499 -81s332.166 -132.667 467.499 -236h260v-269h-47zM903.004 1305h-148v148h148v-148zM1199 1305h-148v148h148v-148zM1051 1514h-148v148
h148v-148z" />
    <glyph glyph-name="uni0686" unicode="&#x686;" horiz-adv-x="1425" arabic-form="isolated" 
d="M1303 575l-132.003 0.00292969c-128.667 0 -241.834 -9 -339.501 -27s-179.167 -43.667 -244.5 -77c-64 -32.667 -111.667 -72.334 -143 -119.001s-47 -97.667 -47 -153c0 -78 33.167 -141.667 99.5 -191s159.5 -74 279.5 -74c86.667 0 171.834 8.33301 255.501 25
s156.834 40 219.501 70h9v-346c-62.667 -34.667 -136 -61.167 -220 -79.5s-171.333 -27.5 -262 -27.5c-184 0 -339.167 57.167 -465.5 171.5s-189.5 264.166 -189.5 449.499c0 75.333 17.5 146.166 52.5 212.499s84.5 125.833 148.5 178.5c63.333 52 140.5 94.667 231.5 128
s192.5 54.666 304.5 63.999c-40.667 12.667 -122.667 27.834 -246 45.501s-238 26.5 -344 26.5h-67v309h84c150.667 0 313.834 -28.333 489.501 -85s331.834 -134 468.501 -232h58v-269zM758.997 242.003h-148v148h148v-148zM1055 242.003h-148v148h148v-148z
M906.997 33.0029h-148v148h148v-148z" />
    <glyph glyph-name="uni0687" unicode="&#x687;" horiz-adv-x="1425" arabic-form="isolated" 
d="M1303 575l-132.003 0.00292969c-128.667 0 -241.834 -9 -339.501 -27s-179.167 -43.667 -244.5 -77c-64 -32.667 -111.667 -72.334 -143 -119.001s-47 -97.667 -47 -153c0 -78 33.167 -141.667 99.5 -191s159.5 -74 279.5 -74c86.667 0 171.834 8.33301 255.501 25
s156.834 40 219.501 70h9v-346c-62.667 -34.667 -136 -61.167 -220 -79.5s-171.333 -27.5 -262 -27.5c-184 0 -339.167 57.167 -465.5 171.5s-189.5 264.166 -189.5 449.499c0 75.333 17.5 146.166 52.5 212.499s84.5 125.833 148.5 178.5c63.333 52 140.5 94.667 231.5 128
s192.5 54.666 304.5 63.999c-40.667 12.667 -122.667 27.834 -246 45.501s-238 26.5 -344 26.5h-67v309h84c150.667 0 313.834 -28.333 489.501 -85s331.834 -134 468.501 -232h58v-269zM1047 279.003h-148v148h148v-148zM1047 70.0029h-148v148h148v-148zM778.997 279.003
h-148v148h148v-148zM778.997 70.0029h-148v148h148v-148z" />
    <glyph glyph-name="uni0688" unicode="&#x688;" horiz-adv-x="1114" arabic-form="isolated" 
d="M768 822c70.667 -57.333 130.333 -119.499 179 -186.499s73 -134.167 73 -201.5c0 -138 -41.5 -244.833 -124.5 -320.5s-194.5 -113.5 -334.5 -113.5h-481v360h479c66.667 0 114 6.83301 142 20.5s42 33.5 42 59.5c0 28 -10.833 56.167 -32.5 84.5
s-52.167 57.166 -91.5 86.499c-39.333 30 -84.833 60.333 -136.5 91l-183.5 105v323h8l229.5 -142.5c89 -56.333 166.167 -111.5 231.5 -165.5zM760.999 1481c0 -59.333 -29.332 -103.667 -87.999 -133c-44.667 -22 -98 -33 -160 -33h-289v92h82c14 10.667 21 18.667 21 24
v500h83v-397c69.333 75.333 132.666 113 189.999 113c47.333 0 86 -15.667 116 -47s45 -71 45 -119zM677 1479c0 21.333 -7.5 39.5 -22.5 54.5s-33.5 22.5 -55.5 22.5c-48 0 -107.667 -49.667 -179 -149h48c139.333 0 209 24 209 72z" />
    <glyph glyph-name="glyph1335" unicode="&#x689;" horiz-adv-x="1178" 
d="M1178 0h-191c-64 0 -117.333 11.5 -160 34.5s-76 57.833 -100 104.5c-30 -51.333 -68.833 -87.333 -116.5 -108s-102.5 -31 -164.5 -31h-344v360h355c50 0 91.167 8.83301 123.5 26.5s48.5 37.5 48.5 59.5c0 6 -1.5 15.167 -4.5 27.5s-6.5 24.5 -10.5 36.5l-188 637h311
l156 -539c9.33301 -32 20.5 -65.833 33.5 -101.5s24.833 -62.167 35.5 -79.5c12.667 -21.333 27.5 -37.833 44.5 -49.5s37.833 -17.5 62.5 -17.5h109v-360zM577 -96c0 -52.667 -18.668 -97.333 -56.001 -134s-81.666 -55 -132.999 -55c-52 0 -96.333 18.5 -133 55.5
s-55 81.5 -55 133.5c0 51.333 18.5 95.5 55.5 132.5s81.167 55.5 132.5 55.5c52 0 96.5 -18.333 133.5 -55s55.5 -81 55.5 -133zM480.999 -97.999c0 26.667 -9.33105 49.334 -27.998 68.001s-41.667 28 -69 28c-26.667 0 -49.334 -9.33301 -68.001 -28
s-28 -41.334 -28 -68.001c0 -25.333 9.66699 -47.333 29 -66s41.666 -28 66.999 -28c26 0 48.667 9.33301 68 28s29 40.667 29 66z" />
    <glyph glyph-name="glyph1544" unicode="&#x68a;" horiz-adv-x="1178" 
d="M1178 0h-191c-64 0 -117.333 11.5 -160 34.5s-76 57.833 -100 104.5c-30 -51.333 -68.833 -87.333 -116.5 -108s-102.5 -31 -164.5 -31h-344v360h355c50 0 91.167 8.83301 123.5 26.5s48.5 37.5 48.5 59.5c0 6 -1.5 15.167 -4.5 27.5s-6.5 24.5 -10.5 36.5l-188 637h311
l156 -539c9.33301 -32 20.5 -65.833 33.5 -101.5s24.833 -62.167 35.5 -79.5c12.667 -21.333 27.5 -37.833 44.5 -49.5s37.833 -17.5 62.5 -17.5h109v-360zM465 -295h-148v148h148v-148z" />
    <glyph glyph-name="glyph1337" unicode="&#x68b;" horiz-adv-x="1178" 
d="M1178 0h-191c-64 0 -117.333 11.5 -160 34.5s-76 57.833 -100 104.5c-30 -51.333 -68.833 -87.333 -116.5 -108s-102.5 -31 -164.5 -31h-344v360h355c50 0 91.167 8.83301 123.5 26.5s48.5 37.5 48.5 59.5c0 6 -1.5 15.167 -4.5 27.5s-6.5 24.5 -10.5 36.5l-188 637h311
l156 -539c9.33301 -32 20.5 -65.833 33.5 -101.5s24.833 -62.167 35.5 -79.5c12.667 -21.333 27.5 -37.833 44.5 -49.5s37.833 -17.5 62.5 -17.5h109v-360zM838 1555c0 -59.333 -29.332 -103.667 -87.999 -133c-44.667 -22 -98 -33 -160 -33h-289v92h82
c14 10.667 21 18.667 21 24v500h83v-397c69.333 75.333 132.666 113 189.999 113c47.333 0 86 -15.667 116 -47s45 -71 45 -119zM754.001 1553c0 21.333 -7.5 39.5 -22.5 54.5s-33.5 22.5 -55.5 22.5c-48 0 -107.667 -49.667 -179 -149h48c139.333 0 209 24 209 72z
M465.001 -295.001h-148v148h148v-148z" />
    <glyph glyph-name="uni068C" unicode="&#x68c;" horiz-adv-x="1114" arabic-form="isolated" 
d="M768 822c70.667 -57.333 130.333 -119.499 179 -186.499s73 -134.167 73 -201.5c0 -138 -41.5 -244.833 -124.5 -320.5s-194.5 -113.5 -334.5 -113.5h-481v360h479c66.667 0 114 6.83301 142 20.5s42 33.5 42 59.5c0 28 -10.833 56.167 -32.5 84.5
s-52.167 57.166 -91.5 86.499c-39.333 30 -84.833 60.333 -136.5 91l-183.5 105v323h8l229.5 -142.5c89 -56.333 166.167 -111.5 231.5 -165.5zM315.999 1372h-148v148h148v-148zM583.999 1372h-148v148h148v-148z" />
    <glyph glyph-name="uni068D" unicode="&#x68d;" horiz-adv-x="1114" arabic-form="isolated" 
d="M768 822c70.667 -57.333 130.333 -119.499 179 -186.499s73 -134.167 73 -201.5c0 -138 -41.5 -244.833 -124.5 -320.5s-194.5 -113.5 -334.5 -113.5h-481v360h479c66.667 0 114 6.83301 142 20.5s42 33.5 42 59.5c0 28 -10.833 56.167 -32.5 84.5
s-52.167 57.166 -91.5 86.499c-39.333 30 -84.833 60.333 -136.5 91l-183.5 105v323h8l229.5 -142.5c89 -56.333 166.167 -111.5 231.5 -165.5zM315.999 -292.999h-148v148h148v-148zM583.999 -292.999h-148v148h148v-148z" />
    <glyph glyph-name="uni068E" unicode="&#x68e;" horiz-adv-x="1114" arabic-form="isolated" 
d="M768 822c70.667 -57.333 130.333 -119.499 179 -186.499s73 -134.167 73 -201.5c0 -138 -41.5 -244.833 -124.5 -320.5s-194.5 -113.5 -334.5 -113.5h-481v360h479c66.667 0 114 6.83301 142 20.5s42 33.5 42 59.5c0 28 -10.833 56.167 -32.5 84.5
s-52.167 57.166 -91.5 86.499c-39.333 30 -84.833 60.333 -136.5 91l-183.5 105v323h8l229.5 -142.5c89 -56.333 166.167 -111.5 231.5 -165.5zM301.999 1372h-148v148h148v-148zM597.999 1372h-148v148h148v-148zM449.999 1581h-148v148h148v-148z" />
    <glyph glyph-name="glyph1345" unicode="&#x68f;" horiz-adv-x="1178" 
d="M1178 0h-191c-64 0 -117.333 11.5 -160 34.5s-76 57.833 -100 104.5c-30 -51.333 -68.833 -87.333 -116.5 -108s-102.5 -31 -164.5 -31h-344v360h355c50 0 91.167 8.83301 123.5 26.5s48.5 37.5 48.5 59.5c0 6 -1.5 15.167 -4.5 27.5s-6.5 24.5 -10.5 36.5l-188 637h311
l156 -539c9.33301 -32 20.5 -65.833 33.5 -101.5s24.833 -62.167 35.5 -79.5c12.667 -21.333 27.5 -37.833 44.5 -49.5s37.833 -17.5 62.5 -17.5h109v-360zM494 1581h-148v148h148v-148zM790 1581h-148v148h148v-148zM642 1372h-148v148h148v-148z" />
    <glyph glyph-name="glyph1347" unicode="&#x690;" horiz-adv-x="1178" 
d="M1178 0h-191c-64 0 -117.333 11.5 -160 34.5s-76 57.833 -100 104.5c-30 -51.333 -68.833 -87.333 -116.5 -108s-102.5 -31 -164.5 -31h-344v360h355c50 0 91.167 8.83301 123.5 26.5s48.5 37.5 48.5 59.5c0 6 -1.5 15.167 -4.5 27.5s-6.5 24.5 -10.5 36.5l-188 637h311
l156 -539c9.33301 -32 20.5 -65.833 33.5 -101.5s24.833 -62.167 35.5 -79.5c12.667 -21.333 27.5 -37.833 44.5 -49.5s37.833 -17.5 62.5 -17.5h109v-360zM776 1581h-148v148h148v-148zM776 1372h-148v148h148v-148zM508 1581h-148v148h148v-148zM508 1372h-148v148h148
v-148z" />
    <glyph glyph-name="uni0691" unicode="&#x691;" horiz-adv-x="946" arabic-form="isolated" 
d="M829 299c0 -122.667 -23.999 -232.671 -71.999 -330.004s-129.667 -179.333 -245 -246c-90 -51.333 -176.167 -88.666 -258.5 -111.999s-166.833 -35 -253.5 -35v363c48.667 0 104.5 5.83301 167.5 17.5s123.167 29.167 180.5 52.5c66 27.333 115.333 61.833 148 103.5
s49 92.834 49 153.501c0 72.667 -15.333 149.834 -46 231.501s-58.334 141.834 -83.001 180.501v12h293c14 -17.333 37.5 -66 70.5 -146s49.5 -161.667 49.5 -245zM801.001 1181c0 -59.333 -29.332 -103.667 -87.999 -133c-44.667 -22 -98 -33 -160 -33h-289v92h82
c14 10.667 21 18.667 21 24v500h83v-397c69.333 75.333 132.666 113 189.999 113c47.333 0 86 -15.667 116 -47s45 -71 45 -119zM717.002 1179c0 21.333 -7.5 39.5 -22.5 54.5s-33.5 22.5 -55.5 22.5c-48 0 -107.667 -49.667 -179 -149h48c139.333 0 209 24 209 72z" />
    <glyph glyph-name="glyph1349" unicode="&#x692;" horiz-adv-x="1042" 
d="M1042 0l-98.0029 0.00195312c-25.333 0 -54.666 4 -87.999 12s-58.666 17 -75.999 27c-37.333 -90.667 -87.5 -165.834 -150.5 -225.501s-135.833 -106.834 -218.5 -141.501c-84 -35.333 -161.333 -60.166 -232 -74.499s-130.334 -21.5 -179.001 -21.5v363
c40.667 0 94.5 5.83301 161.5 17.5s129.167 29.167 186.5 52.5c66 27.333 115.333 61.833 148 103.5s49 92.834 49 153.501c0 44.667 -6 90.667 -18 138s-25.333 89.333 -40 126c-16.667 40.667 -31.5 73.5 -44.5 98.5s-21.833 41.5 -26.5 49.5v12h293
c14 -24.667 30.833 -58.334 50.5 -101.001s32.834 -76 39.501 -100c11.333 -38.667 32.333 -69.834 63 -93.501s72.334 -35.5 125.001 -35.5h55v-360zM732.997 1218l-127 -286h-98l-127 286h107l69 -189l69 189h107z" />
    <glyph glyph-name="glyph1351" unicode="&#x693;" horiz-adv-x="1042" 
d="M1042 0l-98.0029 0.00195312c-25.333 0 -54.666 4 -87.999 12s-58.666 17 -75.999 27c-37.333 -90.667 -87.5 -165.834 -150.5 -225.501s-135.833 -106.834 -218.5 -141.501c-84 -35.333 -161.333 -60.166 -232 -74.499s-130.334 -21.5 -179.001 -21.5v363
c40.667 0 94.5 5.83301 161.5 17.5s129.167 29.167 186.5 52.5c66 27.333 115.333 61.833 148 103.5s49 92.834 49 153.501c0 44.667 -6 90.667 -18 138s-25.333 89.333 -40 126c-16.667 40.667 -31.5 73.5 -44.5 98.5s-21.833 41.5 -26.5 49.5v12h293
c14 -24.667 30.833 -58.334 50.5 -101.001s32.834 -76 39.501 -100c11.333 -38.667 32.333 -69.834 63 -93.501s72.334 -35.5 125.001 -35.5h55v-360zM906.997 -234.998c0 -52.667 -18.668 -97.333 -56.001 -134s-81.666 -55 -132.999 -55c-52 0 -96.333 18.5 -133 55.5
s-55 81.5 -55 133.5c0 51.333 18.5 95.5 55.5 132.5s81.167 55.5 132.5 55.5c52 0 96.5 -18.333 133.5 -55s55.5 -81 55.5 -133zM810.996 -236.997c0 26.667 -9.33105 49.334 -27.998 68.001s-41.667 28 -69 28c-26.667 0 -49.334 -9.33301 -68.001 -28
s-28 -41.334 -28 -68.001c0 -25.333 9.66699 -47.333 29 -66s41.666 -28 66.999 -28c26 0 48.667 9.33301 68 28s29 40.667 29 66z" />
    <glyph glyph-name="glyph1353" unicode="&#x694;" horiz-adv-x="1042" 
d="M1042 0l-98.0029 0.00195312c-25.333 0 -54.666 4 -87.999 12s-58.666 17 -75.999 27c-37.333 -90.667 -87.5 -165.834 -150.5 -225.501s-135.833 -106.834 -218.5 -141.501c-84 -35.333 -161.333 -60.166 -232 -74.499s-130.334 -21.5 -179.001 -21.5v363
c40.667 0 94.5 5.83301 161.5 17.5s129.167 29.167 186.5 52.5c66 27.333 115.333 61.833 148 103.5s49 92.834 49 153.501c0 44.667 -6 90.667 -18 138s-25.333 89.333 -40 126c-16.667 40.667 -31.5 73.5 -44.5 98.5s-21.833 41.5 -26.5 49.5v12h293
c14 -24.667 30.833 -58.334 50.5 -101.001s32.834 -76 39.501 -100c11.333 -38.667 32.333 -69.834 63 -93.501s72.334 -35.5 125.001 -35.5h55v-360zM804.997 -383.998h-148v148h148v-148z" />
    <glyph glyph-name="glyph1355" unicode="&#x695;" horiz-adv-x="1042" 
d="M1042 0l-98.0029 0.00195312c-25.333 0 -54.666 4 -87.999 12s-58.666 17 -75.999 27c-37.333 -90.667 -87.5 -165.834 -150.5 -225.501s-135.833 -106.834 -218.5 -141.501c-84 -35.333 -161.333 -60.166 -232 -74.499s-130.334 -21.5 -179.001 -21.5v363
c40.667 0 94.5 5.83301 161.5 17.5s129.167 29.167 186.5 52.5c66 27.333 115.333 61.833 148 103.5s49 92.834 49 153.501c0 44.667 -6 90.667 -18 138s-25.333 89.333 -40 126c-16.667 40.667 -31.5 73.5 -44.5 98.5s-21.833 41.5 -26.5 49.5v12h293
c14 -24.667 30.833 -58.334 50.5 -101.001s32.834 -76 39.501 -100c11.333 -38.667 32.333 -69.834 63 -93.501s72.334 -35.5 125.001 -35.5h55v-360zM1041 -137.998l-127 -286h-98l-127 286h107l69 -189l69 189h107z" />
    <glyph glyph-name="glyph1357" unicode="&#x696;" horiz-adv-x="1042" 
d="M1042 0l-98.0029 0.00195312c-25.333 0 -54.666 4 -87.999 12s-58.666 17 -75.999 27c-37.333 -90.667 -87.5 -165.834 -150.5 -225.501s-135.833 -106.834 -218.5 -141.501c-84 -35.333 -161.333 -60.166 -232 -74.499s-130.334 -21.5 -179.001 -21.5v363
c40.667 0 94.5 5.83301 161.5 17.5s129.167 29.167 186.5 52.5c66 27.333 115.333 61.833 148 103.5s49 92.834 49 153.501c0 44.667 -6 90.667 -18 138s-25.333 89.333 -40 126c-16.667 40.667 -31.5 73.5 -44.5 98.5s-21.833 41.5 -26.5 49.5v12h293
c14 -24.667 30.833 -58.334 50.5 -101.001s32.834 -76 39.501 -100c11.333 -38.667 32.333 -69.834 63 -93.501s72.334 -35.5 125.001 -35.5h55v-360zM804.997 -383.998h-148v148h148v-148zM284.997 100.002h-148v148h148v-148z" />
    <glyph glyph-name="glyph1359" unicode="&#x697;" horiz-adv-x="1042" 
d="M1042 0l-98.0029 0.00195312c-25.333 0 -54.666 4 -87.999 12s-58.666 17 -75.999 27c-37.333 -90.667 -87.5 -165.834 -150.5 -225.501s-135.833 -106.834 -218.5 -141.501c-84 -35.333 -161.333 -60.166 -232 -74.499s-130.334 -21.5 -179.001 -21.5v363
c40.667 0 94.5 5.83301 161.5 17.5s129.167 29.167 186.5 52.5c66 27.333 115.333 61.833 148 103.5s49 92.834 49 153.501c0 44.667 -6 90.667 -18 138s-25.333 89.333 -40 126c-16.667 40.667 -31.5 73.5 -44.5 98.5s-21.833 41.5 -26.5 49.5v12h293
c14 -24.667 30.833 -58.334 50.5 -101.001s32.834 -76 39.501 -100c11.333 -38.667 32.333 -69.834 63 -93.501s72.334 -35.5 125.001 -35.5h55v-360zM492.997 932.002h-148v148h148v-148zM760.997 932.002h-148v148h148v-148z" />
    <glyph glyph-name="uni0698" unicode="&#x698;" horiz-adv-x="946" arabic-form="isolated" 
d="M829 299c0 -122.667 -23.999 -232.671 -71.999 -330.004s-129.667 -179.333 -245 -246c-90 -51.333 -176.167 -88.666 -258.5 -111.999s-166.833 -35 -253.5 -35v363c48.667 0 104.5 5.83301 167.5 17.5s123.167 29.167 180.5 52.5c66 27.333 115.333 61.833 148 103.5
s49 92.834 49 153.501c0 72.667 -15.333 149.834 -46 231.501s-58.334 141.834 -83.001 180.501v12h293c14 -17.333 37.5 -66 70.5 -146s49.5 -161.667 49.5 -245zM457.001 930.996h-148v148h148v-148zM753.001 930.996h-148v148h148v-148zM605.001 1140h-148v148h148v-148z
" />
    <glyph glyph-name="glyph1361" unicode="&#x699;" horiz-adv-x="1042" 
d="M1042 0l-98.0029 0.00195312c-25.333 0 -54.666 4 -87.999 12s-58.666 17 -75.999 27c-37.333 -90.667 -87.5 -165.834 -150.5 -225.501s-135.833 -106.834 -218.5 -141.501c-84 -35.333 -161.333 -60.166 -232 -74.499s-130.334 -21.5 -179.001 -21.5v363
c40.667 0 94.5 5.83301 161.5 17.5s129.167 29.167 186.5 52.5c66 27.333 115.333 61.833 148 103.5s49 92.834 49 153.501c0 44.667 -6 90.667 -18 138s-25.333 89.333 -40 126c-16.667 40.667 -31.5 73.5 -44.5 98.5s-21.833 41.5 -26.5 49.5v12h293
c14 -24.667 30.833 -58.334 50.5 -101.001s32.834 -76 39.501 -100c11.333 -38.667 32.333 -69.834 63 -93.501s72.334 -35.5 125.001 -35.5h55v-360zM760.997 1141h-148v148h148v-148zM760.997 932.002h-148v148h148v-148zM492.997 1141h-148v148h148v-148z
M492.997 932.002h-148v148h148v-148z" />
    <glyph glyph-name="glyph1364" unicode="&#x69a;" horiz-adv-x="2247" 
d="M2083 592c0 -192 -43.333 -339.668 -130 -443.001s-205.334 -155 -356.001 -155c-66 0 -125.5 14.5 -178.5 43.5s-92.5 63.5 -118.5 103.5c-32 -43.333 -72.5 -78.666 -121.5 -105.999s-116.833 -41 -203.5 -41c-66 0 -125.667 14.5 -179 43.5
s-92.666 63.5 -117.999 103.5c-32.667 -43.333 -75.834 -77.666 -129.501 -102.999s-118.5 -38 -194.5 -38h-424v360h424c54.667 0 99.167 19.5 133.5 58.5s51.5 89.833 51.5 152.5v148h278v-150c0 -57.333 14 -106.5 42 -147.5s67.333 -61.5 118 -61.5
c57.333 0 102.333 19.333 135 58s49 89.667 49 153v148h279v-150c0 -58 13.833 -107.333 41.5 -148s66.834 -61 117.501 -61c57.333 0 105.833 21.667 145.5 65s59.5 99.666 59.5 168.999v297h279v-299zM1379 960.999h-148v148h148v-148zM1379 -295.001h-148v148h148v-148z
" />
    <glyph glyph-name="glyph1365" unicode="&#x69a;" horiz-adv-x="2335" 
d="M2335 0l-99.002 -0.000976562c-75.333 0 -139 14.167 -191 42.5s-88 61.833 -108 100.5c-22.667 -41.333 -65.667 -76.5 -129 -105.5s-133.666 -43.5 -210.999 -43.5c-66 0 -125.5 14.5 -178.5 43.5s-92.5 63.5 -118.5 103.5c-28 -41.333 -69.667 -76.166 -125 -104.499
s-122 -42.5 -200 -42.5c-66 0 -125.667 14.5 -179 43.5s-92.666 63.5 -117.999 103.5c-36 -47.333 -81.333 -82.666 -136 -105.999s-117.334 -35 -188.001 -35h-424v360h424c54.667 0 99.167 19.5 133.5 58.5s51.5 89.833 51.5 152.5v148h278v-150
c0 -57.333 14 -106.5 42 -147.5s67.333 -61.5 118 -61.5c57.333 0 102.333 19.333 135 58s49 89.667 49 153v148h279v-150c0 -58 13.833 -107.333 41.5 -148s66.834 -61 117.501 -61c57.333 0 104.833 21.667 142.5 65s56.5 99.666 56.5 168.999v297h279v-299
c0 -74.667 20 -132 60 -172s87.333 -60 142 -60h56v-360zM1379 960.999h-148v148h148v-148zM1379 -295.001h-148v148h148v-148z" />
    <glyph glyph-name="glyph1363" unicode="&#x69a;" horiz-adv-x="3004" 
d="M3004 0l-98.002 -0.000976562c-75.333 0 -139 14.167 -191 42.5s-88 61.833 -108 100.5c-26 -44 -70.333 -79.833 -133 -107.5s-131.667 -41.5 -207 -41.5c-66 0 -125.667 14.5 -179 43.5s-92.666 63.5 -117.999 103.5c-36.667 -49.333 -83 -86.166 -139 -110.499
s-117.333 -36.5 -184 -36.5c-40 0 -78.167 9 -114.5 27s-65.166 41.667 -86.499 71c-24 -161.333 -98.833 -287.666 -224.5 -378.999s-274.834 -137 -447.501 -137c-92.667 0 -178.667 14.167 -258 42.5s-148.333 69.833 -207 124.5
c-57.333 54.667 -102.666 123.667 -135.999 207s-50 177.666 -50 282.999c0 96.667 5.66699 182.334 17 257.001s18 116.667 20 126h284v-12c-6 -21.333 -14.667 -71.166 -26 -149.499s-17 -150.5 -17 -216.5c0 -95.333 38.667 -169 116 -221s163 -78 257 -78
c114.667 0 209.167 33.667 283.5 101s111.5 157.666 111.5 270.999c0 92.667 -2.33301 179.5 -7 260.5s-7.66699 130.167 -9 147.5h305c0 -116 17.5 -205.833 52.5 -269.5s80.5 -95.5 136.5 -95.5c54 0 98.167 20.5 132.5 61.5s51.5 92.833 51.5 155.5v148h278v-150
c0 -58 14 -107.333 42 -148s67.333 -61 118 -61c57.333 0 104.833 21.667 142.5 65s56.5 99.666 56.5 168.999v297h278v-299c0 -74.667 20.167 -132 60.5 -172s87.833 -60 142.5 -60h55v-360zM2045 960.999h-148v148h148v-148zM2045 -295.001h-148v148h148v-148z" />
    <glyph glyph-name="glyph1368" unicode="&#x69b;" horiz-adv-x="2247" 
d="M2083 592c0 -192 -43.333 -339.668 -130 -443.001s-205.334 -155 -356.001 -155c-66 0 -125.5 14.5 -178.5 43.5s-92.5 63.5 -118.5 103.5c-32 -43.333 -72.5 -78.666 -121.5 -105.999s-116.833 -41 -203.5 -41c-66 0 -125.667 14.5 -179 43.5
s-92.666 63.5 -117.999 103.5c-32.667 -43.333 -75.834 -77.666 -129.501 -102.999s-118.5 -38 -194.5 -38h-424v360h424c54.667 0 99.167 19.5 133.5 58.5s51.5 89.833 51.5 152.5v148h278v-150c0 -57.333 14 -106.5 42 -147.5s67.333 -61.5 118 -61.5
c57.333 0 102.333 19.333 135 58s49 89.667 49 153v148h279v-150c0 -58 13.833 -107.333 41.5 -148s66.834 -61 117.501 -61c57.333 0 105.833 21.667 145.5 65s59.5 99.666 59.5 168.999v297h279v-299zM1231 -214.001h-148v148h148v-148zM1527 -214.001h-148v148h148v-148z
M1379 -423.001h-148v148h148v-148z" />
    <glyph glyph-name="glyph1369" unicode="&#x69b;" horiz-adv-x="2335" 
d="M2335 0l-99.002 -0.000976562c-75.333 0 -139 14.167 -191 42.5s-88 61.833 -108 100.5c-22.667 -41.333 -65.667 -76.5 -129 -105.5s-133.666 -43.5 -210.999 -43.5c-66 0 -125.5 14.5 -178.5 43.5s-92.5 63.5 -118.5 103.5c-28 -41.333 -69.667 -76.166 -125 -104.499
s-122 -42.5 -200 -42.5c-66 0 -125.667 14.5 -179 43.5s-92.666 63.5 -117.999 103.5c-36 -47.333 -81.333 -82.666 -136 -105.999s-117.334 -35 -188.001 -35h-424v360h424c54.667 0 99.167 19.5 133.5 58.5s51.5 89.833 51.5 152.5v148h278v-150
c0 -57.333 14 -106.5 42 -147.5s67.333 -61.5 118 -61.5c57.333 0 102.333 19.333 135 58s49 89.667 49 153v148h279v-150c0 -58 13.833 -107.333 41.5 -148s66.834 -61 117.501 -61c57.333 0 104.833 21.667 142.5 65s56.5 99.666 56.5 168.999v297h279v-299
c0 -74.667 20 -132 60 -172s87.333 -60 142 -60h56v-360zM1231 -214.001h-148v148h148v-148zM1527 -214.001h-148v148h148v-148zM1379 -423.001h-148v148h148v-148z" />
    <glyph glyph-name="glyph1367" unicode="&#x69b;" horiz-adv-x="3004" 
d="M3004 0l-98.002 -0.000976562c-75.333 0 -139 14.167 -191 42.5s-88 61.833 -108 100.5c-26 -44 -70.333 -79.833 -133 -107.5s-131.667 -41.5 -207 -41.5c-66 0 -125.667 14.5 -179 43.5s-92.666 63.5 -117.999 103.5c-36.667 -49.333 -83 -86.166 -139 -110.499
s-117.333 -36.5 -184 -36.5c-40 0 -78.167 9 -114.5 27s-65.166 41.667 -86.499 71c-24 -161.333 -98.833 -287.666 -224.5 -378.999s-274.834 -137 -447.501 -137c-92.667 0 -178.667 14.167 -258 42.5s-148.333 69.833 -207 124.5
c-57.333 54.667 -102.666 123.667 -135.999 207s-50 177.666 -50 282.999c0 96.667 5.66699 182.334 17 257.001s18 116.667 20 126h284v-12c-6 -21.333 -14.667 -71.166 -26 -149.499s-17 -150.5 -17 -216.5c0 -95.333 38.667 -169 116 -221s163 -78 257 -78
c114.667 0 209.167 33.667 283.5 101s111.5 157.666 111.5 270.999c0 92.667 -2.33301 179.5 -7 260.5s-7.66699 130.167 -9 147.5h305c0 -116 17.5 -205.833 52.5 -269.5s80.5 -95.5 136.5 -95.5c54 0 98.167 20.5 132.5 61.5s51.5 92.833 51.5 155.5v148h278v-150
c0 -58 14 -107.333 42 -148s67.333 -61 118 -61c57.333 0 104.833 21.667 142.5 65s56.5 99.666 56.5 168.999v297h278v-299c0 -74.667 20.167 -132 60.5 -172s87.833 -60 142.5 -60h55v-360zM1897 -214.001h-148v148h148v-148zM2193 -214.001h-148v148h148v-148z
M2045 -423.001h-148v148h148v-148z" />
    <glyph glyph-name="glyph1372" unicode="&#x69c;" horiz-adv-x="2247" 
d="M2083 592c0 -192 -43.333 -339.668 -130 -443.001s-205.334 -155 -356.001 -155c-66 0 -125.5 14.5 -178.5 43.5s-92.5 63.5 -118.5 103.5c-32 -43.333 -72.5 -78.666 -121.5 -105.999s-116.833 -41 -203.5 -41c-66 0 -125.667 14.5 -179 43.5
s-92.666 63.5 -117.999 103.5c-32.667 -43.333 -75.834 -77.666 -129.501 -102.999s-118.5 -38 -194.5 -38h-424v360h424c54.667 0 99.167 19.5 133.5 58.5s51.5 89.833 51.5 152.5v148h278v-150c0 -57.333 14 -106.5 42 -147.5s67.333 -61.5 118 -61.5
c57.333 0 102.333 19.333 135 58s49 89.667 49 153v148h279v-150c0 -58 13.833 -107.333 41.5 -148s66.834 -61 117.501 -61c57.333 0 105.833 21.667 145.5 65s59.5 99.666 59.5 168.999v297h279v-299zM1231 -214.001h-148v148h148v-148zM1527 -214.001h-148v148h148v-148z
M1379 -423.001h-148v148h148v-148zM1231 960.999h-148v148h148v-148zM1527 960.999h-148v148h148v-148zM1379 1170h-148v148h148v-148z" />
    <glyph glyph-name="glyph1373" unicode="&#x69c;" horiz-adv-x="2335" 
d="M2335 0l-99.002 -0.000976562c-75.333 0 -139 14.167 -191 42.5s-88 61.833 -108 100.5c-22.667 -41.333 -65.667 -76.5 -129 -105.5s-133.666 -43.5 -210.999 -43.5c-66 0 -125.5 14.5 -178.5 43.5s-92.5 63.5 -118.5 103.5c-28 -41.333 -69.667 -76.166 -125 -104.499
s-122 -42.5 -200 -42.5c-66 0 -125.667 14.5 -179 43.5s-92.666 63.5 -117.999 103.5c-36 -47.333 -81.333 -82.666 -136 -105.999s-117.334 -35 -188.001 -35h-424v360h424c54.667 0 99.167 19.5 133.5 58.5s51.5 89.833 51.5 152.5v148h278v-150
c0 -57.333 14 -106.5 42 -147.5s67.333 -61.5 118 -61.5c57.333 0 102.333 19.333 135 58s49 89.667 49 153v148h279v-150c0 -58 13.833 -107.333 41.5 -148s66.834 -61 117.501 -61c57.333 0 104.833 21.667 142.5 65s56.5 99.666 56.5 168.999v297h279v-299
c0 -74.667 20 -132 60 -172s87.333 -60 142 -60h56v-360zM1231 -214.001h-148v148h148v-148zM1527 -214.001h-148v148h148v-148zM1379 -423.001h-148v148h148v-148zM1231 960.999h-148v148h148v-148zM1527 960.999h-148v148h148v-148zM1379 1170h-148v148h148v-148z" />
    <glyph glyph-name="glyph1371" unicode="&#x69c;" horiz-adv-x="3004" 
d="M3004 0l-98.002 -0.000976562c-75.333 0 -139 14.167 -191 42.5s-88 61.833 -108 100.5c-26 -44 -70.333 -79.833 -133 -107.5s-131.667 -41.5 -207 -41.5c-66 0 -125.667 14.5 -179 43.5s-92.666 63.5 -117.999 103.5c-36.667 -49.333 -83 -86.166 -139 -110.499
s-117.333 -36.5 -184 -36.5c-40 0 -78.167 9 -114.5 27s-65.166 41.667 -86.499 71c-24 -161.333 -98.833 -287.666 -224.5 -378.999s-274.834 -137 -447.501 -137c-92.667 0 -178.667 14.167 -258 42.5s-148.333 69.833 -207 124.5
c-57.333 54.667 -102.666 123.667 -135.999 207s-50 177.666 -50 282.999c0 96.667 5.66699 182.334 17 257.001s18 116.667 20 126h284v-12c-6 -21.333 -14.667 -71.166 -26 -149.499s-17 -150.5 -17 -216.5c0 -95.333 38.667 -169 116 -221s163 -78 257 -78
c114.667 0 209.167 33.667 283.5 101s111.5 157.666 111.5 270.999c0 92.667 -2.33301 179.5 -7 260.5s-7.66699 130.167 -9 147.5h305c0 -116 17.5 -205.833 52.5 -269.5s80.5 -95.5 136.5 -95.5c54 0 98.167 20.5 132.5 61.5s51.5 92.833 51.5 155.5v148h278v-150
c0 -58 14 -107.333 42 -148s67.333 -61 118 -61c57.333 0 104.833 21.667 142.5 65s56.5 99.666 56.5 168.999v297h278v-299c0 -74.667 20.167 -132 60.5 -172s87.833 -60 142.5 -60h55v-360zM1897 -214.001h-148v148h148v-148zM2193 -214.001h-148v148h148v-148z
M2045 -423.001h-148v148h148v-148zM1897 960.999h-148v148h148v-148zM2193 960.999h-148v148h148v-148zM2045 1170h-148v148h148v-148z" />
    <glyph glyph-name="glyph1376" unicode="&#x69d;" horiz-adv-x="1905" 
d="M1782 539c0 -73.333 -18.167 -143.167 -54.5 -209.5s-86.5 -123.5 -150.5 -171.5c-66 -49.333 -142.833 -88 -230.5 -116s-185.5 -42 -293.5 -42h-541c-42.667 0 -80.834 7.16699 -114.501 21.5s-59.834 39.833 -78.501 76.5
c-21.333 -35.333 -47.666 -60.5 -78.999 -75.5s-76.666 -22.5 -135.999 -22.5h-174v360h164c26.667 0 47.667 7.5 63 22.5s23 37.167 23 66.5v112h279v-108c0 -22 1.83301 -38.667 5.5 -50s10.5 -19.333 20.5 -24c56 80 117.5 161.833 184.5 245.5
s130.833 152.5 191.5 206.5c66.667 59.333 138.5 106.333 215.5 141s160.5 52 250.5 52c132.667 0 241.667 -45.667 327 -137s128 -207.333 128 -348zM1381 416.999c40.667 17.333 71.501 37.5029 92.501 60.5029s31.5 48.167 31.5 75.5c0 38.667 -15.5 74 -46.5 106
s-74.167 48 -129.5 48c-63.333 0 -122.666 -11.833 -177.999 -35.5s-107 -52.834 -155 -87.501c-46.667 -34.667 -87.834 -71.334 -123.501 -110.001s-68.5 -76.667 -98.5 -114h195c94.667 0 176.667 5.16699 246 15.5s124.666 24.166 165.999 41.499zM751.001 -294.998
h-148v148h148v-148zM1019 -294.998h-148v148h148v-148z" />
    <glyph glyph-name="glyph1377" unicode="&#x69d;" horiz-adv-x="2023" 
d="M2023 0l-112 0.00195312c-93.333 0 -165.666 13.833 -216.999 41.5s-87 67.834 -107 120.501c-70.667 -52.667 -151 -92.834 -241 -120.501s-187.667 -41.5 -293 -41.5h-541c-42.667 0 -80.834 7.16699 -114.501 21.5s-59.834 39.833 -78.501 76.5
c-21.333 -35.333 -47.666 -60.5 -78.999 -75.5s-76.666 -22.5 -135.999 -22.5h-174v360h164c26.667 0 47.667 7.5 63 22.5s23 37.167 23 66.5v112h279v-108c0 -22 1.83301 -38.667 5.5 -50s10.5 -19.333 20.5 -24c67.333 95.333 131.666 180.5 192.999 255.5
s123.666 140.5 186.999 196.5c66.667 58.667 139 105.5 217 140.5s162.333 52.5 253 52.5c126 0 233.333 -43.333 322 -130s133 -205 133 -355c0 -22.667 -2.66699 -48.834 -8 -78.501s-12.333 -54.834 -21 -75.501c14.667 -8.66699 29.834 -15 45.501 -19
s36.167 -6 61.5 -6h155v-360zM1390 417.002c42.667 18.667 73.833 39.335 93.5 62.002s29.5 47.334 29.5 74.001c0 38.667 -15.5 74 -46.5 106s-74.167 48 -129.5 48c-64 0 -123.667 -11.833 -179 -35.5s-106.666 -52.834 -153.999 -87.501
c-46.667 -34.667 -87.834 -71.334 -123.501 -110.001s-68.5 -76.667 -98.5 -114h197c94.667 0 176.5 5.16699 245.5 15.5s124.167 24.166 165.5 41.499zM750.999 -294.997h-148v148h148v-148zM1019 -294.997h-148v148h148v-148z" />
    <glyph glyph-name="glyph1375" unicode="&#x69d;" horiz-adv-x="3043" 
d="M3043 0l-98 0.00195312c-77.333 0 -143.666 15.167 -198.999 45.5s-99 77.833 -131 142.5c-69.333 -58.667 -150.5 -104.667 -243.5 -138s-200.167 -50 -321.5 -50h-625c-46.667 -134 -126.667 -238.167 -240 -312.5s-250.333 -111.5 -411 -111.5
c-92.667 0 -178.667 14.167 -258 42.5s-148.333 69.833 -207 124.5c-57.333 54.667 -102.666 123.667 -135.999 207s-50 177.666 -50 282.999c0 95.333 5.66699 180.666 17 255.999s18 117.666 20 126.999h284v-12c-6 -21.333 -14.667 -71.166 -26 -149.499
s-17 -150.5 -17 -216.5c0 -88 35.167 -159.833 105.5 -215.5s159.5 -83.5 267.5 -83.5c53.333 0 104 8.16699 152 24.5s89 39.166 123 68.499c39.333 34 69.166 74.333 89.499 121s30.5 99.334 30.5 158.001c0 94 -2.33301 165.833 -7 215.5s-7.66699 79.5 -9 89.5h285
c1.33301 -8.66699 4.33301 -31 9 -67s7.66699 -68 9 -96c0.666992 -14 2.83398 -28.667 6.50098 -44s10.5 -25.333 20.5 -30c67.333 95.333 131.666 180.5 192.999 255.5s123.666 140.5 186.999 196.5c66.667 58.667 139 105.5 217 140.5s162.333 52.5 253 52.5
c120 0 222.667 -39.5 308 -118.5s133.333 -183.5 144 -313.5l2 -35c6 -62.667 28.333 -111.167 67 -145.5s83.334 -51.5 134 -51.5h55v-360zM2387 418.002c40.667 17.333 71.499 37.1699 92.499 59.5029s31.5 46.166 31.5 71.499c0 43.333 -16.5 80.5 -49.5 111.5
s-75.167 46.5 -126.5 46.5c-64 0 -124.167 -11.833 -180.5 -35.5s-107.833 -52.834 -154.5 -87.501c-47.333 -34.667 -89.666 -72.334 -126.999 -113.001s-69 -77.667 -95 -111h198c94 0 176 5.5 246 16.5s125 24.833 165 41.5zM1751 -294.994h-148v148h148v-148z
M2019 -294.994h-148v148h148v-148z" />
    <glyph glyph-name="glyph1380" unicode="&#x69e;" horiz-adv-x="1905" 
d="M1782 539c0 -73.333 -18.167 -143.167 -54.5 -209.5s-86.5 -123.5 -150.5 -171.5c-66 -49.333 -142.833 -88 -230.5 -116s-185.5 -42 -293.5 -42h-541c-42.667 0 -80.834 7.16699 -114.501 21.5s-59.834 39.833 -78.501 76.5
c-21.333 -35.333 -47.666 -60.5 -78.999 -75.5s-76.666 -22.5 -135.999 -22.5h-174v360h164c26.667 0 47.667 7.5 63 22.5s23 37.167 23 66.5v112h279v-108c0 -22 1.83301 -38.667 5.5 -50s10.5 -19.333 20.5 -24c56 80 117.5 161.833 184.5 245.5
s130.833 152.5 191.5 206.5c66.667 59.333 138.5 106.333 215.5 141s160.5 52 250.5 52c132.667 0 241.667 -45.667 327 -137s128 -207.333 128 -348zM1381 416.999c40.667 17.333 71.501 37.5029 92.501 60.5029s31.5 48.167 31.5 75.5c0 38.667 -15.5 74 -46.5 106
s-74.167 48 -129.5 48c-63.333 0 -122.666 -11.833 -177.999 -35.5s-107 -52.834 -155 -87.501c-46.667 -34.667 -87.834 -71.334 -123.501 -110.001s-68.5 -76.667 -98.5 -114h195c94.667 0 176.667 5.16699 246 15.5s124.666 24.166 165.999 41.499zM1137 1165h-148v148
h148v-148zM1433 1165h-148v148h148v-148zM1285 1374h-148v148h148v-148z" />
    <glyph glyph-name="glyph1381" unicode="&#x69e;" horiz-adv-x="2023" 
d="M2023 0l-112 0.00195312c-93.333 0 -165.666 13.833 -216.999 41.5s-87 67.834 -107 120.501c-70.667 -52.667 -151 -92.834 -241 -120.501s-187.667 -41.5 -293 -41.5h-541c-42.667 0 -80.834 7.16699 -114.501 21.5s-59.834 39.833 -78.501 76.5
c-21.333 -35.333 -47.666 -60.5 -78.999 -75.5s-76.666 -22.5 -135.999 -22.5h-174v360h164c26.667 0 47.667 7.5 63 22.5s23 37.167 23 66.5v112h279v-108c0 -22 1.83301 -38.667 5.5 -50s10.5 -19.333 20.5 -24c67.333 95.333 131.666 180.5 192.999 255.5
s123.666 140.5 186.999 196.5c66.667 58.667 139 105.5 217 140.5s162.333 52.5 253 52.5c126 0 233.333 -43.333 322 -130s133 -205 133 -355c0 -22.667 -2.66699 -48.834 -8 -78.501s-12.333 -54.834 -21 -75.501c14.667 -8.66699 29.834 -15 45.501 -19
s36.167 -6 61.5 -6h155v-360zM1390 417.002c42.667 18.667 73.833 39.335 93.5 62.002s29.5 47.334 29.5 74.001c0 38.667 -15.5 74 -46.5 106s-74.167 48 -129.5 48c-64 0 -123.667 -11.833 -179 -35.5s-106.666 -52.834 -153.999 -87.501
c-46.667 -34.667 -87.834 -71.334 -123.501 -110.001s-68.5 -76.667 -98.5 -114h197c94.667 0 176.5 5.16699 245.5 15.5s124.167 24.166 165.5 41.499zM1137 1165h-148v148h148v-148zM1433 1165h-148v148h148v-148zM1285 1374h-148v148h148v-148z" />
    <glyph glyph-name="glyph1379" unicode="&#x69e;" horiz-adv-x="3043" 
d="M3043 0l-98 0.00195312c-77.333 0 -143.666 15.167 -198.999 45.5s-99 77.833 -131 142.5c-69.333 -58.667 -150.5 -104.667 -243.5 -138s-200.167 -50 -321.5 -50h-625c-46.667 -134 -126.667 -238.167 -240 -312.5s-250.333 -111.5 -411 -111.5
c-92.667 0 -178.667 14.167 -258 42.5s-148.333 69.833 -207 124.5c-57.333 54.667 -102.666 123.667 -135.999 207s-50 177.666 -50 282.999c0 95.333 5.66699 180.666 17 255.999s18 117.666 20 126.999h284v-12c-6 -21.333 -14.667 -71.166 -26 -149.499
s-17 -150.5 -17 -216.5c0 -88 35.167 -159.833 105.5 -215.5s159.5 -83.5 267.5 -83.5c53.333 0 104 8.16699 152 24.5s89 39.166 123 68.499c39.333 34 69.166 74.333 89.499 121s30.5 99.334 30.5 158.001c0 94 -2.33301 165.833 -7 215.5s-7.66699 79.5 -9 89.5h285
c1.33301 -8.66699 4.33301 -31 9 -67s7.66699 -68 9 -96c0.666992 -14 2.83398 -28.667 6.50098 -44s10.5 -25.333 20.5 -30c67.333 95.333 131.666 180.5 192.999 255.5s123.666 140.5 186.999 196.5c66.667 58.667 139 105.5 217 140.5s162.333 52.5 253 52.5
c120 0 222.667 -39.5 308 -118.5s133.333 -183.5 144 -313.5l2 -35c6 -62.667 28.333 -111.167 67 -145.5s83.334 -51.5 134 -51.5h55v-360zM2387 418.002c40.667 17.333 71.499 37.1699 92.499 59.5029s31.5 46.166 31.5 71.499c0 43.333 -16.5 80.5 -49.5 111.5
s-75.167 46.5 -126.5 46.5c-64 0 -124.167 -11.833 -180.5 -35.5s-107.833 -52.834 -154.5 -87.501c-47.333 -34.667 -89.666 -72.334 -126.999 -113.001s-69 -77.667 -95 -111h198c94 0 176 5.5 246 16.5s125 24.833 165 41.5zM2137 1165.01h-148v148h148v-148z
M2433 1165.01h-148v148h148v-148zM2285 1374.01h-148v148h148v-148z" />
    <glyph glyph-name="glyph1383" unicode="&#x69f;" horiz-adv-x="1765" 
d="M1140 420c40.667 18 71.4971 38.334 92.4971 61.001s31.5 46.667 31.5 72c0 44 -15.667 80.667 -47 110s-74.666 44 -129.999 44c-61.333 0 -119.666 -11.833 -174.999 -35.5s-107 -52.834 -155 -87.501c-42 -30.667 -81.667 -65.167 -119 -103.5
s-72.666 -78.5 -105.999 -120.5h197c93.333 0 174.833 5.5 244.5 16.5s125.167 25.5 166.5 43.5zM1764 0.000976562l-103 0.00195312c-94.667 0 -167.334 14 -218.001 42s-86 68 -106 120c-69.333 -52.667 -149.333 -92.834 -240 -120.501s-188.667 -41.5 -294 -41.5h-873
v360h287l31 31v1165h276v-815c70.667 80.667 155.667 148 255 202s201.333 81 306 81c132 0 240.833 -43.833 326.5 -131.5s128.5 -202.167 128.5 -343.5c0 -38 -4 -73 -12 -105s-13.667 -51 -17 -57c14.667 -8.66699 29.834 -15.334 45.501 -20.001s36.167 -7 61.5 -7h146
v-360zM881.997 1266h-148v148h148v-148zM1178 1266h-148v148h148v-148zM1030 1475h-148v148h148v-148z" />
    <glyph glyph-name="glyph1386" unicode="&#x6a0;" horiz-adv-x="1391" 
d="M1290 184c-224.667 -63.333 -411.834 -109.833 -561.501 -139.5s-262.167 -44.5 -337.5 -44.5h-461v360h330c-21.333 20 -41.666 54.833 -60.999 104.5s-29 95.5 -29 137.5c0 148.667 49.5 270.834 148.5 366.501s226.833 143.5 383.5 143.5
c76.667 0 157.334 -9.5 242.001 -28.5s146 -37.5 184 -55.5v-309h-12c-48.667 18 -114.834 35.5 -198.501 52.5s-152.5 25.5 -206.5 25.5c-78.667 0 -142.5 -20.5 -191.5 -61.5s-73.5 -88.833 -73.5 -143.5c0 -48 15.167 -90.833 45.5 -128.5s65.166 -65.167 104.499 -82.5
c112.667 13.333 234.834 35.166 366.501 65.499l327.5 75.5v-338zM610 1354h-148v148h148v-148zM906 1354h-148v148h148v-148zM758 1563h-148v148h148v-148z" />
    <glyph glyph-name="glyph1387" unicode="&#x6a0;" horiz-adv-x="1208" 
d="M1208 0h-276.004c-61.333 -0 -121.333 13.833 -180 41.5s-108.667 60.834 -150 99.501c-44 -43.333 -94.667 -77.666 -152 -102.999s-116.666 -38 -177.999 -38h-342v360h346c12.667 0 25.334 1.83301 38.001 5.5s21.334 7.5 26.001 11.5
c-25.333 17.333 -53.166 39 -83.499 65s-57.5 52 -81.5 78c-26.667 28.667 -49.167 57.667 -67.5 87s-27.5 55.666 -27.5 78.999c0 51.333 16 97 48 137s74 74 126 102c46 25.333 100 45.5 162 60.5s124 22.5 186 22.5c60 0 120.333 -6.83301 181 -20.5
s117 -33.834 169 -60.501c51.333 -26.667 93.5 -60 126.5 -100s49.5 -85.667 49.5 -137c0 -24 -9.66699 -51 -29 -81s-42 -58.333 -68 -85c-23.333 -24 -52 -51.167 -86 -81.5s-61 -53.5 -81 -69.5c2.66699 -4 10 -7.16699 22 -9.5s26 -3.5 42 -3.5h280v-360zM749.996 552
c29.333 21.333 52.666 39.5029 69.999 54.5029s26 27.167 26 36.5c0 15.333 -8 29 -24 41s-36.333 22.333 -61 31c-25.333 8.66699 -52 15.167 -80 19.5s-54.333 6.5 -79 6.5c-57.333 0 -111.666 -9.83301 -162.999 -29.5s-77 -41.834 -77 -66.501
c0 -8 9.33301 -20.5 28 -37.5s41.334 -35.167 68.001 -54.5c24 -17.333 50.667 -35.333 80 -54s50.666 -31.334 63.999 -38.001c17.333 8.66699 40.333 21.667 69 39s55 34.666 79 51.999zM517.996 1249h-148v148h148v-148zM813.996 1249h-148v148h148v-148zM665.996 1458
h-148v148h148v-148z" />
    <glyph glyph-name="glyph1385" unicode="&#x6a0;" horiz-adv-x="1384" 
d="M985 -424l-206.995 -0.00390625c-92.667 0 -179.334 11.5 -260.001 34.5s-150 56.5 -208 100.5c-58.667 44.667 -104.5 99.834 -137.5 165.501s-49.5 141.5 -49.5 227.5c0 42 7.83301 80 23.5 114s36.167 65.333 61.5 94c22.667 25.333 48.5 48 77.5 68
s57.5 37.333 85.5 52l8 4c-18.667 14.667 -38.5 32 -59.5 52s-44.5 47.333 -70.5 82c-22.667 29.333 -42.167 61 -58.5 95s-24.5 66.333 -24.5 97c0 37.333 10.667 73.5 32 108.5s54.666 68.833 99.999 101.5c42.667 30.667 96.5 55.834 161.5 75.501
s137.833 29.5 218.5 29.5s153 -10 217 -30s117.667 -45.333 161 -76c44.667 -30.667 78.834 -64.667 102.501 -102s35.5 -73.666 35.5 -108.999c0 -61.333 -27.833 -120.166 -83.5 -176.499s-126.834 -102.833 -213.501 -139.5l-84 -34c20.667 -12 49 -23.333 85 -34
s78 -16 126 -16h360v-360h-288c-47.333 0 -91.833 6 -133.5 18s-78.834 26.667 -111.501 44c-34 18 -66.667 39.167 -98 63.5s-56.333 44.5 -75 60.5l-100 84c-16 -8.66699 -39.167 -30.167 -69.5 -64.5s-45.5 -66.5 -45.5 -96.5c0 -33.333 8.66699 -61.5 26 -84.5
s40.666 -40.833 69.999 -53.5c30.667 -13.333 63.667 -22.333 99 -27s74.666 -7 117.999 -7h209v-361zM913.005 726.996c0 18.667 -24.167 38.6689 -72.5 60.002s-102.5 32 -162.5 32c-63.333 0 -117.333 -11.333 -162 -34s-67 -42 -67 -58
c0 -29.333 19.5 -63.333 58.5 -102s70.5 -65.334 94.5 -80.001l37 -23l53 19c60.667 21.333 112.667 50.666 156 87.999s65 70 65 98zM596.005 1317h-148v148h148v-148zM892.005 1317h-148v148h148v-148zM744.005 1526h-148v148h148v-148z" />
    <glyph glyph-name="glyph798" unicode="&#x6a1;" horiz-adv-x="2154" 
d="M2154 0l-264.001 0.00195312c-62 0 -120.333 8.5 -175 25.5s-104.667 41.167 -150 72.5c-49.333 -31.333 -102.5 -55.5 -159.5 -72.5s-113.833 -25.5 -170.5 -25.5h-291c-262 0 -463.667 49.167 -605 147.5s-212 245.833 -212 442.5c0 66 5 128.833 15 188.5l16 95.5h272
v-8c-3.33301 -14.667 -8.16602 -49.667 -14.499 -105s-9.5 -108.333 -9.5 -159c0 -75.333 48.667 -134.5 146 -177.5s228 -64.5 392 -64.5h322c-33.333 25.333 -65.333 64 -96 116s-46 102.333 -46 151c0 105.333 41.5 195.166 124.5 269.499s186.5 111.5 310.5 111.5
c123.333 0 227.5 -37 312.5 -111s127.5 -167 127.5 -279c0 -52 -18 -104.333 -54 -157s-64.333 -86.334 -85 -101.001h294v-360zM1647 468.002c16.667 20 29.667 38.834 39 56.501s14 38.167 14 61.5c0 40.667 -14.667 73.667 -44 99s-61.666 38 -96.999 38
c-38 0 -70.167 -13 -96.5 -39s-39.5 -58.667 -39.5 -98c0 -18.667 5.33301 -38.5 16 -59.5s23.667 -40.5 39 -58.5c12 -14.667 27 -29 45 -43s31.333 -22 40 -24c11.333 3.33301 25.166 11.666 41.499 24.999s30.5 27.333 42.5 42z" />
    <glyph glyph-name="glyph1390" unicode="&#x6a2;" horiz-adv-x="1110" 
d="M827 1116c49.333 -61.333 88.3311 -135.334 116.998 -222.001s43 -185.334 43 -296.001c0 -93.333 -20.833 -177.666 -62.5 -252.999s-94.5 -138 -158.5 -188c-66 -51.333 -137.667 -90.333 -215 -117s-153 -40 -227 -40h-394v360h371c90 0 169 13.667 237 41
s117.667 66.333 149 117c-13.333 -2 -37.333 -4.5 -72 -7.5s-67.667 -4.5 -99 -4.5c-62 0 -117.5 8.83301 -166.5 26.5s-91.167 43.834 -126.5 78.501c-33.333 32.667 -58.666 71 -75.999 115s-26 92 -26 144c0 114 34.833 212.833 104.5 296.5s155.5 125.5 257.5 125.5
c62.667 0 123.334 -14.5 182.001 -43.5s112.667 -73.167 162 -132.5zM691.998 779.999c-8 54 -32.165 102.669 -72.498 146.002s-78.833 65 -115.5 65c-32 0 -57.833 -11.833 -77.5 -35.5s-29.5 -50.834 -29.5 -81.501c0 -30 12 -55.167 36 -75.5s55.667 -30.5 95 -30.5
c25.333 0 57.166 1.16699 95.499 3.5s61.166 5.16602 68.499 8.49902zM509 -294.999h-148v148h148v-148z" />
    <glyph glyph-name="glyph1391" unicode="&#x6a2;" horiz-adv-x="1171" 
d="M1171 0l-139 -0.00488281c-47.333 0 -92.5 5.16699 -135.5 15.5s-83.5 23.5 -121.5 39.5c-38 16.667 -72.167 33.667 -102.5 51s-59.833 35.333 -88.5 54l-85 -53c-26.667 -16.667 -61.667 -34 -105 -52s-83 -31.667 -119 -41s-82 -14 -138 -14h-207v360h133
c55.333 0 103.166 3.33301 143.499 10s67.833 12.334 82.5 17.001c-35.333 32 -63.333 68.667 -84 110s-31 90 -31 146c0 55.333 9.16699 104.833 27.5 148.5s45.5 82.834 81.5 117.501c34.667 32.667 77.834 58.334 129.501 77.001s108.834 28 171.501 28
c128 0 228.5 -36 301.5 -108s109.5 -165.667 109.5 -281c0 -46 -11 -89.5 -33 -130.5s-50.333 -76.833 -85 -107.5c9.33301 -3.33301 18.666 -5.66602 27.999 -6.99902s24.333 -3.66602 45 -6.99902c24.667 -3.33301 48.667 -6.33301 72 -9s51.333 -4 84 -4h65v-360z
M719 611.995c0 30 -12.5 56.666 -37.5 79.999s-56.833 35 -95.5 35c-44 0 -77.5 -11.833 -100.5 -35.5s-34.5 -50.167 -34.5 -79.5c0 -25.333 15.833 -50.333 47.5 -75s61.5 -42.667 89.5 -54c34.667 16 65.167 35.833 91.5 59.5s39.5 46.834 39.5 69.501zM650 -295.006
h-148v148h148v-148z" />
    <glyph glyph-name="glyph1389" unicode="&#x6a2;" horiz-adv-x="2154" 
d="M2154 0l-264.001 0.00195312c-62 0 -120.333 8.5 -175 25.5s-104.667 41.167 -150 72.5c-49.333 -31.333 -102.5 -55.5 -159.5 -72.5s-113.833 -25.5 -170.5 -25.5h-291c-262 0 -463.667 49.167 -605 147.5s-212 245.833 -212 442.5c0 66 5 128.833 15 188.5l16 95.5h272
v-8c-3.33301 -14.667 -8.16602 -49.667 -14.499 -105s-9.5 -108.333 -9.5 -159c0 -75.333 48.667 -134.5 146 -177.5s228 -64.5 392 -64.5h322c-33.333 25.333 -65.333 64 -96 116s-46 102.333 -46 151c0 105.333 41.5 195.166 124.5 269.499s186.5 111.5 310.5 111.5
c123.333 0 227.5 -37 312.5 -111s127.5 -167 127.5 -279c0 -52 -18 -104.333 -54 -157s-64.333 -86.334 -85 -101.001h294v-360zM1647 468.002c16.667 20 29.667 38.834 39 56.501s14 38.167 14 61.5c0 40.667 -14.667 73.667 -44 99s-61.666 38 -96.999 38
c-38 0 -70.167 -13 -96.5 -39s-39.5 -58.667 -39.5 -98c0 -18.667 5.33301 -38.5 16 -59.5s23.667 -40.5 39 -58.5c12 -14.667 27 -29 45 -43s31.333 -22 40 -24c11.333 3.33301 25.166 11.666 41.499 24.999s30.5 27.333 42.5 42zM1631 -294.997h-148v148h148v-148z" />
    <glyph glyph-name="glyph1394" unicode="&#x6a3;" horiz-adv-x="1110" 
d="M827 1116c49.333 -61.333 88.3311 -135.334 116.998 -222.001s43 -185.334 43 -296.001c0 -93.333 -20.833 -177.666 -62.5 -252.999s-94.5 -138 -158.5 -188c-66 -51.333 -137.667 -90.333 -215 -117s-153 -40 -227 -40h-394v360h371c90 0 169 13.667 237 41
s117.667 66.333 149 117c-13.333 -2 -37.333 -4.5 -72 -7.5s-67.667 -4.5 -99 -4.5c-62 0 -117.5 8.83301 -166.5 26.5s-91.167 43.834 -126.5 78.501c-33.333 32.667 -58.666 71 -75.999 115s-26 92 -26 144c0 114 34.833 212.833 104.5 296.5s155.5 125.5 257.5 125.5
c62.667 0 123.334 -14.5 182.001 -43.5s112.667 -73.167 162 -132.5zM691.998 779.999c-8 54 -32.165 102.669 -72.498 146.002s-78.833 65 -115.5 65c-32 0 -57.833 -11.833 -77.5 -35.5s-29.5 -50.834 -29.5 -81.501c0 -30 12 -55.167 36 -75.5s55.667 -30.5 95 -30.5
c25.333 0 57.166 1.16699 95.499 3.5s61.166 5.16602 68.499 8.49902zM509 1533h-148v148h148v-148zM509 -294.999h-148v148h148v-148z" />
    <glyph glyph-name="glyph1395" unicode="&#x6a3;" horiz-adv-x="1171" 
d="M1171 0l-139 -0.00488281c-47.333 0 -92.5 5.16699 -135.5 15.5s-83.5 23.5 -121.5 39.5c-38 16.667 -72.167 33.667 -102.5 51s-59.833 35.333 -88.5 54l-85 -53c-26.667 -16.667 -61.667 -34 -105 -52s-83 -31.667 -119 -41s-82 -14 -138 -14h-207v360h133
c55.333 0 103.166 3.33301 143.499 10s67.833 12.334 82.5 17.001c-35.333 32 -63.333 68.667 -84 110s-31 90 -31 146c0 55.333 9.16699 104.833 27.5 148.5s45.5 82.834 81.5 117.501c34.667 32.667 77.834 58.334 129.501 77.001s108.834 28 171.501 28
c128 0 228.5 -36 301.5 -108s109.5 -165.667 109.5 -281c0 -46 -11 -89.5 -33 -130.5s-50.333 -76.833 -85 -107.5c9.33301 -3.33301 18.666 -5.66602 27.999 -6.99902s24.333 -3.66602 45 -6.99902c24.667 -3.33301 48.667 -6.33301 72 -9s51.333 -4 84 -4h65v-360z
M719 611.995c0 30 -12.5 56.666 -37.5 79.999s-56.833 35 -95.5 35c-44 0 -77.5 -11.833 -100.5 -35.5s-34.5 -50.167 -34.5 -79.5c0 -25.333 15.833 -50.333 47.5 -75s61.5 -42.667 89.5 -54c34.667 16 65.167 35.833 91.5 59.5s39.5 46.834 39.5 69.501zM650 1254.99h-148
v148h148v-148zM650 -295.006h-148v148h148v-148z" />
    <glyph glyph-name="glyph1393" unicode="&#x6a3;" horiz-adv-x="2154" 
d="M2154 0l-264.001 0.00195312c-62 0 -120.333 8.5 -175 25.5s-104.667 41.167 -150 72.5c-49.333 -31.333 -102.5 -55.5 -159.5 -72.5s-113.833 -25.5 -170.5 -25.5h-291c-262 0 -463.667 49.167 -605 147.5s-212 245.833 -212 442.5c0 66 5 128.833 15 188.5l16 95.5h272
v-8c-3.33301 -14.667 -8.16602 -49.667 -14.499 -105s-9.5 -108.333 -9.5 -159c0 -75.333 48.667 -134.5 146 -177.5s228 -64.5 392 -64.5h322c-33.333 25.333 -65.333 64 -96 116s-46 102.333 -46 151c0 105.333 41.5 195.166 124.5 269.499s186.5 111.5 310.5 111.5
c123.333 0 227.5 -37 312.5 -111s127.5 -167 127.5 -279c0 -52 -18 -104.333 -54 -157s-64.333 -86.334 -85 -101.001h294v-360zM1647 468.002c16.667 20 29.667 38.834 39 56.501s14 38.167 14 61.5c0 40.667 -14.667 73.667 -44 99s-61.666 38 -96.999 38
c-38 0 -70.167 -13 -96.5 -39s-39.5 -58.667 -39.5 -98c0 -18.667 5.33301 -38.5 16 -59.5s23.667 -40.5 39 -58.5c12 -14.667 27 -29 45 -43s31.333 -22 40 -24c11.333 3.33301 25.166 11.666 41.499 24.999s30.5 27.333 42.5 42zM1631 1249h-148v148h148v-148z
M1085 -294.997h-148v148h148v-148z" />
    <glyph glyph-name="uni06A4" unicode="&#x6a4;" horiz-adv-x="2095" arabic-form="isolated" 
d="M1972 590c0 -105.333 -26.332 -195.832 -78.999 -271.499s-120.667 -136.834 -204 -183.501c-85.333 -48.667 -182.166 -84.667 -290.499 -108s-221.5 -35 -339.5 -35h-45c-298.667 0 -521.834 49.5 -669.501 148.5s-221.5 246.167 -221.5 441.5
c0 55.333 4.33301 116.166 13 182.499l14 107.5h274v-4c-2 -10 -6.66699 -49.5 -14 -118.5s-11 -120.833 -11 -155.5c0 -76 50.167 -135.333 150.5 -178s255.166 -64 464.499 -64h22c116 0 211.667 3.66699 287 11s136 18 182 32c44 13.333 78.333 29.166 103 47.499
s46 40.833 64 67.5c-8 0 -17 -0.666992 -27 -2s-23.333 -2.66602 -40 -3.99902c-16 -1.33301 -33.5 -2.66602 -52.5 -3.99902s-36.167 -2 -51.5 -2c-123.333 0 -220 33.667 -290 101s-105 155 -105 263c0 118.667 36.167 218.667 108.5 300s156.833 122 253.5 122
c136 0 254 -63.167 354 -189.5s150 -294.5 150 -504.5zM1677 772.001c-8 54 -32.165 102.669 -72.498 146.002s-78.833 65 -115.5 65c-32 0 -57.833 -11.833 -77.5 -35.5s-29.5 -50.834 -29.5 -81.501c0 -30 12 -55.167 36 -75.5s55.667 -30.5 95 -30.5
c25.333 0 57.166 1.16699 95.499 3.5s61.166 5.16602 68.499 8.49902zM1343 1526h-148v148h148v-148zM1639 1526h-148v148h148v-148zM1491 1735h-148v148h148v-148z" />
    <glyph glyph-name="glyph1398" unicode="&#x6a5;" horiz-adv-x="1110" 
d="M827 1116c49.333 -61.333 88.3311 -135.334 116.998 -222.001s43 -185.334 43 -296.001c0 -93.333 -20.833 -177.666 -62.5 -252.999s-94.5 -138 -158.5 -188c-66 -51.333 -137.667 -90.333 -215 -117s-153 -40 -227 -40h-394v360h371c90 0 169 13.667 237 41
s117.667 66.333 149 117c-13.333 -2 -37.333 -4.5 -72 -7.5s-67.667 -4.5 -99 -4.5c-62 0 -117.5 8.83301 -166.5 26.5s-91.167 43.834 -126.5 78.501c-33.333 32.667 -58.666 71 -75.999 115s-26 92 -26 144c0 114 34.833 212.833 104.5 296.5s155.5 125.5 257.5 125.5
c62.667 0 123.334 -14.5 182.001 -43.5s112.667 -73.167 162 -132.5zM691.998 779.999c-8 54 -32.165 102.669 -72.498 146.002s-78.833 65 -115.5 65c-32 0 -57.833 -11.833 -77.5 -35.5s-29.5 -50.834 -29.5 -81.501c0 -30 12 -55.167 36 -75.5s55.667 -30.5 95 -30.5
c25.333 0 57.166 1.16699 95.499 3.5s61.166 5.16602 68.499 8.49902zM361 -213.999h-148v148h148v-148zM657 -213.999h-148v148h148v-148zM509 -422.999h-148v148h148v-148z" />
    <glyph glyph-name="glyph1399" unicode="&#x6a5;" horiz-adv-x="1171" 
d="M1171 0l-139 -0.00488281c-47.333 0 -92.5 5.16699 -135.5 15.5s-83.5 23.5 -121.5 39.5c-38 16.667 -72.167 33.667 -102.5 51s-59.833 35.333 -88.5 54l-85 -53c-26.667 -16.667 -61.667 -34 -105 -52s-83 -31.667 -119 -41s-82 -14 -138 -14h-207v360h133
c55.333 0 103.166 3.33301 143.499 10s67.833 12.334 82.5 17.001c-35.333 32 -63.333 68.667 -84 110s-31 90 -31 146c0 55.333 9.16699 104.833 27.5 148.5s45.5 82.834 81.5 117.501c34.667 32.667 77.834 58.334 129.501 77.001s108.834 28 171.501 28
c128 0 228.5 -36 301.5 -108s109.5 -165.667 109.5 -281c0 -46 -11 -89.5 -33 -130.5s-50.333 -76.833 -85 -107.5c9.33301 -3.33301 18.666 -5.66602 27.999 -6.99902s24.333 -3.66602 45 -6.99902c24.667 -3.33301 48.667 -6.33301 72 -9s51.333 -4 84 -4h65v-360z
M719 611.995c0 30 -12.5 56.666 -37.5 79.999s-56.833 35 -95.5 35c-44 0 -77.5 -11.833 -100.5 -35.5s-34.5 -50.167 -34.5 -79.5c0 -25.333 15.833 -50.333 47.5 -75s61.5 -42.667 89.5 -54c34.667 16 65.167 35.833 91.5 59.5s39.5 46.834 39.5 69.501zM502 -214.006
h-148v148h148v-148zM798 -214.006h-148v148h148v-148zM650 -423.006h-148v148h148v-148z" />
    <glyph glyph-name="glyph1397" unicode="&#x6a5;" horiz-adv-x="2154" 
d="M2154 0l-264.001 0.00195312c-62 0 -120.333 8.5 -175 25.5s-104.667 41.167 -150 72.5c-49.333 -31.333 -102.5 -55.5 -159.5 -72.5s-113.833 -25.5 -170.5 -25.5h-291c-262 0 -463.667 49.167 -605 147.5s-212 245.833 -212 442.5c0 66 5 128.833 15 188.5l16 95.5h272
v-8c-3.33301 -14.667 -8.16602 -49.667 -14.499 -105s-9.5 -108.333 -9.5 -159c0 -75.333 48.667 -134.5 146 -177.5s228 -64.5 392 -64.5h322c-33.333 25.333 -65.333 64 -96 116s-46 102.333 -46 151c0 105.333 41.5 195.166 124.5 269.499s186.5 111.5 310.5 111.5
c123.333 0 227.5 -37 312.5 -111s127.5 -167 127.5 -279c0 -52 -18 -104.333 -54 -157s-64.333 -86.334 -85 -101.001h294v-360zM1647 468.002c16.667 20 29.667 38.834 39 56.501s14 38.167 14 61.5c0 40.667 -14.667 73.667 -44 99s-61.666 38 -96.999 38
c-38 0 -70.167 -13 -96.5 -39s-39.5 -58.667 -39.5 -98c0 -18.667 5.33301 -38.5 16 -59.5s23.667 -40.5 39 -58.5c12 -14.667 27 -29 45 -43s31.333 -22 40 -24c11.333 3.33301 25.166 11.666 41.499 24.999s30.5 27.333 42.5 42zM1483 -213.997h-148v148h148v-148z
M1779 -213.997h-148v148h148v-148zM1631 -422.997h-148v148h148v-148z" />
    <glyph glyph-name="uni06A6" unicode="&#x6a6;" horiz-adv-x="2095" arabic-form="isolated" 
d="M1972 590c0 -105.333 -26.332 -195.832 -78.999 -271.499s-120.667 -136.834 -204 -183.501c-85.333 -48.667 -182.166 -84.667 -290.499 -108s-221.5 -35 -339.5 -35h-45c-298.667 0 -521.834 49.5 -669.501 148.5s-221.5 246.167 -221.5 441.5
c0 55.333 4.33301 116.166 13 182.499l14 107.5h274v-4c-2 -10 -6.66699 -49.5 -14 -118.5s-11 -120.833 -11 -155.5c0 -76 50.167 -135.333 150.5 -178s255.166 -64 464.499 -64h22c116 0 211.667 3.66699 287 11s136 18 182 32c44 13.333 78.333 29.166 103 47.499
s46 40.833 64 67.5c-8 0 -17 -0.666992 -27 -2s-23.333 -2.66602 -40 -3.99902c-16 -1.33301 -33.5 -2.66602 -52.5 -3.99902s-36.167 -2 -51.5 -2c-123.333 0 -220 33.667 -290 101s-105 155 -105 263c0 118.667 36.167 218.667 108.5 300s156.833 122 253.5 122
c136 0 254 -63.167 354 -189.5s150 -294.5 150 -504.5zM1677 772.001c-8 54 -32.165 102.669 -72.498 146.002s-78.833 65 -115.5 65c-32 0 -57.833 -11.833 -77.5 -35.5s-29.5 -50.834 -29.5 -81.501c0 -30 12 -55.167 36 -75.5s55.667 -30.5 95 -30.5
c25.333 0 57.166 1.16699 95.499 3.5s61.166 5.16602 68.499 8.49902zM1589 1735h-148v148h148v-148zM1589 1526h-148v148h148v-148zM1321 1735h-148v148h148v-148zM1321 1526h-148v148h148v-148z" />
    <glyph glyph-name="glyph1405" unicode="&#x6a7;" horiz-adv-x="2165" 
d="M1702 383c-8.66699 90 -29.8311 161.667 -63.498 215s-67.834 80 -102.501 80c-36.667 0 -67.334 -14.333 -92.001 -43s-37 -63 -37 -103s29.333 -73.667 88 -101s127.667 -43.333 207 -48zM1946 16c-42 -91.333 -93.3311 -165.835 -153.998 -223.502
s-133 -102.5 -217 -134.5c-80 -30.667 -171.833 -52 -275.5 -64s-222.834 -18 -357.501 -18c-268.667 0 -472.334 50.333 -611.001 151s-208 247 -208 439c0 76.667 5.5 142.667 16.5 198l18.5 93h266v-8c-2.66699 -14 -7.5 -47.667 -14.5 -101s-10.5 -110 -10.5 -170
c0 -75.333 47.333 -134 142 -176s229 -63 403 -63c124 0 230.667 6.66699 320 20s162 28 218 44c60 18 101.167 32.667 123.5 44s35.5 18.333 39.5 21c-166.667 18.667 -294.167 70.334 -382.5 155.001s-132.5 185.667 -132.5 303c0 122.667 39.5 228.834 118.5 318.501
s174.167 134.5 285.5 134.5c119.333 0 222 -54 308 -162s137 -258 153 -450c6.66699 -1.33301 30.167 -2.83301 70.5 -4.5s70.833 -2.5 91.5 -2.5h8v-360h-4c-36.667 0 -77.667 2 -123 6s-76 7.33301 -92 10zM1525 1221h-148v148h148v-148z" />
    <glyph glyph-name="glyph1407" unicode="&#x6a8;" horiz-adv-x="2165" 
d="M1702 383c-8.66699 90 -29.8311 161.667 -63.498 215s-67.834 80 -102.501 80c-36.667 0 -67.334 -14.333 -92.001 -43s-37 -63 -37 -103s29.333 -73.667 88 -101s127.667 -43.333 207 -48zM1946 16c-42 -91.333 -93.3311 -165.835 -153.998 -223.502
s-133 -102.5 -217 -134.5c-80 -30.667 -171.833 -52 -275.5 -64s-222.834 -18 -357.501 -18c-268.667 0 -472.334 50.333 -611.001 151s-208 247 -208 439c0 76.667 5.5 142.667 16.5 198l18.5 93h266v-8c-2.66699 -14 -7.5 -47.667 -14.5 -101s-10.5 -110 -10.5 -170
c0 -75.333 47.333 -134 142 -176s229 -63 403 -63c124 0 230.667 6.66699 320 20s162 28 218 44c60 18 101.167 32.667 123.5 44s35.5 18.333 39.5 21c-166.667 18.667 -294.167 70.334 -382.5 155.001s-132.5 185.667 -132.5 303c0 122.667 39.5 228.834 118.5 318.501
s174.167 134.5 285.5 134.5c119.333 0 222 -54 308 -162s137 -258 153 -450c6.66699 -1.33301 30.167 -2.83301 70.5 -4.5s70.833 -2.5 91.5 -2.5h8v-360h-4c-36.667 0 -77.667 2 -123 6s-76 7.33301 -92 10zM1377 1221h-148v148h148v-148zM1673 1221h-148v148h148v-148z
M1525 1430h-148v148h148v-148z" />
    <glyph glyph-name="uni06A9" unicode="&#x6a9;" horiz-adv-x="2077" arabic-form="isolated" 
d="M1501 360c46 0 82.835 8.16504 110.502 24.498s41.5 36.166 41.5 59.499c0 19.333 -10.833 40.333 -32.5 63s-57.5 51 -107.5 85l-282 190c-83.333 54.667 -139 101.334 -167 140.001s-42 79.334 -42 122.001c0 59.333 24 112.333 72 159s115.333 86 202 118l721 266
v-299l-594 -194c-35.333 -11.333 -60.833 -22.833 -76.5 -34.5s-23.5 -22.167 -23.5 -31.5c0 -12 11.833 -27.333 35.5 -46s52.834 -39.334 87.501 -62.001l256 -168c70.667 -46.667 123.5 -96.5 158.5 -149.5s52.5 -115.833 52.5 -188.5c0 -124 -39.5 -224 -118.5 -300
s-179.5 -114 -301.5 -114h-535c-144.667 0 -269.834 13.5 -375.501 40.5s-192.167 65.833 -259.5 116.5c-66.667 50.667 -116.334 112.334 -149.001 185.001s-49 155.334 -49 248.001c0 64.667 5.16699 125.167 15.5 181.5s17.5 90.5 21.5 102.5h266v-10
c-4.66699 -23.333 -10.334 -60.833 -17.001 -112.5s-10 -101.5 -10 -149.5c0 -76 44.667 -135.333 134 -178s230.333 -64 423 -64h543z" />
    <glyph glyph-name="glyph1410" unicode="&#x6aa;" horiz-adv-x="2243" 
d="M2179 481c0 -212 -163.335 -351.002 -490.002 -417.002c-214 -42.667 -624.333 -64 -1231 -64h-528v360h530c973.333 0 1460 47.333 1460 142c0 48 -37.333 72 -112 72c-118 0 -335 -7 -651 -21s-555.333 -21 -718 -21c-79.333 0 -144.666 25.667 -195.999 77
c-48 48.667 -72 107.667 -72 177c0 136.667 113 272.334 339 407.001c78 46.667 212 110 402 190v-264c-298.667 -116.667 -448 -206 -448 -268c0 -36 35 -54 105 -54c142 0 349.333 6.66699 622 20s476.334 20 611.001 20c135.333 0 235.333 -38.333 300 -115
c51.333 -61.333 77 -141.666 77 -240.999z" />
    <glyph glyph-name="glyph1411" unicode="&#x6aa;" horiz-adv-x="2243" 
d="M2243 0l-196.002 -0.000976562c-89.333 0 -163.333 24.333 -222 73c-177.333 -48.667 -633 -73 -1367 -73h-528v360h530c973.333 0 1460 47.333 1460 142c0 48 -37.333 72 -112 72c-118 0 -335 -7 -651 -21s-555.333 -21 -718 -21c-79.333 0 -144.666 25.667 -195.999 77
c-48 48.667 -72 107.667 -72 177c0 136.667 113 272.334 339 407.001c78 46.667 212 110 402 190v-264c-298.667 -116.667 -448 -206 -448 -268c0 -36 35 -54 105 -54c142 0 349.333 6.66699 622 20s476.334 20 611.001 20c135.333 0 235.333 -38.333 300 -115
c51.333 -60.667 77 -141 77 -241c0 -44.667 -4.66699 -85 -14 -121h78v-360z" />
    <glyph glyph-name="glyph1409" unicode="&#x6aa;" horiz-adv-x="2543" 
d="M2543 0l-196.001 -0.000976562c-89.333 0 -163.333 24.333 -222 73c-177.333 -48.667 -633 -73 -1367 -73c-147.333 0 -333 6 -557 18l-171 360v34c274 -34.667 517.333 -52 730 -52c973.333 0 1460 47.333 1460 142c0 48 -37.333 72 -112 72
c-118 0 -334.5 -7 -649.5 -21s-553.833 -21 -716.5 -21c-79.333 0 -145 25.667 -197 77c-49.333 49.333 -74 108.333 -74 177c0 136.667 113 272.334 339 407.001c78 46.667 212 110 402 190v-264c-298.667 -116.667 -448 -206 -448 -268c0 -36 35 -54 105 -54
c142 0 349.333 6.66699 622 20s476.334 20 611.001 20c135.333 0 235.333 -38.333 300 -115c51.333 -60.667 77 -141 77 -241c0 -44.667 -4.66699 -85 -14 -121h78v-360z" />
    <glyph glyph-name="glyph1414" unicode="&#x6ab;" horiz-adv-x="1139" 
d="M1079 1288l-594.001 -193.998c-35.333 -11.333 -60.833 -22.833 -76.5 -34.5s-23.5 -22.167 -23.5 -31.5c0 -12 11.833 -27.333 35.5 -46s52.834 -39.334 87.501 -62.001l256 -168c70.667 -46.667 123.5 -96.5 158.5 -149.5s52.5 -115.833 52.5 -188.5
c0 -124 -39.5 -224 -118.5 -300s-179.5 -114 -301.5 -114h-625v360h633c46 0 82.833 8.16699 110.5 24.5s41.5 36.166 41.5 59.499c0 19.333 -10.833 40.333 -32.5 63s-57.5 51 -107.5 85l-282 190c-83.333 54.667 -139 101 -167 139s-42 79 -42 123
c0 55.333 23.667 107.333 71 156s115 89 203 121l721 266v-299zM1079 1124c0 -52.667 -18.668 -97.333 -56.001 -134s-81.666 -55 -132.999 -55c-52 0 -96.333 18.5 -133 55.5s-55 81.5 -55 133.5c0 51.333 18.5 95.5 55.5 132.5s81.167 55.5 132.5 55.5
c52 0 96.5 -18.333 133.5 -55s55.5 -81 55.5 -133zM982.998 1122c0 26.667 -9.33105 49.334 -27.998 68.001s-41.667 28 -69 28c-26.667 0 -49.334 -9.33301 -68.001 -28s-28 -41.334 -28 -68.001c0 -25.333 9.66699 -47.333 29 -66s41.666 -28 66.999 -28
c26 0 48.667 9.33301 68 28s29 40.667 29 66z" />
    <glyph glyph-name="glyph1415" unicode="&#x6ab;" horiz-adv-x="1225" 
d="M1225 0l-156.001 0.00195312c-51.333 0 -98.666 7.33301 -141.999 22s-79.333 34 -108 58c-37.333 -26.667 -76.666 -46.667 -117.999 -60s-90 -20 -146 -20h-625v360h633c46 0 82.833 8.16699 110.5 24.5s41.5 36.166 41.5 59.499c0 19.333 -10.833 40.333 -32.5 63
s-57.5 51 -107.5 85l-282 190c-83.333 54.667 -139 101 -167 139s-42 79 -42 123c0 55.333 23.667 107.333 71 156s115 89 203 121l721 266v-299l-594 -194c-35.333 -11.333 -60.833 -22.833 -76.5 -34.5s-23.5 -22.167 -23.5 -31.5c0 -12 11.833 -27.333 35.5 -46
s52.834 -39.334 87.501 -62.001l256 -168c70.667 -46.667 123.5 -96.5 158.5 -149.5s52.5 -115.833 52.5 -188.5c19.333 -18 40.166 -31.5 62.499 -40.5s47.166 -13.5 74.499 -13.5h113v-360zM1079 1124c0 -52.667 -18.668 -97.333 -56.001 -134s-81.666 -55 -132.999 -55
c-52 0 -96.333 18.5 -133 55.5s-55 81.5 -55 133.5c0 51.333 18.5 95.5 55.5 132.5s81.167 55.5 132.5 55.5c52 0 96.5 -18.333 133.5 -55s55.5 -81 55.5 -133zM982.998 1122c0 26.667 -9.33105 49.334 -27.998 68.001s-41.667 28 -69 28
c-26.667 0 -49.334 -9.33301 -68.001 -28s-28 -41.334 -28 -68.001c0 -25.333 9.66699 -47.333 29 -66s41.666 -28 66.999 -28c26 0 48.667 9.33301 68 28s29 40.667 29 66z" />
    <glyph glyph-name="glyph1418" unicode="&#x6ac;" horiz-adv-x="1139" 
d="M1079 1288l-594.001 -193.998c-35.333 -11.333 -60.833 -22.833 -76.5 -34.5s-23.5 -22.167 -23.5 -31.5c0 -12 11.833 -27.333 35.5 -46s52.834 -39.334 87.501 -62.001l256 -168c70.667 -46.667 123.5 -96.5 158.5 -149.5s52.5 -115.833 52.5 -188.5
c0 -124 -39.5 -224 -118.5 -300s-179.5 -114 -301.5 -114h-625v360h633c46 0 82.833 8.16699 110.5 24.5s41.5 36.166 41.5 59.499c0 19.333 -10.833 40.333 -32.5 63s-57.5 51 -107.5 85l-282 190c-83.333 54.667 -139 101 -167 139s-42 79 -42 123
c0 55.333 23.667 107.333 71 156s115 89 203 121l721 266v-299zM384.999 1406h-148v148h148v-148z" />
    <glyph glyph-name="glyph1419" unicode="&#x6ac;" horiz-adv-x="1225" 
d="M1225 0l-156.001 0.00195312c-51.333 0 -98.666 7.33301 -141.999 22s-79.333 34 -108 58c-37.333 -26.667 -76.666 -46.667 -117.999 -60s-90 -20 -146 -20h-625v360h633c46 0 82.833 8.16699 110.5 24.5s41.5 36.166 41.5 59.499c0 19.333 -10.833 40.333 -32.5 63
s-57.5 51 -107.5 85l-282 190c-83.333 54.667 -139 101 -167 139s-42 79 -42 123c0 55.333 23.667 107.333 71 156s115 89 203 121l721 266v-299l-594 -194c-35.333 -11.333 -60.833 -22.833 -76.5 -34.5s-23.5 -22.167 -23.5 -31.5c0 -12 11.833 -27.333 35.5 -46
s52.834 -39.334 87.501 -62.001l256 -168c70.667 -46.667 123.5 -96.5 158.5 -149.5s52.5 -115.833 52.5 -188.5c19.333 -18 40.166 -31.5 62.499 -40.5s47.166 -13.5 74.499 -13.5h113v-360zM384.999 1406h-148v148h148v-148z" />
    <glyph glyph-name="glyph1417" unicode="&#x6ac;" horiz-adv-x="1843" 
d="M1745 0c-71.333 0 -133.5 15 -186.5 45s-90.5 64 -112.5 102c-22 -38.667 -59 -72.834 -111 -102.501s-114 -44.5 -186 -44.5h-563c-66 0 -127 5.83301 -183 17.5s-104 31.5 -144 59.5c-42 28.667 -75.167 68.667 -99.5 120s-36.5 118 -36.5 200
c0 49.333 2.33301 94.333 7 135s7.66699 64.667 9 72h271v-8c-0.666992 -3.33301 -2.66699 -21.166 -6 -53.499s-5 -59.5 -5 -81.5c0 -32.667 15.5 -57.667 46.5 -75s77.833 -26 140.5 -26h518c60 0 108.833 21.333 146.5 64s56.5 100.667 56.5 174v956h278v-956
c0 -74.667 18.833 -133 56.5 -175s87.167 -63 148.5 -63h53v-360h-98zM1006 903c0 -56.667 -33.668 -101.833 -101.001 -135.5s-154.666 -50.5 -261.999 -50.5v94c77.333 0 141.666 7 192.999 21s77 34.333 77 61c0 12 -6.5 22 -19.5 30s-31.5 15 -55.5 21l-76 19
c-35.333 8 -63.666 23 -84.999 45s-32 51.333 -32 88c0 46.667 23.167 84.5 69.5 113.5s113.5 43.5 201.5 43.5v-90c-62 0 -108 -5.83301 -138 -17.5s-45 -27.5 -45 -47.5c0 -12 6.66699 -22.5 20 -31.5s32 -16.167 56 -21.5l84 -21c30 -6.66699 56.333 -19 79 -37
s34 -46 34 -84zM884.999 1406h-148v148h148v-148z" />
    <glyph glyph-name="uni06AD" unicode="&#x6ad;" horiz-adv-x="1749" arabic-form="isolated" 
d="M1465 162.5c-80 -108.333 -185.333 -162.501 -316 -162.501h-563c-66 0 -127 5.83301 -183 17.5s-104 31.5 -144 59.5c-42 28.667 -75.167 68.667 -99.5 120s-36.5 118 -36.5 200c0 49.333 2.33301 94.333 7 135s7.66699 64.667 9 72h271v-8
c-0.666992 -3.33301 -2.66699 -21.166 -6 -53.499s-5 -59.5 -5 -81.5c0 -32.667 15.5 -57.667 46.5 -75s77.833 -26 140.5 -26h518c60 0 108.833 21.333 146.5 64s56.5 100.667 56.5 174v956h278v-956c0 -182 -40 -327.167 -120 -435.5zM1006 902.999
c0 -56.667 -33.668 -101.835 -101.001 -135.502s-154.666 -50.5 -261.999 -50.5v94c77.333 0 141.666 7 192.999 21s77 34.333 77 61c0 12 -6.5 22 -19.5 30s-31.5 15 -55.5 21l-76 19c-35.333 8.66699 -63.666 23.834 -84.999 45.501s-32 50.834 -32 87.501
c0 46.667 23.167 84.5 69.5 113.5s113.5 43.5 201.5 43.5v-90c-62 0 -108 -5.83301 -138 -17.5s-45 -27.5 -45 -47.5c0 -12 6.83301 -22.333 20.5 -31s32.167 -16 55.5 -22l84 -21c30 -7.33301 56.333 -19.833 79 -37.5s34 -45.5 34 -83.5zM736.999 1406h-148v148h148v-148z
M1033 1406h-148v148h148v-148zM884.999 1615h-148v148h148v-148z" />
    <glyph glyph-name="glyph1426" unicode="&#x6ae;" horiz-adv-x="1139" 
d="M1079 1288l-594.001 -193.998c-35.333 -11.333 -60.833 -22.833 -76.5 -34.5s-23.5 -22.167 -23.5 -31.5c0 -12 11.833 -27.333 35.5 -46s52.834 -39.334 87.501 -62.001l256 -168c70.667 -46.667 123.5 -96.5 158.5 -149.5s52.5 -115.833 52.5 -188.5
c0 -124 -39.5 -224 -118.5 -300s-179.5 -114 -301.5 -114h-625v360h633c46 0 82.833 8.16699 110.5 24.5s41.5 36.166 41.5 59.499c0 19.333 -10.833 40.333 -32.5 63s-57.5 51 -107.5 85l-282 190c-83.333 54.667 -139 101 -167 139s-42 79 -42 123
c0 55.333 23.667 107.333 71 156s115 89 203 121l721 266v-299zM236.999 -213.998h-148v148h148v-148zM532.999 -213.998h-148v148h148v-148zM384.999 -422.998h-148v148h148v-148z" />
    <glyph glyph-name="glyph1427" unicode="&#x6ae;" horiz-adv-x="1225" 
d="M1225 0l-156.001 0.00195312c-51.333 0 -98.666 7.33301 -141.999 22s-79.333 34 -108 58c-37.333 -26.667 -76.666 -46.667 -117.999 -60s-90 -20 -146 -20h-625v360h633c46 0 82.833 8.16699 110.5 24.5s41.5 36.166 41.5 59.499c0 19.333 -10.833 40.333 -32.5 63
s-57.5 51 -107.5 85l-282 190c-83.333 54.667 -139 101 -167 139s-42 79 -42 123c0 55.333 23.667 107.333 71 156s115 89 203 121l721 266v-299l-594 -194c-35.333 -11.333 -60.833 -22.833 -76.5 -34.5s-23.5 -22.167 -23.5 -31.5c0 -12 11.833 -27.333 35.5 -46
s52.834 -39.334 87.501 -62.001l256 -168c70.667 -46.667 123.5 -96.5 158.5 -149.5s52.5 -115.833 52.5 -188.5c19.333 -18 40.166 -31.5 62.499 -40.5s47.166 -13.5 74.499 -13.5h113v-360zM236.999 -213.998h-148v148h148v-148zM532.999 -213.998h-148v148h148v-148z
M384.999 -422.998h-148v148h148v-148z" />
    <glyph glyph-name="glyph1425" unicode="&#x6ae;" horiz-adv-x="1843" 
d="M1745 0c-71.333 0 -133.5 15 -186.5 45s-90.5 64 -112.5 102c-22 -38.667 -59 -72.834 -111 -102.501s-114 -44.5 -186 -44.5h-563c-66 0 -127 5.83301 -183 17.5s-104 31.5 -144 59.5c-42 28.667 -75.167 68.667 -99.5 120s-36.5 118 -36.5 200
c0 49.333 2.33301 94.333 7 135s7.66699 64.667 9 72h271v-8c-0.666992 -3.33301 -2.66699 -21.166 -6 -53.499s-5 -59.5 -5 -81.5c0 -32.667 15.5 -57.667 46.5 -75s77.833 -26 140.5 -26h518c60 0 108.833 21.333 146.5 64s56.5 100.667 56.5 174v956h278v-956
c0 -74.667 18.833 -133 56.5 -175s87.167 -63 148.5 -63h53v-360h-98zM1006 903c0 -56.667 -33.668 -101.833 -101.001 -135.5s-154.666 -50.5 -261.999 -50.5v94c77.333 0 141.666 7 192.999 21s77 34.333 77 61c0 12 -6.5 22 -19.5 30s-31.5 15 -55.5 21l-76 19
c-35.333 8 -63.666 23 -84.999 45s-32 51.333 -32 88c0 46.667 23.167 84.5 69.5 113.5s113.5 43.5 201.5 43.5v-90c-62 0 -108 -5.83301 -138 -17.5s-45 -27.5 -45 -47.5c0 -12 6.66699 -22.5 20 -31.5s32 -16.167 56 -21.5l84 -21c30 -6.66699 56.333 -19 79 -37
s34 -46 34 -84zM736.999 -213.999h-148v148h148v-148zM1033 -213.999h-148v148h148v-148zM884.999 -422.999h-148v148h148v-148z" />
    <glyph glyph-name="uni06AF" unicode="&#x6af;" horiz-adv-x="2077" arabic-form="isolated" 
d="M1501 360c46 0 82.835 8.16504 110.502 24.498s41.5 36.166 41.5 59.499c0 19.333 -10.833 40.333 -32.5 63s-57.5 51 -107.5 85l-282 190c-83.333 54.667 -139 101.334 -167 140.001s-42 79.334 -42 122.001c0 59.333 24 112.333 72 159s115.333 86 202 118l721 266
v-299l-594 -194c-35.333 -11.333 -60.833 -22.833 -76.5 -34.5s-23.5 -22.167 -23.5 -31.5c0 -12 11.833 -27.333 35.5 -46s52.834 -39.334 87.501 -62.001l256 -168c70.667 -46.667 123.5 -96.5 158.5 -149.5s52.5 -115.833 52.5 -188.5c0 -124 -39.5 -224 -118.5 -300
s-179.5 -114 -301.5 -114h-535c-144.667 0 -269.834 13.5 -375.501 40.5s-192.167 65.833 -259.5 116.5c-66.667 50.667 -116.334 112.334 -149.001 185.001s-49 155.334 -49 248.001c0 64.667 5.16699 125.167 15.5 181.5s17.5 90.5 21.5 102.5h266v-10
c-4.66699 -23.333 -10.334 -60.833 -17.001 -112.5s-10 -101.5 -10 -149.5c0 -76 44.667 -135.333 134 -178s230.333 -64 423 -64h543zM2003 1681l-791 -290v100l791 291v-101z" />
    <glyph glyph-name="glyph1430" unicode="&#x6b0;" horiz-adv-x="1139" 
d="M1079 1288l-594.001 -193.998c-35.333 -11.333 -60.833 -22.833 -76.5 -34.5s-23.5 -22.167 -23.5 -31.5c0 -12 11.833 -27.333 35.5 -46s52.834 -39.334 87.501 -62.001l256 -168c70.667 -46.667 123.5 -96.5 158.5 -149.5s52.5 -115.833 52.5 -188.5
c0 -124 -39.5 -224 -118.5 -300s-179.5 -114 -301.5 -114h-625v360h633c46 0 82.833 8.16699 110.5 24.5s41.5 36.166 41.5 59.499c0 19.333 -10.833 40.333 -32.5 63s-57.5 51 -107.5 85l-282 190c-83.333 54.667 -139 101 -167 139s-42 79 -42 123
c0 55.333 23.667 107.333 71 156s115 89 203 121l721 266v-299zM1065 1681l-791 -290v100l791 291v-101zM1079 1124c0 -52.667 -18.668 -97.333 -56.001 -134s-81.666 -55 -132.999 -55c-52 0 -96.333 18.5 -133 55.5s-55 81.5 -55 133.5c0 51.333 18.5 95.5 55.5 132.5
s81.167 55.5 132.5 55.5c52 0 96.5 -18.333 133.5 -55s55.5 -81 55.5 -133zM982.998 1122c0 26.667 -9.33105 49.334 -27.998 68.001s-41.667 28 -69 28c-26.667 0 -49.334 -9.33301 -68.001 -28s-28 -41.334 -28 -68.001c0 -25.333 9.66699 -47.333 29 -66
s41.666 -28 66.999 -28c26 0 48.667 9.33301 68 28s29 40.667 29 66z" />
    <glyph glyph-name="glyph1431" unicode="&#x6b0;" horiz-adv-x="1225" 
d="M1225 0l-155 0.00292969c-53.333 0 -101.5 7.5 -144.5 22.5s-78.167 34.167 -105.5 57.5c-37.333 -26.667 -76.666 -46.667 -117.999 -60s-90 -20 -146 -20h-626v360h634c46 0 82.833 8.16699 110.5 24.5s41.5 36.166 41.5 59.499c0 19.333 -10.833 40.5 -32.5 63.5
s-57.5 51.167 -107.5 84.5l-282 190c-82.667 55.333 -138.167 102.166 -166.5 140.499s-42.5 78.833 -42.5 121.5c0 59.333 24 112.333 72 159s115.333 86 202 118l721 266v-299l-594 -194c-33.333 -10.667 -58.333 -22 -75 -34s-25 -22.667 -25 -32
c0 -12 11.833 -27.333 35.5 -46s52.834 -39.334 87.501 -62.001l256 -168c70.667 -46.667 123.5 -96.5 158.5 -149.5s52.5 -115.833 52.5 -188.5c19.333 -18 40.166 -31.5 62.499 -40.5s47.166 -13.5 74.499 -13.5h112v-360zM1066 1681l-791 -290v100l791 291v-101z
M1079 1124c0 -52.667 -18.668 -97.333 -56.001 -134s-81.666 -55 -132.999 -55c-52 0 -96.333 18.5 -133 55.5s-55 81.5 -55 133.5c0 51.333 18.5 95.5 55.5 132.5s81.167 55.5 132.5 55.5c52 0 96.5 -18.333 133.5 -55s55.5 -81 55.5 -133zM982.999 1122
c0 26.667 -9.33105 49.334 -27.998 68.001s-41.667 28 -69 28c-26.667 0 -49.334 -9.33301 -68.001 -28s-28 -41.334 -28 -68.001c0 -25.333 9.66699 -47.333 29 -66s41.666 -28 66.999 -28c26 0 48.667 9.33301 68 28s29 40.667 29 66z" />
    <glyph glyph-name="glyph1429" unicode="&#x6b0;" horiz-adv-x="2163" 
d="M1501 360c46 0 82.8359 8.16504 110.503 24.498s41.5 36.166 41.5 59.499c0 19.333 -10.833 40.333 -32.5 63s-57.5 51 -107.5 85l-282 190c-83.333 54.667 -139 101.334 -167 140.001s-42 79.334 -42 122.001c0 59.333 24 112.333 72 159s115.333 86 202 118l721 266
v-299l-594 -194c-35.333 -11.333 -60.833 -22.833 -76.5 -34.5s-23.5 -22.167 -23.5 -31.5c0 -12 11.833 -27.333 35.5 -46s52.834 -39.334 87.501 -62.001l256 -168c70.667 -46.667 123.5 -96.5 158.5 -149.5s52.5 -115.833 52.5 -188.5
c19.333 -18 40.166 -31.5 62.499 -40.5s47.166 -13.5 74.499 -13.5h113v-360h-156c-53.333 0 -101.5 7.5 -144.5 22.5s-78.167 34.167 -105.5 57.5c-37.333 -26.667 -76.666 -46.667 -117.999 -60s-90 -20 -146 -20h-535c-144.667 0 -269.834 13.5 -375.501 40.5
s-192.167 65.833 -259.5 116.5c-66.667 50.667 -116.334 112.334 -149.001 185.001s-49 155.334 -49 248.001c0 64.667 5.16699 125.167 15.5 181.5s17.5 90.5 21.5 102.5h266v-10c-4.66699 -23.333 -10.334 -60.833 -17.001 -112.5s-10 -101.5 -10 -149.5
c0 -76 44.667 -135.333 134 -178s230.333 -64 423 -64h543zM2003 1681l-791 -290v100l791 291v-101zM2017 1124c0 -52.667 -18.668 -97.333 -56.001 -134s-81.666 -55 -132.999 -55c-52 0 -96.333 18.5 -133 55.5s-55 81.5 -55 133.5c0 51.333 18.5 95.5 55.5 132.5
s81.167 55.5 132.5 55.5c52 0 96.5 -18.333 133.5 -55s55.5 -81 55.5 -133zM1921 1122c0 26.667 -9.33105 49.334 -27.998 68.001s-41.667 28 -69 28c-26.667 0 -49.334 -9.33301 -68.001 -28s-28 -41.334 -28 -68.001c0 -25.333 9.66699 -47.333 29 -66
s41.666 -28 66.999 -28c26 0 48.667 9.33301 68 28s29 40.667 29 66z" />
    <glyph glyph-name="uni06B1" unicode="&#x6b1;" horiz-adv-x="2077" arabic-form="isolated" 
d="M1501 360c46 0 82.835 8.16504 110.502 24.498s41.5 36.166 41.5 59.499c0 19.333 -10.833 40.333 -32.5 63s-57.5 51 -107.5 85l-282 190c-83.333 54.667 -139 101.334 -167 140.001s-42 79.334 -42 122.001c0 59.333 24 112.333 72 159s115.333 86 202 118l721 266
v-299l-594 -194c-35.333 -11.333 -60.833 -22.833 -76.5 -34.5s-23.5 -22.167 -23.5 -31.5c0 -12 11.833 -27.333 35.5 -46s52.834 -39.334 87.501 -62.001l256 -168c70.667 -46.667 123.5 -96.5 158.5 -149.5s52.5 -115.833 52.5 -188.5c0 -124 -39.5 -224 -118.5 -300
s-179.5 -114 -301.5 -114h-535c-144.667 0 -269.834 13.5 -375.501 40.5s-192.167 65.833 -259.5 116.5c-66.667 50.667 -116.334 112.334 -149.001 185.001s-49 155.334 -49 248.001c0 64.667 5.16699 125.167 15.5 181.5s17.5 90.5 21.5 102.5h266v-10
c-4.66699 -23.333 -10.334 -60.833 -17.001 -112.5s-10 -101.5 -10 -149.5c0 -76 44.667 -135.333 134 -178s230.333 -64 423 -64h543zM2003 1681l-791 -290v100l791 291v-101zM1551 1734h-148v148h148v-148zM1819 1734h-148v148h148v-148z" />
    <glyph glyph-name="glyph1438" unicode="&#x6b2;" horiz-adv-x="1139" 
d="M1079 1288l-594.001 -193.998c-35.333 -11.333 -60.833 -22.833 -76.5 -34.5s-23.5 -22.167 -23.5 -31.5c0 -12 11.833 -27.333 35.5 -46s52.834 -39.334 87.501 -62.001l256 -168c70.667 -46.667 123.5 -96.5 158.5 -149.5s52.5 -115.833 52.5 -188.5
c0 -124 -39.5 -224 -118.5 -300s-179.5 -114 -301.5 -114h-625v360h633c46 0 82.833 8.16699 110.5 24.5s41.5 36.166 41.5 59.499c0 19.333 -10.833 40.333 -32.5 63s-57.5 51 -107.5 85l-282 190c-83.333 54.667 -139 101 -167 139s-42 79 -42 123
c0 55.333 23.667 107.333 71 156s115 89 203 121l721 266v-299zM1065 1681l-791 -290v100l791 291v-101zM250.999 -294.998h-148v148h148v-148zM518.999 -294.998h-148v148h148v-148z" />
    <glyph glyph-name="glyph1439" unicode="&#x6b2;" horiz-adv-x="1225" 
d="M1225 0l-155 0.00292969c-53.333 0 -101.5 7.5 -144.5 22.5s-78.167 34.167 -105.5 57.5c-37.333 -26.667 -76.666 -46.667 -117.999 -60s-90 -20 -146 -20h-626v360h634c46 0 82.833 8.16699 110.5 24.5s41.5 36.166 41.5 59.499c0 19.333 -10.833 40.5 -32.5 63.5
s-57.5 51.167 -107.5 84.5l-282 190c-82.667 55.333 -138.167 102.166 -166.5 140.499s-42.5 78.833 -42.5 121.5c0 59.333 24 112.333 72 159s115.333 86 202 118l721 266v-299l-594 -194c-33.333 -10.667 -58.333 -22 -75 -34s-25 -22.667 -25 -32
c0 -12 11.833 -27.333 35.5 -46s52.834 -39.334 87.501 -62.001l256 -168c70.667 -46.667 123.5 -96.5 158.5 -149.5s52.5 -115.833 52.5 -188.5c19.333 -18 40.166 -31.5 62.499 -40.5s47.166 -13.5 74.499 -13.5h112v-360zM1066 1681l-791 -290v100l791 291v-101z
M251 -294.997h-148v148h148v-148zM519 -294.997h-148v148h148v-148z" />
    <glyph glyph-name="glyph1437" unicode="&#x6b2;" horiz-adv-x="2163" 
d="M1501 360c46 0 82.8359 8.16504 110.503 24.498s41.5 36.166 41.5 59.499c0 19.333 -10.833 40.333 -32.5 63s-57.5 51 -107.5 85l-282 190c-83.333 54.667 -139 101.334 -167 140.001s-42 79.334 -42 122.001c0 59.333 24 112.333 72 159s115.333 86 202 118l721 266
v-299l-594 -194c-35.333 -11.333 -60.833 -22.833 -76.5 -34.5s-23.5 -22.167 -23.5 -31.5c0 -12 11.833 -27.333 35.5 -46s52.834 -39.334 87.501 -62.001l256 -168c70.667 -46.667 123.5 -96.5 158.5 -149.5s52.5 -115.833 52.5 -188.5
c19.333 -18 40.166 -31.5 62.499 -40.5s47.166 -13.5 74.499 -13.5h113v-360h-156c-53.333 0 -101.5 7.5 -144.5 22.5s-78.167 34.167 -105.5 57.5c-37.333 -26.667 -76.666 -46.667 -117.999 -60s-90 -20 -146 -20h-535c-144.667 0 -269.834 13.5 -375.501 40.5
s-192.167 65.833 -259.5 116.5c-66.667 50.667 -116.334 112.334 -149.001 185.001s-49 155.334 -49 248.001c0 64.667 5.16699 125.167 15.5 181.5s17.5 90.5 21.5 102.5h266v-10c-4.66699 -23.333 -10.334 -60.833 -17.001 -112.5s-10 -101.5 -10 -149.5
c0 -76 44.667 -135.333 134 -178s230.333 -64 423 -64h543zM2003 1681l-791 -290v100l791 291v-101zM1151 -295.002h-148v148h148v-148zM1419 -295.002h-148v148h148v-148z" />
    <glyph glyph-name="uni06B3" unicode="&#x6b3;" horiz-adv-x="2077" arabic-form="isolated" 
d="M1501 360c46 0 82.835 8.16504 110.502 24.498s41.5 36.166 41.5 59.499c0 19.333 -10.833 40.333 -32.5 63s-57.5 51 -107.5 85l-282 190c-83.333 54.667 -139 101.334 -167 140.001s-42 79.334 -42 122.001c0 59.333 24 112.333 72 159s115.333 86 202 118l721 266
v-299l-594 -194c-35.333 -11.333 -60.833 -22.833 -76.5 -34.5s-23.5 -22.167 -23.5 -31.5c0 -12 11.833 -27.333 35.5 -46s52.834 -39.334 87.501 -62.001l256 -168c70.667 -46.667 123.5 -96.5 158.5 -149.5s52.5 -115.833 52.5 -188.5c0 -124 -39.5 -224 -118.5 -300
s-179.5 -114 -301.5 -114h-535c-144.667 0 -269.834 13.5 -375.501 40.5s-192.167 65.833 -259.5 116.5c-66.667 50.667 -116.334 112.334 -149.001 185.001s-49 155.334 -49 248.001c0 64.667 5.16699 125.167 15.5 181.5s17.5 90.5 21.5 102.5h266v-10
c-4.66699 -23.333 -10.334 -60.833 -17.001 -112.5s-10 -101.5 -10 -149.5c0 -76 44.667 -135.333 134 -178s230.333 -64 423 -64h543zM2003 1681l-791 -290v100l791 291v-101zM1285 -211.002h-148v148h148v-148zM1285 -420.002h-148v148h148v-148z" />
    <glyph glyph-name="glyph1446" unicode="&#x6b4;" horiz-adv-x="1139" 
d="M1079 1288l-594.001 -193.998c-35.333 -11.333 -60.833 -22.833 -76.5 -34.5s-23.5 -22.167 -23.5 -31.5c0 -12 11.833 -27.333 35.5 -46s52.834 -39.334 87.501 -62.001l256 -168c70.667 -46.667 123.5 -96.5 158.5 -149.5s52.5 -115.833 52.5 -188.5
c0 -124 -39.5 -224 -118.5 -300s-179.5 -114 -301.5 -114h-625v360h633c46 0 82.833 8.16699 110.5 24.5s41.5 36.166 41.5 59.499c0 19.333 -10.833 40.333 -32.5 63s-57.5 51 -107.5 85l-282 190c-83.333 54.667 -139 101 -167 139s-42 79 -42 123
c0 55.333 23.667 107.333 71 156s115 89 203 121l721 266v-299zM1065 1681l-791 -290v100l791 291v-101zM336.999 1690h-148v148h148v-148zM632.999 1690h-148v148h148v-148zM484.999 1899h-148v148h148v-148z" />
    <glyph glyph-name="glyph1447" unicode="&#x6b4;" horiz-adv-x="1225" 
d="M1225 0l-155 0.00292969c-53.333 0 -101.5 7.5 -144.5 22.5s-78.167 34.167 -105.5 57.5c-37.333 -26.667 -76.666 -46.667 -117.999 -60s-90 -20 -146 -20h-626v360h634c46 0 82.833 8.16699 110.5 24.5s41.5 36.166 41.5 59.499c0 19.333 -10.833 40.5 -32.5 63.5
s-57.5 51.167 -107.5 84.5l-282 190c-82.667 55.333 -138.167 102.166 -166.5 140.499s-42.5 78.833 -42.5 121.5c0 59.333 24 112.333 72 159s115.333 86 202 118l721 266v-299l-594 -194c-33.333 -10.667 -58.333 -22 -75 -34s-25 -22.667 -25 -32
c0 -12 11.833 -27.333 35.5 -46s52.834 -39.334 87.501 -62.001l256 -168c70.667 -46.667 123.5 -96.5 158.5 -149.5s52.5 -115.833 52.5 -188.5c19.333 -18 40.166 -31.5 62.499 -40.5s47.166 -13.5 74.499 -13.5h112v-360zM1066 1681l-791 -290v100l791 291v-101z
M337 1690h-148v148h148v-148zM633 1690h-148v148h148v-148zM485 1899h-148v148h148v-148z" />
    <glyph glyph-name="glyph1445" unicode="&#x6b4;" horiz-adv-x="2163" 
d="M1501 360c46 0 82.8359 8.16504 110.503 24.498s41.5 36.166 41.5 59.499c0 19.333 -10.833 40.333 -32.5 63s-57.5 51 -107.5 85l-282 190c-83.333 54.667 -139 101.334 -167 140.001s-42 79.334 -42 122.001c0 59.333 24 112.333 72 159s115.333 86 202 118l721 266
v-299l-594 -194c-35.333 -11.333 -60.833 -22.833 -76.5 -34.5s-23.5 -22.167 -23.5 -31.5c0 -12 11.833 -27.333 35.5 -46s52.834 -39.334 87.501 -62.001l256 -168c70.667 -46.667 123.5 -96.5 158.5 -149.5s52.5 -115.833 52.5 -188.5
c19.333 -18 40.166 -31.5 62.499 -40.5s47.166 -13.5 74.499 -13.5h113v-360h-156c-53.333 0 -101.5 7.5 -144.5 22.5s-78.167 34.167 -105.5 57.5c-37.333 -26.667 -76.666 -46.667 -117.999 -60s-90 -20 -146 -20h-535c-144.667 0 -269.834 13.5 -375.501 40.5
s-192.167 65.833 -259.5 116.5c-66.667 50.667 -116.334 112.334 -149.001 185.001s-49 155.334 -49 248.001c0 64.667 5.16699 125.167 15.5 181.5s17.5 90.5 21.5 102.5h266v-10c-4.66699 -23.333 -10.334 -60.833 -17.001 -112.5s-10 -101.5 -10 -149.5
c0 -76 44.667 -135.333 134 -178s230.333 -64 423 -64h543zM2003 1681l-791 -290v100l791 291v-101zM1337 1690h-148v148h148v-148zM1633 1690h-148v148h148v-148zM1485 1899h-148v148h148v-148z" />
    <glyph glyph-name="glyph1450" unicode="&#x6b5;" horiz-adv-x="698" 
d="M537 598c0 -175.333 -38.833 -318.833 -116.5 -430.5s-185.167 -167.5 -322.5 -167.5h-168v360h123c28 0 54.5 4.83301 79.5 14.5s46.5 24.167 64.5 43.5c20 21.333 35.167 45.833 45.5 73.5s15.5 63.167 15.5 106.5v956h279v-956zM591 1945l-127 -286h-98l-127 286h107
l69 -189l69 189h107z" />
    <glyph glyph-name="glyph1451" unicode="&#x6b5;" horiz-adv-x="797" 
d="M797 0l-103 -0.000976562c-70.667 0 -132.667 15 -186 45s-91 64 -113 102c-28 -45.333 -67.5 -81.166 -118.5 -107.499s-110.5 -39.5 -178.5 -39.5h-168v360h123c59.333 0 108 20.5 146 61.5s57 99.833 57 176.5v956h279v-956c0 -71.333 18 -128.833 54 -172.5
s86 -65.5 150 -65.5h58v-360zM591 1945l-127 -286h-98l-127 286h107l69 -189l69 189h107z" />
    <glyph glyph-name="glyph1449" unicode="&#x6b5;" horiz-adv-x="1675" 
d="M1675 0l-97.999 0.00292969c-38.667 0 -72.834 3.66699 -102.501 11s-49.5 14.666 -59.5 21.999c-12.667 -146 -78 -258.667 -196 -338s-282.667 -119 -494 -119c-218.667 0 -373.667 39.667 -465 119s-137 214.333 -137 405c0 71.333 5 144.166 15 218.499
s15.333 114.166 16 119.499h272v-8c-2 -14 -7 -58.333 -15 -133s-12 -139.667 -12 -195c0 -60.667 26.667 -103.334 80 -128.001s136 -37 248 -37c134 0 236.167 16.333 306.5 49s105.5 78.334 105.5 137.001v1431h278v-956c0 -70.667 18.167 -128 54.5 -172
s86.5 -66 150.5 -66h53v-360zM1461 1945l-127 -286h-98l-127 286h107l69 -189l69 189h107z" />
    <glyph glyph-name="glyph1454" unicode="&#x6b6;" horiz-adv-x="698" 
d="M537 598c0 -175.333 -38.833 -318.833 -116.5 -430.5s-185.167 -167.5 -322.5 -167.5h-168v360h123c28 0 54.5 4.83301 79.5 14.5s46.5 24.167 64.5 43.5c20 21.333 35.167 45.833 45.5 73.5s15.5 63.167 15.5 106.5v956h279v-956zM485 1659h-148v148h148v-148z" />
    <glyph glyph-name="glyph1455" unicode="&#x6b6;" horiz-adv-x="797" 
d="M797 0l-103 -0.000976562c-70.667 0 -132.667 15 -186 45s-91 64 -113 102c-28 -45.333 -67.5 -81.166 -118.5 -107.499s-110.5 -39.5 -178.5 -39.5h-168v360h123c59.333 0 108 20.5 146 61.5s57 99.833 57 176.5v956h279v-956c0 -71.333 18 -128.833 54 -172.5
s86 -65.5 150 -65.5h58v-360zM485 1659h-148v148h148v-148z" />
    <glyph glyph-name="glyph1453" unicode="&#x6b6;" horiz-adv-x="1675" 
d="M1675 0l-97.999 0.00292969c-38.667 0 -72.834 3.66699 -102.501 11s-49.5 14.666 -59.5 21.999c-12.667 -146 -78 -258.667 -196 -338s-282.667 -119 -494 -119c-218.667 0 -373.667 39.667 -465 119s-137 214.333 -137 405c0 71.333 5 144.166 15 218.499
s15.333 114.166 16 119.499h272v-8c-2 -14 -7 -58.333 -15 -133s-12 -139.667 -12 -195c0 -60.667 26.667 -103.334 80 -128.001s136 -37 248 -37c134 0 236.167 16.333 306.5 49s105.5 78.334 105.5 137.001v1431h278v-956c0 -70.667 18.167 -128 54.5 -172
s86.5 -66 150.5 -66h53v-360zM1355 1659h-148v148h148v-148z" />
    <glyph glyph-name="glyph1458" unicode="&#x6b7;" horiz-adv-x="698" 
d="M537 598c0 -175.333 -38.833 -318.833 -116.5 -430.5s-185.167 -167.5 -322.5 -167.5h-168v360h123c28 0 54.5 4.83301 79.5 14.5s46.5 24.167 64.5 43.5c20 21.333 35.167 45.833 45.5 73.5s15.5 63.167 15.5 106.5v956h279v-956zM337 1659h-148v148h148v-148zM633 1659
h-148v148h148v-148zM485 1868h-148v148h148v-148z" />
    <glyph glyph-name="glyph1459" unicode="&#x6b7;" horiz-adv-x="797" 
d="M797 0l-103 -0.000976562c-70.667 0 -132.667 15 -186 45s-91 64 -113 102c-28 -45.333 -67.5 -81.166 -118.5 -107.499s-110.5 -39.5 -178.5 -39.5h-168v360h123c59.333 0 108 20.5 146 61.5s57 99.833 57 176.5v956h279v-956c0 -71.333 18 -128.833 54 -172.5
s86 -65.5 150 -65.5h58v-360zM337 1659h-148v148h148v-148zM633 1659h-148v148h148v-148zM485 1868h-148v148h148v-148z" />
    <glyph glyph-name="glyph1457" unicode="&#x6b7;" horiz-adv-x="1675" 
d="M1675 0l-97.999 0.00292969c-38.667 0 -72.834 3.66699 -102.501 11s-49.5 14.666 -59.5 21.999c-12.667 -146 -78 -258.667 -196 -338s-282.667 -119 -494 -119c-218.667 0 -373.667 39.667 -465 119s-137 214.333 -137 405c0 71.333 5 144.166 15 218.499
s15.333 114.166 16 119.499h272v-8c-2 -14 -7 -58.333 -15 -133s-12 -139.667 -12 -195c0 -60.667 26.667 -103.334 80 -128.001s136 -37 248 -37c134 0 236.167 16.333 306.5 49s105.5 78.334 105.5 137.001v1431h278v-956c0 -70.667 18.167 -128 54.5 -172
s86.5 -66 150.5 -66h53v-360zM1207 1659h-148v148h148v-148zM1503 1659h-148v148h148v-148zM1355 1868h-148v148h148v-148z" />
    <glyph glyph-name="glyph1462" unicode="&#x6b8;" horiz-adv-x="698" 
d="M537 598c0 -175.333 -38.833 -318.833 -116.5 -430.5s-185.167 -167.5 -322.5 -167.5h-168v360h123c28 0 54.5 4.83301 79.5 14.5s46.5 24.167 64.5 43.5c20 21.333 35.167 45.833 45.5 73.5s15.5 63.167 15.5 106.5v956h279v-956zM237 -214h-148v148h148v-148zM533 -214
h-148v148h148v-148zM385 -423h-148v148h148v-148z" />
    <glyph glyph-name="glyph1463" unicode="&#x6b8;" horiz-adv-x="797" 
d="M797 0l-103 -0.000976562c-70.667 0 -132.667 15 -186 45s-91 64 -113 102c-28 -45.333 -67.5 -81.166 -118.5 -107.499s-110.5 -39.5 -178.5 -39.5h-168v360h123c59.333 0 108 20.5 146 61.5s57 99.833 57 176.5v956h279v-956c0 -71.333 18 -128.833 54 -172.5
s86 -65.5 150 -65.5h58v-360zM337 -214.001h-148v148h148v-148zM633 -214.001h-148v148h148v-148zM485 -423.001h-148v148h148v-148z" />
    <glyph glyph-name="glyph1461" unicode="&#x6b8;" horiz-adv-x="1675" 
d="M1675 0h-98.001c-137.333 0 -227.333 50.667 -270 152c-111.333 -137.333 -305.333 -206 -582 -206c-207.333 0 -356.333 35 -447 105c-103.333 80 -155 219.667 -155 419c0 70.667 10.333 183.334 31 338.001h272v-8c-18 -126 -27 -235.333 -27 -328
c0 -71.333 40 -119.333 120 -144c46 -14 115.333 -21 208 -21c274.667 0 412 62 412 186v1061h278v-956c0 -68.667 16.667 -124.334 50 -167.001c36.667 -47.333 88.334 -71 155.001 -71h53v-360zM944.999 -234h-148v148h148v-148zM648.999 -234h-148v148h148v-148z
M796.999 -423h-148v148h148v-148z" />
    <glyph glyph-name="glyph1466" unicode="&#x6b9;" horiz-adv-x="698" 
d="M537 598c0 -183.333 -40.167 -328.833 -120.5 -436.5s-186.5 -161.5 -318.5 -161.5h-168v360h123c62 0 111.667 21 149 63s56 100.333 56 175v293h279v-293zM474 1135h-148v148h148v-148zM474 -295h-148v148h148v-148z" />
    <glyph glyph-name="glyph1467" unicode="&#x6b9;" horiz-adv-x="793" 
d="M793 0l-99 -0.000976562c-70.667 0 -132.667 15 -186 45s-91 64 -113 102c-28 -45.333 -67.5 -81.166 -118.5 -107.499s-110.5 -39.5 -178.5 -39.5h-168v360h123c59.333 0 108 20.5 146 61.5s57 99.833 57 176.5v123h279v-123c0 -71.333 18 -128.833 54 -172.5
s86 -65.5 150 -65.5h54v-360zM465 962.999h-148v148h148v-148zM465 -295.001h-148v148h148v-148z" />
    <glyph glyph-name="glyph1465" unicode="&#x6b9;" horiz-adv-x="1729" 
d="M870 1017h-147v148h147v-148zM1728 0c-114 0 -189.333 5.00098 -226 15.001c-42 11.333 -78 42.333 -108 93c-39.333 -104 -112 -185.333 -218 -244s-232.333 -88 -379 -88c-449.333 0 -674 209.667 -674 629c0 148 12.333 271.333 37 370h282v-8
c-28.667 -110 -43 -231.333 -43 -364c0 -176 131.333 -264 394 -264c266 0 399 88 399 264c0 171.333 -10.333 292.666 -31 363.999v8h309c0 -276.667 49 -415 147 -415h111v-360zM870 -422.999h-147v148h147v-148z" />
    <glyph glyph-name="uni06BA" unicode="&#x6ba;" horiz-adv-x="1591" arabic-form="isolated" 
d="M1468 633c0 -110 -17.8311 -205.335 -53.498 -286.002s-83.834 -146.334 -144.501 -197.001c-62 -51.333 -133 -89.166 -213 -113.499s-166.667 -36.5 -260 -36.5c-90.667 0 -177.5 12.333 -260.5 37s-154.5 62.334 -214.5 113.001c-62 52 -110.667 118 -146 198
s-53 175 -53 285c0 69.333 5.83301 150 17.5 242l19.5 153h282v-8c-3.33301 -12 -11.333 -59.667 -24 -143s-19 -165.333 -19 -246c0 -83.333 41.167 -149.333 123.5 -198s172.5 -73 270.5 -73c99.333 0 190.666 24 273.999 72s125 114.333 125 199
c0 81.333 -5.66699 160.833 -17 238.5s-20 127.834 -26 150.501v8h278c4.66699 -24 12.667 -82.333 24 -175s17 -166 17 -220z" />
    <glyph glyph-name="uni06BB" unicode="&#x6bb;" horiz-adv-x="1591" arabic-form="isolated" 
d="M1468 633c0 -110 -17.8311 -205.335 -53.498 -286.002s-83.834 -146.334 -144.501 -197.001c-62 -51.333 -133 -89.166 -213 -113.499s-166.667 -36.5 -260 -36.5c-90.667 0 -177.5 12.333 -260.5 37s-154.5 62.334 -214.5 113.001c-62 52 -110.667 118 -146 198
s-53 175 -53 285c0 69.333 5.83301 150 17.5 242l19.5 153h282v-8c-3.33301 -12 -11.333 -59.667 -24 -143s-19 -165.333 -19 -246c0 -83.333 41.167 -149.333 123.5 -198s172.5 -73 270.5 -73c99.333 0 190.666 24 273.999 72s125 114.333 125 199
c0 81.333 -5.66699 160.833 -17 238.5s-20 127.834 -26 150.501v8h278c4.66699 -24 12.667 -82.333 24 -175s17 -166 17 -220zM1067 1368c0 -59.333 -29.332 -103.667 -87.999 -133c-44.667 -22 -98 -33 -160 -33h-289v92h82c14 10.667 21 18.667 21 24v500h83v-397
c69.333 75.333 132.666 113 189.999 113c47.333 0 86 -15.667 116 -47s45 -71 45 -119zM983.003 1366c0 21.333 -7.5 39.5 -22.5 54.5s-33.5 22.5 -55.5 22.5c-48 0 -107.667 -49.667 -179 -149h48c139.333 0 209 24 209 72z" />
    <glyph glyph-name="glyph1472" unicode="&#x6bc;" horiz-adv-x="698" 
d="M537 598c0 -183.333 -40.167 -328.833 -120.5 -436.5s-186.5 -161.5 -318.5 -161.5h-168v360h123c62 0 111.667 21 149 63s56 100.333 56 175v293h279v-293zM474 1135h-148v148h148v-148zM406 -82c0 -52.667 -18.668 -97.333 -56.001 -134s-81.666 -55 -132.999 -55
c-52 0 -96.333 18.5 -133 55.5s-55 81.5 -55 133.5c0 51.333 18.5 95.5 55.5 132.5s81.167 55.5 132.5 55.5c52 0 96.5 -18.333 133.5 -55s55.5 -81 55.5 -133zM309.999 -83.999c0 26.667 -9.33105 49.334 -27.998 68.001s-41.667 28 -69 28
c-26.667 0 -49.334 -9.33301 -68.001 -28s-28 -41.334 -28 -68.001c0 -25.333 9.66699 -47.333 29 -66s41.666 -28 66.999 -28c26 0 48.667 9.33301 68 28s29 40.667 29 66z" />
    <glyph glyph-name="glyph1473" unicode="&#x6bc;" horiz-adv-x="793" 
d="M793 0l-99 -0.000976562c-70.667 0 -132.667 15 -186 45s-91 64 -113 102c-28 -45.333 -67.5 -81.166 -118.5 -107.499s-110.5 -39.5 -178.5 -39.5h-168v360h123c59.333 0 108 20.5 146 61.5s57 99.833 57 176.5v123h279v-123c0 -71.333 18 -128.833 54 -172.5
s86 -65.5 150 -65.5h54v-360zM474 962.999h-148v148h148v-148zM406 -82.001c0 -52.667 -18.668 -97.333 -56.001 -134s-81.666 -55 -132.999 -55c-52 0 -96.333 18.5 -133 55.5s-55 81.5 -55 133.5c0 51.333 18.5 95.5 55.5 132.5s81.167 55.5 132.5 55.5
c52 0 96.5 -18.333 133.5 -55s55.5 -81 55.5 -133zM309.999 -84c0 26.667 -9.33105 49.334 -27.998 68.001s-41.667 28 -69 28c-26.667 0 -49.334 -9.33301 -68.001 -28s-28 -41.334 -28 -68.001c0 -25.333 9.66699 -47.333 29 -66s41.666 -28 66.999 -28
c26 0 48.667 9.33301 68 28s29 40.667 29 66z" />
    <glyph glyph-name="glyph1471" unicode="&#x6bc;" horiz-adv-x="1729" 
d="M870 1196h-147v148h147v-148zM1728 0c-107.333 0 -191.333 10.668 -252 32.001c-58 20.667 -107.667 60.667 -149 120c-80.667 -131.333 -257.334 -197 -530.001 -197c-449.333 0 -674 209.667 -674 629c0 148 12.333 271.333 37 370h282v-8
c-28.667 -110 -43 -231.333 -43 -364c0 -176 131.333 -264 394 -264c266 0 399 88 399 264c0 171.333 -10.333 292.666 -31 363.999v8h309c0 -218 13.667 -374 41 -468c24.667 -84 63.334 -126 116.001 -126h101v-360zM985 -138.999c0 -52.667 -18.333 -97.334 -55 -134.001
s-81.334 -55 -134.001 -55s-97.167 18.333 -133.5 55s-54.5 81.334 -54.5 134.001c0 52 18.333 96.333 55 133s81 55 133 55c52.667 0 97.334 -18.333 134.001 -55s55 -81 55 -133zM889 -140.999c0 27.333 -9.33105 50.168 -27.998 68.501s-41.667 27.5 -69 27.5
c-26.667 0 -49.334 -9.33301 -68.001 -28s-28 -41.334 -28 -68.001c0 -25.333 9.66699 -47.333 29 -66s41.666 -28 66.999 -28c26 0 48.667 9.16699 68 27.5s29 40.5 29 66.5z" />
    <glyph glyph-name="glyph1475" unicode="&#x6bd;" horiz-adv-x="1729" 
d="M1728 0l-186 -0.00195312c-13.333 0 -27 0.833008 -41 2.5s-29.667 4.83398 -47 9.50098c-29.333 -136 -102.666 -242.667 -219.999 -320s-263 -116 -437 -116c-96.667 0 -186.334 11.167 -269.001 33.5s-154 58.5 -214 108.5c-60.667 50.667 -107.667 116 -141 196
s-50 177 -50 291c0 90.667 5.66699 173 17 247s18 115 20 123h282v-8c-8.66699 -33.333 -18 -87.666 -28 -162.999s-15 -142.333 -15 -201c0 -86 34.333 -151.5 103 -196.5s165.667 -67.5 291 -67.5c124 0 221.5 21.5 292.5 64.5s106.5 109.5 106.5 199.5
c0 84 -3.33301 159.333 -10 226s-13.667 112.667 -21 138v8h309c0 -76 11 -130.833 33 -164.5s50 -50.5 84 -50.5h141v-360zM723 816.998h-148v148h148v-148zM1019 816.998h-148v148h148v-148zM871 1026h-148v148h148v-148z" />
    <glyph glyph-name="uni06BE" unicode="&#x647;" horiz-adv-x="1593" arabic-form="initial" 
d="M416 1360l237 0.000976562c180 0 361.167 -96.833 543.5 -290.5s273.5 -395.834 273.5 -606.501c0 -144.667 -41.667 -258 -125 -340s-198 -123 -344 -123h-1071v360h263c-15.333 31.333 -23 71 -23 119c0 134 37.5 241 112.5 321s174.833 120 299.5 120
c124 0 223.833 -40.167 299.5 -120.5s113.5 -187.166 113.5 -320.499c0 -40.667 -6.66699 -80.334 -20 -119.001h117c32 0 57 9.16699 75 27.5s27 42.833 27 73.5c0 162.667 -59.167 303 -177.5 421s-238.833 177 -361.5 177h-239v301zM584 360.001
c41.333 0 74.166 10.833 98.499 32.5s36.5 50.5 36.5 86.5c0 38 -12.667 70.667 -38 98s-58.333 41 -99 41c-42 0 -75.167 -13.167 -99.5 -39.5s-36.5 -59.5 -36.5 -99.5c0 -35.333 12.333 -64 37 -86s58.334 -33 101.001 -33z" />
    <glyph glyph-name="glyph1478" unicode="&#x6bf;" horiz-adv-x="1538" 
d="M1436 584l-455 -258c-46 -25.333 -95.5 -54.333 -148.5 -87s-120.5 -69 -202.5 -109c-76 -37.333 -147.167 -68.333 -213.5 -93s-130.833 -37 -193.5 -37h-293v360h301c116 0 220.333 14.667 313 44s210.334 82.333 353.001 159c-74.667 34 -164.834 62 -270.501 84
s-211.5 33 -317.5 33h-203v309h213c116 0 238 -20.667 366 -62s282.667 -115.333 464 -222l287 151v-272zM947 1133h-148v148h148v-148zM963 -90h-148v148h148v-148zM1259 -90h-148v148h148v-148zM1111 -299h-148v148h148v-148z" />
    <glyph glyph-name="glyph1479" unicode="&#x6bf;" horiz-adv-x="1538" 
d="M887 270c-114 -68 -231.499 -130 -352.499 -186s-224.833 -84 -311.5 -84h-293v360h301c131.333 0 245.666 17.667 342.999 53s205 85.333 323 150c-74.667 34 -164.834 62 -270.501 84s-211.5 33 -317.5 33h-203v309h213c120.667 0 244.834 -21.333 372.501 -64
s280.167 -116 457.5 -220l287 151v-272l-351 -199c14.667 -8.66699 29.667 -15 45 -19s35.333 -6 60 -6h348v-360h-305c-110 0 -193.667 21 -251 63s-89 111 -95 207zM926.001 1231h-148v148h148v-148zM633.001 -214h-148v148h148v-148zM929.001 -214h-148v148h148v-148z
M781.001 -423h-148v148h148v-148z" />
    <glyph glyph-name="glyph1477" unicode="&#x6bf;" horiz-adv-x="1618" 
d="M1458 575l0.00390625 -119.999c0 -31.333 8.33301 -55 25 -71s41 -24 73 -24h62v-360h-74c-102 0 -179.667 25.833 -233 77.5s-80 130.834 -80 237.501v260h-60c-128.667 0 -241.667 -9 -339 -27s-178.333 -43.667 -243 -77c-60 -30.667 -106.333 -69 -139 -115
s-49 -98.333 -49 -157c0 -78 32.5 -141.667 97.5 -191s157.5 -74 277.5 -74c70 0 143.167 5.33301 219.5 16s147.166 28 212.499 52h9v-346c-72 -28.667 -142.667 -49.167 -212 -61.5s-145 -18.5 -227 -18.5c-91.333 0 -176.5 14.333 -255.5 43
s-148.5 70.334 -208.5 125.001c-59.333 54 -106 119.167 -140 195.5s-51 162.166 -51 257.499c0 75.333 17.5 146.166 52.5 212.499s84.5 125.833 148.5 178.5c63.333 52 140.5 94.667 231.5 128s194.167 54.666 309.5 63.999c-10.667 4 -28.334 8.66699 -53.001 14
s-63 12.666 -115 21.999c-48 8.66699 -111 16.834 -189 24.501s-157.333 11.5 -238 11.5h-67v309h59c167.333 0 339.166 -27 515.499 -81s332.166 -132.667 467.499 -236h260v-269h-47zM1051 1305h-148v148h148v-148zM768.004 250.001h-148v148h148v-148zM1064 250.001h-148
v148h148v-148zM916.004 41.001h-148v148h148v-148z" />
    <glyph glyph-name="uni06C1" unicode="&#x6c1;" horiz-adv-x="1066" arabic-form="final" 
d="M1066 0c-152.667 0 -246.002 68.667 -280.002 206c-13.333 53.333 -26.666 91.333 -39.999 114c-22 36.667 -52.667 55 -92 55c-102 0 -183.333 -183.667 -244 -551h-340v10c79.333 276.667 149.666 472.667 210.999 588c102.667 192.667 226.334 289 371.001 289
s242.334 -80.667 293.001 -242c14 -44.667 30 -74 48 -88s42.333 -21 73 -21v-360z" />
    <glyph glyph-name="glyph1481" unicode="&#x6c4;" horiz-adv-x="1157" 
d="M694 383c-8.66699 90.667 -29.668 162.5 -63.001 215.5s-67.666 79.5 -102.999 79.5c-36 0 -66.5 -14.333 -91.5 -43s-37.5 -63 -37.5 -103s29.333 -73.667 88 -101s127.667 -43.333 207 -48zM1157 0l-4.00195 -0.000976562c-36.667 0 -79 2.33301 -127 7
s-77.333 7.66699 -88 9c-42 -90.667 -103 -165.167 -183 -223.5s-167.333 -103.166 -262 -134.499s-182.667 -52.833 -264 -64.5s-157.666 -17.5 -228.999 -17.5v344c97.333 0 187.5 7.83301 270.5 23.5s150.833 32.5 203.5 50.5c60.667 20.667 101.834 37.5 123.501 50.5
l39.5 23.5c-166.667 18.667 -294 70.167 -382 154.5s-132 185.5 -132 303.5c0 124 39.5 230.5 118.5 319.5s173.833 133.5 284.5 133.5c124 0 228.667 -57 314 -171s134.333 -261 147 -441c11.333 -1.33301 36.833 -2.83301 76.5 -4.5s68.167 -2.5 85.5 -2.5h8v-360z
M276.997 19.999c0 -52.667 -18.668 -97.333 -56.001 -134s-81.666 -55 -132.999 -55c-52 0 -96.333 18.5 -133 55.5s-55 81.5 -55 133.5c0 51.333 18.5 95.5 55.5 132.5s81.167 55.5 132.5 55.5c52 0 96.5 -18.333 133.5 -55s55.5 -81 55.5 -133zM180.996 18
c0 26.667 -9.33105 49.334 -27.998 68.001s-41.667 28 -69 28c-26.667 0 -49.334 -9.33301 -68.001 -28s-28 -41.334 -28 -68.001c0 -25.333 9.66699 -47.333 29 -66s41.666 -28 66.999 -28c26 0 48.667 9.33301 68 28s29 40.667 29 66z" />
    <glyph glyph-name="uni06C5" unicode="&#x6c5;" horiz-adv-x="1083" arabic-form="isolated" 
d="M961 274c0 -260 -116 -448.332 -348 -564.999c-176.667 -88.667 -381 -133 -613 -133v344c186.667 0 347.667 26.667 483 80h-433v110h605c27.333 29.333 47.333 61.666 60 96.999c-46.667 -9.33301 -83.334 -14 -110.001 -14c-139.333 0 -255.666 26 -348.999 78
c-108 60 -162 145 -162 255c0 118 37.333 221.667 112 311c78.667 94.667 176 142 292 142c156 0 276.333 -83 361 -249c68 -133.333 102 -285.333 102 -456zM666 429.001c-30 152 -82.001 227.999 -156.001 227.999c-36 0 -67.667 -11.667 -95 -35
c-29.333 -24.667 -44 -54.667 -44 -90s19.667 -64.666 59 -87.999c33.333 -20 67.333 -30 102 -30c64.667 0 109.334 5 134.001 15z" />
    <glyph glyph-name="uni06C6" unicode="&#x6c6;" horiz-adv-x="1083" arabic-form="isolated" 
d="M961 274c0 -136 -30.832 -253.17 -92.499 -351.503s-154.834 -174.5 -279.501 -228.5c-97.333 -43.333 -187.5 -73.833 -270.5 -91.5s-189.167 -26.5 -318.5 -26.5v344c56.667 0 115.667 3.33301 177 10s121.333 16.667 180 30c69.333 15.333 130.333 36.333 183 63
s91 61.334 115 104.001c-6.66699 -1.33301 -25.167 -4 -55.5 -8s-48.5 -6 -54.5 -6c-136.667 0 -246 39.167 -328 117.5s-123 176.833 -123 295.5c0 126.667 40.5 233.834 121.5 321.501s175.167 131.5 282.5 131.5c128.667 0 238 -64.667 328 -194
s135 -299.666 135 -510.999zM666.001 448.997c-12.667 64.667 -32.833 115.499 -60.5 152.499s-59.5 55.5 -95.5 55.5s-68.167 -12.167 -96.5 -36.5s-42.5 -53.833 -42.5 -88.5c0 -24.667 13.333 -47.167 40 -67.5s67 -30.5 121 -30.5c28 0 55.667 1.83301 83 5.5
s44.333 6.83398 51 9.50098zM691.002 1474l-127 -286h-98l-127 286h107l69 -189l69 189h107z" />
    <glyph glyph-name="uni06C7" unicode="&#x6c7;" horiz-adv-x="1083" arabic-form="isolated" 
d="M961 274c0 -136 -30.832 -253.17 -92.499 -351.503s-154.834 -174.5 -279.501 -228.5c-97.333 -43.333 -187.5 -73.833 -270.5 -91.5s-189.167 -26.5 -318.5 -26.5v344c56.667 0 115.667 3.33301 177 10s121.333 16.667 180 30c69.333 15.333 130.333 36.333 183 63
s91 61.334 115 104.001c-6.66699 -1.33301 -25.167 -4 -55.5 -8s-48.5 -6 -54.5 -6c-136.667 0 -246 39.167 -328 117.5s-123 176.833 -123 295.5c0 126.667 40.5 233.834 121.5 321.501s175.167 131.5 282.5 131.5c128.667 0 238 -64.667 328 -194
s135 -299.666 135 -510.999zM666.001 448.997c-12.667 64.667 -32.833 115.499 -60.5 152.499s-59.5 55.5 -95.5 55.5s-68.167 -12.167 -96.5 -36.5s-42.5 -53.833 -42.5 -88.5c0 -24.667 13.333 -47.167 40 -67.5s67 -30.5 121 -30.5c28 0 55.667 1.83301 83 5.5
s44.333 6.83398 51 9.50098zM696.002 1188l-126.999 27.999c-60.667 -34.667 -120.834 -61 -180.501 -79s-122.5 -29 -188.5 -33v88c50 3.33301 97 9.66602 141 18.999s87.667 24 131 44c-34 10.667 -64 29.834 -90 57.501s-39 60.5 -39 98.5c0 46 15.5 83.833 46.5 113.5
s72.833 44.5 125.5 44.5c46 0 85.833 -15 119.5 -45s50.5 -69 50.5 -117c0 -22.667 -6 -46.167 -18 -70.5s-23.667 -41.166 -35 -50.499l64 -12v-86zM548.003 1311c14 12 25.332 25.5 33.999 40.5s13 34.167 13 57.5c0 19.333 -7.83301 35 -23.5 47s-33.167 18 -52.5 18
c-23.333 0 -42.666 -5.5 -57.999 -16.5s-23 -27.167 -23 -48.5c0 -22.667 9.5 -42.5 28.5 -59.5s46.167 -29.833 81.5 -38.5z" />
    <glyph glyph-name="uni06C8" unicode="&#x6c8;" horiz-adv-x="1083" arabic-form="isolated" 
d="M961 274c0 -136 -30.832 -253.17 -92.499 -351.503s-154.834 -174.5 -279.501 -228.5c-97.333 -43.333 -187.5 -73.833 -270.5 -91.5s-189.167 -26.5 -318.5 -26.5v344c56.667 0 115.667 3.33301 177 10s121.333 16.667 180 30c69.333 15.333 130.333 36.333 183 63
s91 61.334 115 104.001c-6.66699 -1.33301 -25.167 -4 -55.5 -8s-48.5 -6 -54.5 -6c-136.667 0 -246 39.167 -328 117.5s-123 176.833 -123 295.5c0 126.667 40.5 233.834 121.5 321.501s175.167 131.5 282.5 131.5c128.667 0 238 -64.667 328 -194
s135 -299.666 135 -510.999zM666.001 448.997c-12.667 64.667 -32.833 115.499 -60.5 152.499s-59.5 55.5 -95.5 55.5s-68.167 -12.167 -96.5 -36.5s-42.5 -53.833 -42.5 -88.5c0 -24.667 13.333 -47.167 40 -67.5s67 -30.5 121 -30.5c28 0 55.667 1.83301 83 5.5
s44.333 6.83398 51 9.50098zM546.002 1188h-92v616h92v-616z" />
    <glyph glyph-name="uni06C9" unicode="&#x6c9;" horiz-adv-x="1083" arabic-form="isolated" 
d="M961 274c0 -136 -30.832 -253.17 -92.499 -351.503s-154.834 -174.5 -279.501 -228.5c-97.333 -43.333 -187.5 -73.833 -270.5 -91.5s-189.167 -26.5 -318.5 -26.5v344c56.667 0 115.667 3.33301 177 10s121.333 16.667 180 30c69.333 15.333 130.333 36.333 183 63
s91 61.334 115 104.001c-6.66699 -1.33301 -25.167 -4 -55.5 -8s-48.5 -6 -54.5 -6c-136.667 0 -246 39.167 -328 117.5s-123 176.833 -123 295.5c0 126.667 40.5 233.834 121.5 321.501s175.167 131.5 282.5 131.5c128.667 0 238 -64.667 328 -194
s135 -299.666 135 -510.999zM666.001 448.997c-12.667 64.667 -32.833 115.499 -60.5 152.499s-59.5 55.5 -95.5 55.5s-68.167 -12.167 -96.5 -36.5s-42.5 -53.833 -42.5 -88.5c0 -24.667 13.333 -47.167 40 -67.5s67 -30.5 121 -30.5c28 0 55.667 1.83301 83 5.5
s44.333 6.83398 51 9.50098zM655.002 1188l-149 219l-149 -219h-107l207 316h98l207 -316h-107z" />
    <glyph glyph-name="glyph1493" unicode="&#x6ca;" horiz-adv-x="1157" 
d="M694 383c-8.66699 90.667 -29.668 162.5 -63.001 215.5s-67.666 79.5 -102.999 79.5c-36 0 -66.5 -14.333 -91.5 -43s-37.5 -63 -37.5 -103s29.333 -73.667 88 -101s127.667 -43.333 207 -48zM1157 0l-4.00195 -0.000976562c-36.667 0 -79 2.33301 -127 7
s-77.333 7.66699 -88 9c-42 -90.667 -103 -165.167 -183 -223.5s-167.333 -103.166 -262 -134.499s-182.667 -52.833 -264 -64.5s-157.666 -17.5 -228.999 -17.5v344c97.333 0 187.5 7.83301 270.5 23.5s150.833 32.5 203.5 50.5c60.667 20.667 101.834 37.5 123.501 50.5
l39.5 23.5c-166.667 18.667 -294 70.167 -382 154.5s-132 185.5 -132 303.5c0 124 39.5 230.5 118.5 319.5s173.833 133.5 284.5 133.5c124 0 228.667 -57 314 -171s134.333 -261 147 -441c11.333 -1.33301 36.833 -2.83301 76.5 -4.5s68.167 -2.5 85.5 -2.5h8v-360z
M450.997 1188h-148v148h148v-148zM718.997 1188h-148v148h148v-148z" />
    <glyph glyph-name="uni06CB" unicode="&#x6cb;" horiz-adv-x="1083" arabic-form="isolated" 
d="M961 274c0 -136 -30.832 -253.17 -92.499 -351.503s-154.834 -174.5 -279.501 -228.5c-97.333 -43.333 -187.5 -73.833 -270.5 -91.5s-189.167 -26.5 -318.5 -26.5v344c56.667 0 115.667 3.33301 177 10s121.333 16.667 180 30c69.333 15.333 130.333 36.333 183 63
s91 61.334 115 104.001c-6.66699 -1.33301 -25.167 -4 -55.5 -8s-48.5 -6 -54.5 -6c-136.667 0 -246 39.167 -328 117.5s-123 176.833 -123 295.5c0 126.667 40.5 233.834 121.5 321.501s175.167 131.5 282.5 131.5c128.667 0 238 -64.667 328 -194
s135 -299.666 135 -510.999zM666.001 448.997c-12.667 64.667 -32.833 115.499 -60.5 152.499s-59.5 55.5 -95.5 55.5s-68.167 -12.167 -96.5 -36.5s-42.5 -53.833 -42.5 -88.5c0 -24.667 13.333 -47.167 40 -67.5s67 -30.5 121 -30.5c28 0 55.667 1.83301 83 5.5
s44.333 6.83398 51 9.50098zM437.002 1188h-148v148h148v-148zM733.002 1188h-148v148h148v-148zM585.002 1397h-148v148h148v-148z" />
    <glyph glyph-name="uni06CC" unicode="&#x6cc;" horiz-adv-x="1991" arabic-form="isolated" 
d="M1860 932l-9 0.000976562c-36 19.333 -94.667 37.166 -176 53.499s-162.333 24.5 -243 24.5c-68 0 -120.833 -8.16699 -158.5 -24.5s-56.5 -38.166 -56.5 -65.499c0 -24 35.333 -46.833 106 -68.5l222 -70.5c36.667 -12.667 75.334 -28.334 116.001 -47.001
s77 -39.667 109 -63c30 -22.667 54.5 -49 73.5 -79s28.5 -63.333 28.5 -100c0 -156 -89.667 -278 -269 -366s-440 -132 -782 -132c-236 0 -411.667 42.333 -527 127s-173 219 -173 403c0 83.333 4.83301 158.5 14.5 225.5s15.167 104.5 16.5 112.5h272v-18
c-2.66699 -10.667 -7.83398 -51.334 -15.501 -122.001s-11.5 -136 -11.5 -196c0 -54.667 28.5 -96.667 85.5 -126s170.5 -44 340.5 -44c254 0 445.833 10.167 575.5 30.5s194.5 54.5 194.5 102.5c0 23.333 -25.167 44.833 -75.5 64.5s-124.833 42.834 -223.5 69.501
c-43.333 12 -88.833 28.333 -136.5 49s-86.5 42.334 -116.5 65.001c-30 22 -54.667 48.667 -74 80s-29 66.333 -29 105c0 114 46 210 138 288s211.333 117 358 117c85.333 0 165.833 -7.33301 241.5 -22s137.167 -31.334 184.5 -50.001v-323z" />
    <glyph glyph-name="glyph1497" unicode="&#x6cd;" horiz-adv-x="2247" 
d="M2247 0h-57.998c-36 -0 -73 11.333 -111 34c-56.667 34 -115.667 91.333 -177 172l-85 115l-83 118c-24.667 34.667 -51.667 68 -81 100l-3 3c-62 67.333 -119.333 101 -172 101c-27.333 0 -54.666 -9 -81.999 -27c-31.333 -20 -47 -43 -47 -69
c0 -21.333 19.667 -46.333 59 -75l111 -82c113.333 -82.667 170 -160.667 170 -234c0 -148.667 -75.833 -266.5 -227.5 -353.5s-350.834 -130.5 -597.501 -130.5c-208.667 0 -368.834 44 -480.501 132s-167.5 221 -167.5 399c0 51.333 3.33301 95 10 131l-225 -51v116
l518 142v-11c-18 -99.333 -27 -206.333 -27 -321c0 -79.333 47.333 -131.666 142 -156.999c46.667 -12.667 124 -19 232 -19c166.667 0 299 10.5 397 31.5s147 52.167 147 93.5c0 28.667 -22 61 -66 97c-8 6.66699 -42.667 30.667 -104 72
c-113.333 76.667 -170 150.667 -170 222c0 103.333 42.667 191 128 263c81.333 68.667 174.666 103 279.999 103c78 0 154 -29 228 -87c46.667 -36.667 105.667 -100.334 177 -191.001c32 -44 82.667 -107.333 152 -190c55.333 -58 105.666 -87 151 -87h62v-360z" />
    <glyph glyph-name="glyph1500" unicode="&#x6ce;" horiz-adv-x="698" 
d="M537 598c0 -183.333 -40.167 -328.833 -120.5 -436.5s-186.5 -161.5 -318.5 -161.5h-168v360h123c62 0 111.667 21 149 63s56 100.333 56 175v293h279v-293zM591 1301l-127 -286h-98l-127 286h107l69 -189l69 189h107zM130 -295h-148v148h148v-148zM398 -295h-148v148
h148v-148z" />
    <glyph glyph-name="glyph1499" unicode="&#x6ce;" horiz-adv-x="2247" 
d="M2247 0l-57.999 0.000976562c-35.333 0 -69.333 9.33301 -102 28s-64.334 42.667 -95.001 72c-30.667 30.667 -61.167 66 -91.5 106l-84.5 115l-83.5 118c-27.667 38.667 -55.5 73 -83.5 103c-28.667 31.333 -57.167 56 -85.5 74s-57.166 27 -86.499 27
c-34.667 0 -64.834 -11 -90.501 -33s-38.5 -43 -38.5 -63c0 -21.333 19.5 -46.333 58.5 -75l111.5 -82c56 -40.667 98.333 -80.334 127 -119.001s43 -77 43 -115c0 -148.667 -75.667 -266.5 -227 -353.5s-364 -130.5 -638 -130.5c-242.667 0 -420 44.167 -532 132.5
s-168 222.5 -168 402.5c0 73.333 3.83301 142.5 11.5 207.5s14.167 107.167 19.5 126.5h274v-11c-2.66699 -14.667 -7.83398 -52.167 -15.501 -112.5s-11.5 -129.833 -11.5 -208.5c0 -59.333 30.333 -103.5 91 -132.5s171.667 -43.5 333 -43.5
c194.667 0 340.667 10.5 438 31.5s146 52.167 146 93.5c0 30 -18.5 59 -55.5 87s-75.167 55.333 -114.5 82c-43.333 29.333 -82.5 61.833 -117.5 97.5s-52.5 77.167 -52.5 124.5c0 96 39.833 181 119.5 255s175.834 111 288.501 111c45.333 0 86.833 -8.33301 124.5 -25
s72.167 -37.334 103.5 -62.001c36 -28 68.333 -59 97 -93l80 -98l78 -101.5c25.333 -33.667 50 -63.167 74 -88.5c26 -27.333 50.667 -48.666 74 -63.999s49 -23 77 -23h62v-360zM831.001 915.001l-127 -286h-98l-127 286h107l69 -189l69 189h107z" />
    <glyph glyph-name="glyph1503" unicode="&#x6cf;" horiz-adv-x="1157" 
d="M694 383c-8.66699 90.667 -29.668 162.5 -63.001 215.5s-67.666 79.5 -102.999 79.5c-36 0 -66.5 -14.333 -91.5 -43s-37.5 -63 -37.5 -103s29.333 -73.667 88 -101s127.667 -43.333 207 -48zM1157 0l-4.00195 -0.000976562c-36.667 0 -79 2.33301 -127 7
s-77.333 7.66699 -88 9c-42 -90.667 -103 -165.167 -183 -223.5s-167.333 -103.166 -262 -134.499s-182.667 -52.833 -264 -64.5s-157.666 -17.5 -228.999 -17.5v344c97.333 0 187.5 7.83301 270.5 23.5s150.833 32.5 203.5 50.5c60.667 20.667 101.834 37.5 123.501 50.5
l39.5 23.5c-166.667 18.667 -294 70.167 -382 154.5s-132 185.5 -132 303.5c0 124 39.5 230.5 118.5 319.5s173.833 133.5 284.5 133.5c124 0 228.667 -57 314 -171s134.333 -261 147 -441c11.333 -1.33301 36.833 -2.83301 76.5 -4.5s68.167 -2.5 85.5 -2.5h8v-360z
M584.997 1188h-148v148h148v-148z" />
    <glyph glyph-name="uni06D0" unicode="&#x6d0;" horiz-adv-x="1991" arabic-form="isolated" 
d="M1860 932l-9 0.000976562c-36 19.333 -94.667 37.166 -176 53.499s-162.333 24.5 -243 24.5c-68 0 -120.833 -8.16699 -158.5 -24.5s-56.5 -38.166 -56.5 -65.499c0 -24 35.333 -46.833 106 -68.5l222 -70.5c36.667 -12.667 75.334 -28.334 116.001 -47.001
s77 -39.667 109 -63c30 -22.667 54.5 -49 73.5 -79s28.5 -63.333 28.5 -100c0 -156 -89.667 -278 -269 -366s-440 -132 -782 -132c-236 0 -411.667 42.333 -527 127s-173 219 -173 403c0 83.333 4.83301 158.5 14.5 225.5s15.167 104.5 16.5 112.5h272v-18
c-2.66699 -10.667 -7.83398 -51.334 -15.501 -122.001s-11.5 -136 -11.5 -196c0 -54.667 28.5 -96.667 85.5 -126s170.5 -44 340.5 -44c254 0 445.833 10.167 575.5 30.5s194.5 54.5 194.5 102.5c0 23.333 -25.167 44.833 -75.5 64.5s-124.833 42.834 -223.5 69.501
c-43.333 12 -88.833 28.333 -136.5 49s-86.5 42.334 -116.5 65.001c-30 22 -54.667 48.667 -74 80s-29 66.333 -29 105c0 114 46 210 138 288s211.333 117 358 117c85.333 0 165.833 -7.33301 241.5 -22s137.167 -31.334 184.5 -50.001v-323zM985 -210.999h-148v148h148
v-148zM985 -419.999h-148v148h148v-148z" />
    <glyph glyph-name="glyph1507" unicode="&#x6d1;" horiz-adv-x="2345" 
d="M2345 0l-57 -0.00390625c-79.333 0 -155.666 42.333 -228.999 127c-54 62.667 -109.667 153.334 -167 272.001l-117 252c-98.667 194.667 -198 292 -298 292c-27.333 0 -55 -9 -83 -27c-30.667 -20 -46 -43 -46 -69c0 -19.333 22.333 -47.666 67 -84.999l95 -72
c107.333 -84.667 161 -162.667 161 -234c0 -182.667 -102.667 -315 -308 -397c-144.667 -57.333 -324.667 -86 -540 -86c-216.667 0 -380.667 34.333 -492 103c-138.667 86 -208 229.667 -208 431c0 156.667 10.333 268 31 334h274v-10c-18 -90 -27 -197.333 -27 -322
c0 -78 54.333 -130 163 -156c56.667 -13.333 143.667 -20 261 -20c378.667 0 568 41.667 568 125c0 38.667 -54 95.334 -162 170.001s-162 148.334 -162 221.001c0 104 42.667 192 128 264c81.333 68.667 174.666 103 279.999 103c169.333 0 325 -132.667 467 -398l138 -281
c67.333 -118 134.666 -177 202 -177h61v-360zM1047 -214.004h-148v148h148v-148zM751 -214.004h-148v148h148v-148zM899 -423.004h-148v148h148v-148z" />
    <glyph glyph-name="uni06D2" unicode="&#x6d2;" horiz-adv-x="1867" arabic-form="isolated" 
d="M1867 -420l-1367 -0.00195312c-132 0 -244.333 32.667 -337 98c-96 66.667 -144 150.334 -144 251.001c0 102.667 30.667 183 92 241c42 39.333 114.667 78 218 116c128 47.333 213.667 83.333 257 108c62.667 36 146.334 104.667 251.001 206
c78 74.667 140.667 112 188 112c62.667 0 125.667 -57.333 189 -172v-360c-58.667 108.667 -115.667 163 -171 163c-24 0 -64 -21.667 -120 -65c-80.667 -62 -139.334 -103.667 -176.001 -125c-44 -25.333 -124.667 -55.666 -242 -90.999c-86.667 -25.333 -130 -49 -130 -71
c0 -34 41 -51 123 -51h1369v-360z" />
    <glyph glyph-name="uni06D3" unicode="&#x6d3;" horiz-adv-x="1867" arabic-form="isolated" 
d="M1867 -420l-1367 -0.00195312c-132 0 -244.333 32.667 -337 98c-96 66.667 -144 150.334 -144 251.001c0 102.667 30.667 183 92 241c42 39.333 114.667 78 218 116c128 47.333 213.667 83.333 257 108c62.667 36 146.334 104.667 251.001 206
c78 74.667 140.667 112 188 112c62.667 0 125.667 -57.333 189 -172v-360c-58.667 108.667 -115.667 163 -171 163c-24 0 -64 -21.667 -120 -65c-80.667 -62 -139.334 -103.667 -176.001 -125c-44 -25.333 -124.667 -55.666 -242 -90.999c-86.667 -25.333 -130 -49 -130 -71
c0 -34 41 -51 123 -51h1369v-360zM1164 1017h-336v94h74c-16 8.66699 -29.167 22.667 -39.5 42s-15.5 39.333 -15.5 60c0 42.667 15.667 80 47 112s73.666 48 126.999 48c35.333 0 61.5 -2 78.5 -6s28.833 -7.33301 35.5 -10v-101h-6
c-9.33301 4 -25.166 8.83301 -47.499 14.5s-41.833 8.5 -58.5 8.5c-29.333 0 -51.333 -6 -66 -18s-22 -28 -22 -48c0 -30 15.333 -54.5 46 -73.5s67 -28.5 109 -28.5h74v-94z" />
    <glyph glyph-name="uni06D5.fina" unicode="&#x6d5;" horiz-adv-x="1362" 
d="M1362 0l-95.999 -0.00195312c-61.333 0 -115.333 10.833 -162 32.5s-87 50.5 -121 86.5s-61.833 76.333 -83.5 121s-39.5 92.334 -53.5 143.001c-39.333 -35.333 -89.166 -64 -149.499 -86s-116.5 -33 -168.5 -33c-126 0 -226.667 38.333 -302 115s-113 175.667 -113 297
c0 76 17 143.833 51 203.5s83 110.834 147 153.501c63.333 41.333 140.166 73.333 230.499 96s191.166 36.667 302.499 42l260 13v-586c0 -76 19.333 -134.667 58 -176s87 -62 145 -62h55v-360zM825.001 644.998l0.000976562 239.999
c-128.667 -11.333 -228.334 -32.666 -299.001 -63.999s-106 -79 -106 -143c0 -30.667 12.667 -56.5 38 -77.5s57 -31.5 95 -31.5c51.333 0 103 8.33301 155 25s91 33.667 117 51z" />
    <glyph glyph-name="glyph2900" unicode="&#x6ee;" horiz-adv-x="1178" 
d="M1178 0h-191c-64 0 -117.333 11.5 -160 34.5s-76 57.833 -100 104.5c-30 -51.333 -68.833 -87.333 -116.5 -108s-102.5 -31 -164.5 -31h-344v360h355c50 0 91.167 8.83301 123.5 26.5s48.5 37.5 48.5 59.5c0 6 -1.5 15.167 -4.5 27.5s-6.5 24.5 -10.5 36.5l-188 637h311
l156 -539c9.33301 -32 20.5 -65.833 33.5 -101.5s24.833 -62.167 35.5 -79.5c12.667 -21.333 27.5 -37.833 44.5 -49.5s37.833 -17.5 62.5 -17.5h109v-360zM735 1315l-149 219l-149 -219h-107l207 316h98l207 -316h-107z" />
    <glyph glyph-name="glyph2902" unicode="&#x6ef;" horiz-adv-x="1042" 
d="M1042 0l-98.0029 0.00195312c-25.333 0 -54.666 4 -87.999 12s-58.666 17 -75.999 27c-37.333 -90.667 -87.5 -165.834 -150.5 -225.501s-135.833 -106.834 -218.5 -141.501c-84 -35.333 -161.333 -60.166 -232 -74.499s-130.334 -21.5 -179.001 -21.5v363
c40.667 0 94.5 5.83301 161.5 17.5s129.167 29.167 186.5 52.5c66 27.333 115.333 61.833 148 103.5s49 92.834 49 153.501c0 44.667 -6 90.667 -18 138s-25.333 89.333 -40 126c-16.667 40.667 -31.5 73.5 -44.5 98.5s-21.833 41.5 -26.5 49.5v12h293
c14 -24.667 30.833 -58.334 50.5 -101.001s32.834 -76 39.501 -100c11.333 -38.667 32.333 -69.834 63 -93.501s72.334 -35.5 125.001 -35.5h55v-360zM696.997 932.002l-149 219l-149 -219h-107l207 316h98l207 -316h-107z" />
    <glyph glyph-name="glyph1531" unicode="&#x6fa;" horiz-adv-x="2247" 
d="M2083 592c0 -192 -43.333 -339.668 -130 -443.001s-205.334 -155 -356.001 -155c-66 0 -125.5 14.5 -178.5 43.5s-92.5 63.5 -118.5 103.5c-32 -43.333 -72.5 -78.666 -121.5 -105.999s-116.833 -41 -203.5 -41c-66 0 -125.667 14.5 -179 43.5
s-92.666 63.5 -117.999 103.5c-32.667 -43.333 -75.834 -77.666 -129.501 -102.999s-118.5 -38 -194.5 -38h-424v360h424c54.667 0 99.167 19.5 133.5 58.5s51.5 89.833 51.5 152.5v148h278v-150c0 -57.333 14 -106.5 42 -147.5s67.333 -61.5 118 -61.5
c57.333 0 102.333 19.333 135 58s49 89.667 49 153v148h279v-150c0 -58 13.833 -107.333 41.5 -148s66.834 -61 117.501 -61c57.333 0 105.833 21.667 145.5 65s59.5 99.666 59.5 168.999v297h279v-299zM1379 -295.001h-148v148h148v-148zM1231 960.999h-148v148h148v-148z
M1527 960.999h-148v148h148v-148zM1379 1170h-148v148h148v-148z" />
    <glyph glyph-name="glyph1532" unicode="&#x6fa;" horiz-adv-x="2335" 
d="M2335 0l-99.002 -0.000976562c-75.333 0 -139 14.167 -191 42.5s-88 61.833 -108 100.5c-22.667 -41.333 -65.667 -76.5 -129 -105.5s-133.666 -43.5 -210.999 -43.5c-66 0 -125.5 14.5 -178.5 43.5s-92.5 63.5 -118.5 103.5c-28 -41.333 -69.667 -76.166 -125 -104.499
s-122 -42.5 -200 -42.5c-66 0 -125.667 14.5 -179 43.5s-92.666 63.5 -117.999 103.5c-36 -47.333 -81.333 -82.666 -136 -105.999s-117.334 -35 -188.001 -35h-424v360h424c54.667 0 99.167 19.5 133.5 58.5s51.5 89.833 51.5 152.5v148h278v-150
c0 -57.333 14 -106.5 42 -147.5s67.333 -61.5 118 -61.5c57.333 0 102.333 19.333 135 58s49 89.667 49 153v148h279v-150c0 -58 13.833 -107.333 41.5 -148s66.834 -61 117.501 -61c57.333 0 104.833 21.667 142.5 65s56.5 99.666 56.5 168.999v297h279v-299
c0 -74.667 20 -132 60 -172s87.333 -60 142 -60h56v-360zM1379 -295.001h-148v148h148v-148zM1231 960.999h-148v148h148v-148zM1527 960.999h-148v148h148v-148zM1379 1170h-148v148h148v-148z" />
    <glyph glyph-name="glyph1530" unicode="&#x6fa;" horiz-adv-x="3004" 
d="M3004 0l-98.002 -0.000976562c-75.333 0 -139 14.167 -191 42.5s-88 61.833 -108 100.5c-26 -44 -70.333 -79.833 -133 -107.5s-131.667 -41.5 -207 -41.5c-66 0 -125.667 14.5 -179 43.5s-92.666 63.5 -117.999 103.5c-36.667 -49.333 -83 -86.166 -139 -110.499
s-117.333 -36.5 -184 -36.5c-40 0 -78.167 9 -114.5 27s-65.166 41.667 -86.499 71c-24 -161.333 -98.833 -287.666 -224.5 -378.999s-274.834 -137 -447.501 -137c-92.667 0 -178.667 14.167 -258 42.5s-148.333 69.833 -207 124.5
c-57.333 54.667 -102.666 123.667 -135.999 207s-50 177.666 -50 282.999c0 96.667 5.66699 182.334 17 257.001s18 116.667 20 126h284v-12c-6 -21.333 -14.667 -71.166 -26 -149.499s-17 -150.5 -17 -216.5c0 -95.333 38.667 -169 116 -221s163 -78 257 -78
c114.667 0 209.167 33.667 283.5 101s111.5 157.666 111.5 270.999c0 92.667 -2.33301 179.5 -7 260.5s-7.66699 130.167 -9 147.5h305c0 -116 17.5 -205.833 52.5 -269.5s80.5 -95.5 136.5 -95.5c54 0 98.167 20.5 132.5 61.5s51.5 92.833 51.5 155.5v148h278v-150
c0 -58 14 -107.333 42 -148s67.333 -61 118 -61c57.333 0 104.833 21.667 142.5 65s56.5 99.666 56.5 168.999v297h278v-299c0 -74.667 20.167 -132 60.5 -172s87.833 -60 142.5 -60h55v-360zM2045 -295.001h-148v148h148v-148zM1897 960.999h-148v148h148v-148z
M2193 960.999h-148v148h148v-148zM2045 1170h-148v148h148v-148z" />
    <glyph glyph-name="glyph1535" unicode="&#x6fb;" horiz-adv-x="1905" 
d="M1782 539c0 -73.333 -18.167 -143.167 -54.5 -209.5s-86.5 -123.5 -150.5 -171.5c-66 -49.333 -142.833 -88 -230.5 -116s-185.5 -42 -293.5 -42h-541c-42.667 0 -80.834 7.16699 -114.501 21.5s-59.834 39.833 -78.501 76.5
c-21.333 -35.333 -47.666 -60.5 -78.999 -75.5s-76.666 -22.5 -135.999 -22.5h-174v360h164c26.667 0 47.667 7.5 63 22.5s23 37.167 23 66.5v112h279v-108c0 -22 1.83301 -38.667 5.5 -50s10.5 -19.333 20.5 -24c56 80 117.5 161.833 184.5 245.5
s130.833 152.5 191.5 206.5c66.667 59.333 138.5 106.333 215.5 141s160.5 52 250.5 52c132.667 0 241.667 -45.667 327 -137s128 -207.333 128 -348zM1381 416.999c40.667 17.333 71.501 37.5029 92.501 60.5029s31.5 48.167 31.5 75.5c0 38.667 -15.5 74 -46.5 106
s-74.167 48 -129.5 48c-63.333 0 -122.666 -11.833 -177.999 -35.5s-107 -52.834 -155 -87.501c-46.667 -34.667 -87.834 -71.334 -123.501 -110.001s-68.5 -76.667 -98.5 -114h195c94.667 0 176.667 5.16699 246 15.5s124.666 24.166 165.999 41.499zM658.001 1165h-148
v148h148v-148zM785.001 -294.998h-148v148h148v-148z" />
    <glyph glyph-name="glyph1536" unicode="&#x6fb;" horiz-adv-x="2023" 
d="M2023 0l-112 0.00195312c-93.333 0 -165.666 13.833 -216.999 41.5s-87 67.834 -107 120.501c-70.667 -52.667 -151 -92.834 -241 -120.501s-187.667 -41.5 -293 -41.5h-541c-42.667 0 -80.834 7.16699 -114.501 21.5s-59.834 39.833 -78.501 76.5
c-21.333 -35.333 -47.666 -60.5 -78.999 -75.5s-76.666 -22.5 -135.999 -22.5h-174v360h164c26.667 0 47.667 7.5 63 22.5s23 37.167 23 66.5v112h279v-108c0 -22 1.83301 -38.667 5.5 -50s10.5 -19.333 20.5 -24c67.333 95.333 131.666 180.5 192.999 255.5
s123.666 140.5 186.999 196.5c66.667 58.667 139 105.5 217 140.5s162.333 52.5 253 52.5c126 0 233.333 -43.333 322 -130s133 -205 133 -355c0 -22.667 -2.66699 -48.834 -8 -78.501s-12.333 -54.834 -21 -75.501c14.667 -8.66699 29.834 -15 45.501 -19
s36.167 -6 61.5 -6h155v-360zM1390 417.002c42.667 18.667 73.833 39.335 93.5 62.002s29.5 47.334 29.5 74.001c0 38.667 -15.5 74 -46.5 106s-74.167 48 -129.5 48c-64 0 -123.667 -11.833 -179 -35.5s-106.666 -52.834 -153.999 -87.501
c-46.667 -34.667 -87.834 -71.334 -123.501 -110.001s-68.5 -76.667 -98.5 -114h197c94.667 0 176.5 5.16699 245.5 15.5s124.167 24.166 165.5 41.499zM780.999 1165h-148v148h148v-148zM784.999 -294.997h-148v148h148v-148z" />
    <glyph glyph-name="glyph1534" unicode="&#x6fb;" horiz-adv-x="3043" 
d="M3043 0l-98 0.00195312c-77.333 0 -143.666 15.167 -198.999 45.5s-99 77.833 -131 142.5c-69.333 -58.667 -150.5 -104.667 -243.5 -138s-200.167 -50 -321.5 -50h-625c-46.667 -134 -126.667 -238.167 -240 -312.5s-250.333 -111.5 -411 -111.5
c-92.667 0 -178.667 14.167 -258 42.5s-148.333 69.833 -207 124.5c-57.333 54.667 -102.666 123.667 -135.999 207s-50 177.666 -50 282.999c0 95.333 5.66699 180.666 17 255.999s18 117.666 20 126.999h284v-12c-6 -21.333 -14.667 -71.166 -26 -149.499
s-17 -150.5 -17 -216.5c0 -88 35.167 -159.833 105.5 -215.5s159.5 -83.5 267.5 -83.5c53.333 0 104 8.16699 152 24.5s89 39.166 123 68.499c39.333 34 69.166 74.333 89.499 121s30.5 99.334 30.5 158.001c0 94 -2.33301 165.833 -7 215.5s-7.66699 79.5 -9 89.5h285
c1.33301 -8.66699 4.33301 -31 9 -67s7.66699 -68 9 -96c0.666992 -14 2.83398 -28.667 6.50098 -44s10.5 -25.333 20.5 -30c67.333 95.333 131.666 180.5 192.999 255.5s123.666 140.5 186.999 196.5c66.667 58.667 139 105.5 217 140.5s162.333 52.5 253 52.5
c120 0 222.667 -39.5 308 -118.5s133.333 -183.5 144 -313.5l2 -35c6 -62.667 28.333 -111.167 67 -145.5s83.334 -51.5 134 -51.5h55v-360zM2387 418.002c40.667 17.333 71.499 37.1699 92.499 59.5029s31.5 46.166 31.5 71.499c0 43.333 -16.5 80.5 -49.5 111.5
s-75.167 46.5 -126.5 46.5c-64 0 -124.167 -11.833 -180.5 -35.5s-107.833 -52.834 -154.5 -87.501c-47.333 -34.667 -89.666 -72.334 -126.999 -113.001s-69 -77.667 -95 -111h198c94 0 176 5.5 246 16.5s125 24.833 165 41.5zM1778 1167.01h-148v148h148v-148z
M1885 -294.994h-148v148h148v-148z" />
    <glyph glyph-name="glyph1539" unicode="&#x6fc;" horiz-adv-x="1391" 
d="M1290 184c-224.667 -63.333 -411.834 -109.833 -561.501 -139.5s-262.167 -44.5 -337.5 -44.5h-461v360h330c-21.333 20 -41.666 54.833 -60.999 104.5s-29 95.5 -29 137.5c0 148.667 49.5 270.834 148.5 366.501s226.833 143.5 383.5 143.5
c76.667 0 157.334 -9.5 242.001 -28.5s146 -37.5 184 -55.5v-309h-12c-48.667 18 -114.834 35.5 -198.501 52.5s-152.5 25.5 -206.5 25.5c-78.667 0 -142.5 -20.5 -191.5 -61.5s-73.5 -88.833 -73.5 -143.5c0 -48 15.167 -90.833 45.5 -128.5s65.166 -65.167 104.499 -82.5
c112.667 13.333 234.834 35.166 366.501 65.499l327.5 75.5v-338zM758 1354h-148v148h148v-148zM758 -295h-148v148h148v-148z" />
    <glyph glyph-name="glyph1540" unicode="&#x6fc;" horiz-adv-x="1208" 
d="M1208 0h-276.004c-61.333 -0 -121.333 13.833 -180 41.5s-108.667 60.834 -150 99.501c-44 -43.333 -94.667 -77.666 -152 -102.999s-116.666 -38 -177.999 -38h-342v360h346c12.667 0 25.334 1.83301 38.001 5.5s21.334 7.5 26.001 11.5
c-25.333 17.333 -53.166 39 -83.499 65s-57.5 52 -81.5 78c-26.667 28.667 -49.167 57.667 -67.5 87s-27.5 55.666 -27.5 78.999c0 51.333 16 97 48 137s74 74 126 102c46 25.333 100 45.5 162 60.5s124 22.5 186 22.5c60 0 120.333 -6.83301 181 -20.5
s117 -33.834 169 -60.501c51.333 -26.667 93.5 -60 126.5 -100s49.5 -85.667 49.5 -137c0 -24 -9.66699 -51 -29 -81s-42 -58.333 -68 -85c-23.333 -24 -52 -51.167 -86 -81.5s-61 -53.5 -81 -69.5c2.66699 -4 10 -7.16699 22 -9.5s26 -3.5 42 -3.5h280v-360zM749.996 552
c29.333 21.333 52.666 39.5029 69.999 54.5029s26 27.167 26 36.5c0 15.333 -8 29 -24 41s-36.333 22.333 -61 31c-25.333 8.66699 -52 15.167 -80 19.5s-54.333 6.5 -79 6.5c-57.333 0 -111.666 -9.83301 -162.999 -29.5s-77 -41.834 -77 -66.501
c0 -8 9.33301 -20.5 28 -37.5s41.334 -35.167 68.001 -54.5c24 -17.333 50.667 -35.333 80 -54s50.666 -31.334 63.999 -38.001c17.333 8.66699 40.333 21.667 69 39s55 34.666 79 51.999zM665.996 1249h-148v148h148v-148zM665.996 -294.997h-148v148h148v-148z" />
    <glyph glyph-name="glyph1538" unicode="&#x6fc;" horiz-adv-x="1384" 
d="M985 -424l-206.995 -0.00390625c-92.667 0 -179.334 11.5 -260.001 34.5s-150 56.5 -208 100.5c-58.667 44.667 -104.5 99.834 -137.5 165.501s-49.5 141.5 -49.5 227.5c0 42 7.83301 80 23.5 114s36.167 65.333 61.5 94c22.667 25.333 48.5 48 77.5 68
s57.5 37.333 85.5 52l8 4c-18.667 14.667 -38.5 32 -59.5 52s-44.5 47.333 -70.5 82c-22.667 29.333 -42.167 61 -58.5 95s-24.5 66.333 -24.5 97c0 37.333 10.667 73.5 32 108.5s54.666 68.833 99.999 101.5c42.667 30.667 96.5 55.834 161.5 75.501
s137.833 29.5 218.5 29.5s153 -10 217 -30s117.667 -45.333 161 -76c44.667 -30.667 78.834 -64.667 102.501 -102s35.5 -73.666 35.5 -108.999c0 -61.333 -27.833 -120.166 -83.5 -176.499s-126.834 -102.833 -213.501 -139.5l-84 -34c20.667 -12 49 -23.333 85 -34
s78 -16 126 -16h360v-360h-288c-47.333 0 -91.833 6 -133.5 18s-78.834 26.667 -111.501 44c-34 18 -66.667 39.167 -98 63.5s-56.333 44.5 -75 60.5l-100 84c-16 -8.66699 -39.167 -30.167 -69.5 -64.5s-45.5 -66.5 -45.5 -96.5c0 -33.333 8.66699 -61.5 26 -84.5
s40.666 -40.833 69.999 -53.5c30.667 -13.333 63.667 -22.333 99 -27s74.666 -7 117.999 -7h209v-361zM913.005 726.996c0 18.667 -24.167 38.6689 -72.5 60.002s-102.5 32 -162.5 32c-63.333 0 -117.333 -11.333 -162 -34s-67 -42 -67 -58
c0 -29.333 19.5 -63.333 58.5 -102s70.5 -65.334 94.5 -80.001l37 -23l53 19c60.667 21.333 112.667 50.666 156 87.999s65 70 65 98zM744.005 1317h-148v148h148v-148zM685.005 -0.00195312h-148v148h148v-148z" />
    <glyph glyph-name="glyph2903" unicode="&#x6ff;" horiz-adv-x="1593" 
d="M416 1360l237 0.000976562c180 0 361.167 -96.833 543.5 -290.5s273.5 -395.834 273.5 -606.501c0 -144.667 -41.667 -258 -125 -340s-198 -123 -344 -123h-1071v360h263c-15.333 31.333 -23 71 -23 119c0 134 37.5 241 112.5 321s174.833 120 299.5 120
c124 0 223.833 -40.167 299.5 -120.5s113.5 -187.166 113.5 -320.499c0 -40.667 -6.66699 -80.334 -20 -119.001h117c32 0 57 9.16699 75 27.5s27 42.833 27 73.5c0 162.667 -59.167 303 -177.5 421s-238.833 177 -361.5 177h-239v301zM584 360.001
c41.333 0 74.166 10.833 98.499 32.5s36.5 50.5 36.5 86.5c0 38 -12.667 70.667 -38 98s-58.333 41 -99 41c-42 0 -75.167 -13.167 -99.5 -39.5s-36.5 -59.5 -36.5 -99.5c0 -35.333 12.333 -64 37 -86s58.334 -33 101.001 -33zM715 1527l-149 219l-149 -219h-107l207 316h98
l207 -316h-107z" />
    <glyph glyph-name="glyph2906" unicode="&#x6ff;" horiz-adv-x="1186" 
d="M1186 0l-10 0.000976562c-118 0 -227.333 -37 -328 -111s-185.334 -178.333 -254.001 -313h-397v447c-78 -15.333 -145 -23 -201 -23h-66v360h90c54 0 113 2.33301 177 7v145c0 143.333 34.833 258.666 104.5 345.999s157.5 131 263.5 131
c96.667 0 179.167 -34.667 247.5 -104s102.5 -156 102.5 -260c0 -100.667 -41.5 -198 -124.5 -292s-190.833 -168 -323.5 -222v-215c92 142 201.333 254.833 328 338.5s251.334 125.5 374.001 125.5h17v-360zM467 416.001c56 14.667 99.667 40.334 131 77.001
s47 77.667 47 123c0 62 -24 93 -72 93c-33.333 0 -59.333 -16.833 -78 -50.5s-28 -79.834 -28 -138.501v-104zM695 1217l-149 219l-149 -219h-107l207 316h98l207 -316h-107z" />
    <glyph glyph-name="glyph2904" unicode="&#x6ff;" horiz-adv-x="1186" 
d="M1186 0l-10 0.000976562c-118 0 -227.333 -37 -328 -111s-185.334 -178.333 -254.001 -313h-397v447c-78 -15.333 -145 -23 -201 -23h-66v360h90c54 0 113 2.33301 177 7v145c0 143.333 34.833 258.666 104.5 345.999s157.5 131 263.5 131
c96.667 0 179.167 -34.667 247.5 -104s102.5 -156 102.5 -260c0 -100.667 -41.5 -198 -124.5 -292s-190.833 -168 -323.5 -222v-215c92 142 201.333 254.833 328 338.5s251.334 125.5 374.001 125.5h17v-360zM467 416.001c56 14.667 99.667 40.334 131 77.001
s47 77.667 47 123c0 62 -24 93 -72 93c-33.333 0 -59.333 -16.833 -78 -50.5s-28 -79.834 -28 -138.501v-104zM695 1217l-149 219l-149 -219h-107l207 316h98l207 -316h-107z" />
    <glyph glyph-name="uniFB51" unicode="&#x671;" horiz-adv-x="698" arabic-form="final" 
d="M698 0h-97.999c-134.667 -0 -241.334 54.833 -320.001 164.5s-118 254.167 -118 433.5v956h278v-956c0 -41.333 5.66699 -76.833 17 -106.5s26 -54.167 44 -73.5c18.667 -18.667 40 -33 64 -43s50.667 -15 80 -15h53v-360zM539.001 1817
c0 -105.333 -55.002 -157.999 -165.002 -157.999c-18.667 0 -50 2.66699 -94 8s-77 8 -99 8c-49.333 0 -91.666 -11.333 -126.999 -34v101c33.333 18.667 68.333 28 105 28c27.333 0 46.333 -0.333008 57 -1c0 40.667 10 80.667 30 120c30.667 60 78.334 90 143.001 90
c46 0 82.5 -14.833 109.5 -44.5s40.5 -68.834 40.5 -117.501zM448.999 1817c0 44.667 -20.001 67 -60.001 67c-30 0 -53 -15 -69 -45c-13.333 -24 -20 -52.333 -20 -85c32.667 -4.66699 54.334 -7 65.001 -7c56 0 84 23.333 84 70z" />
    <glyph glyph-name="uniFB53" unicode="&#x67b;" horiz-adv-x="2107" arabic-form="final" 
d="M2107 0l-159.002 0.000976562c-52 0 -104.667 14.5 -158 43.5s-92.333 64.5 -117 106.5c-26.667 -42.667 -67.167 -78.334 -121.5 -107.001s-115.5 -43 -183.5 -43h-424c-270 0 -474 50.5 -612 151.5s-207 247.167 -207 438.5c0 64 5.33301 125 16 183
s17.667 91.667 21 101h266v-8c-4 -16.667 -9.5 -53 -16.5 -109s-10.5 -107.667 -10.5 -155c0 -75.333 47.333 -134.5 142 -177.5s229 -64.5 403 -64.5h249h128c60.667 0 111.667 12.833 153 38.5s62 64.167 62 115.5c0 56 -1.66699 100.833 -5 134.5
s-5.66602 54.5 -6.99902 62.5v10h270c4 -16 8.83301 -45.833 14.5 -89.5s8.5 -85.5 8.5 -125.5c0 -38.667 14.333 -72.667 43 -102s63.334 -44 104.001 -44h141v-360zM1107 -210.999h-148v148h148v-148zM1107 -419.999h-148v148h148v-148z" />
    <glyph glyph-name="uniFB54" unicode="&#x67b;" horiz-adv-x="698" arabic-form="initial" 
d="M537 598c0 -183.333 -40.167 -328.833 -120.5 -436.5s-186.5 -161.5 -318.5 -161.5h-168v360h123c62 0 111.667 21 149 63s56 100.333 56 175v293h279v-293zM465 -211h-148v148h148v-148zM465 -420h-148v148h148v-148z" />
    <glyph glyph-name="uniFB55" unicode="&#x67b;" horiz-adv-x="793" arabic-form="medial" 
d="M793 0l-99 -0.000976562c-70.667 0 -132.667 15 -186 45s-91 64 -113 102c-28 -45.333 -67.5 -81.166 -118.5 -107.499s-110.5 -39.5 -178.5 -39.5h-168v360h123c59.333 0 108 20.5 146 61.5s57 99.833 57 176.5v123h279v-123c0 -71.333 18 -128.833 54 -172.5
s86 -65.5 150 -65.5h54v-360zM465 -211.001h-148v148h148v-148zM465 -420.001h-148v148h148v-148z" />
    <glyph glyph-name="uni067E.fina" unicode="&#x67e;" horiz-adv-x="2107" arabic-form="final" 
d="M2107 0l-159.002 0.000976562c-52 0 -104.667 14.5 -158 43.5s-92.333 64.5 -117 106.5c-26.667 -42.667 -67.167 -78.334 -121.5 -107.001s-115.5 -43 -183.5 -43h-424c-270 0 -474 50.5 -612 151.5s-207 247.167 -207 438.5c0 64 5.33301 125 16 183
s17.667 91.667 21 101h266v-8c-4 -16.667 -9.5 -53 -16.5 -109s-10.5 -107.667 -10.5 -155c0 -75.333 47.333 -134.5 142 -177.5s229 -64.5 403 -64.5h249h128c60.667 0 111.667 12.833 153 38.5s62 64.167 62 115.5c0 56 -1.66699 100.833 -5 134.5
s-5.66602 54.5 -6.99902 62.5v10h270c4 -16 8.83301 -45.833 14.5 -89.5s8.5 -85.5 8.5 -125.5c0 -38.667 14.333 -72.667 43 -102s63.334 -44 104.001 -44h141v-360zM931.998 -213.999h-148v148h148v-148zM1228 -213.999h-148v148h148v-148zM1080 -422.999h-148v148h148
v-148z" />
    <glyph glyph-name="uni067E.init" unicode="&#x67e;" horiz-adv-x="698" arabic-form="initial" 
d="M537 598c0 -183.333 -40.167 -328.833 -120.5 -436.5s-186.5 -161.5 -318.5 -161.5h-168v360h123c62 0 111.667 21 149 63s56 100.333 56 175v293h279v-293zM125 -214h-148v148h148v-148zM421 -214h-148v148h148v-148zM273 -423h-148v148h148v-148z" />
    <glyph glyph-name="uni067E.medi" unicode="&#x67e;" horiz-adv-x="793" arabic-form="medial" 
d="M793 0l-99 -0.000976562c-70.667 0 -132.667 15 -186 45s-91 64 -113 102c-28 -45.333 -67.5 -81.166 -118.5 -107.499s-110.5 -39.5 -178.5 -39.5h-168v360h123c59.333 0 108 20.5 146 61.5s57 99.833 57 176.5v123h279v-123c0 -71.333 18 -128.833 54 -172.5
s86 -65.5 150 -65.5h54v-360zM295 -214.001h-148v148h148v-148zM591 -214.001h-148v148h148v-148zM443 -423.001h-148v148h148v-148z" />
    <glyph glyph-name="uniFB5B" unicode="&#x680;" horiz-adv-x="2107" arabic-form="final" 
d="M2107 0l-159.002 0.000976562c-52 0 -104.667 14.5 -158 43.5s-92.333 64.5 -117 106.5c-26.667 -42.667 -67.167 -78.334 -121.5 -107.001s-115.5 -43 -183.5 -43h-424c-270 0 -474 50.5 -612 151.5s-207 247.167 -207 438.5c0 64 5.33301 125 16 183
s17.667 91.667 21 101h266v-8c-4 -16.667 -9.5 -53 -16.5 -109s-10.5 -107.667 -10.5 -155c0 -75.333 47.333 -134.5 142 -177.5s229 -64.5 403 -64.5h249h128c60.667 0 111.667 12.833 153 38.5s62 64.167 62 115.5c0 56 -1.66699 100.833 -5 134.5
s-5.66602 54.5 -6.99902 62.5v10h270c4 -16 8.83301 -45.833 14.5 -89.5s8.5 -85.5 8.5 -125.5c0 -38.667 14.333 -72.667 43 -102s63.334 -44 104.001 -44h141v-360zM1241 -210.999h-148v148h148v-148zM1241 -419.999h-148v148h148v-148zM972.998 -210.999h-148v148h148
v-148zM972.998 -419.999h-148v148h148v-148z" />
    <glyph glyph-name="uniFB5C" unicode="&#x680;" horiz-adv-x="698" arabic-form="initial" 
d="M537 598c0 -183.333 -40.167 -328.833 -120.5 -436.5s-186.5 -161.5 -318.5 -161.5h-168v360h123c62 0 111.667 21 149 63s56 100.333 56 175v293h279v-293zM599 -211h-148v148h148v-148zM599 -420h-148v148h148v-148zM331 -211h-148v148h148v-148zM331 -420h-148v148
h148v-148z" />
    <glyph glyph-name="uniFB5D" unicode="&#x680;" horiz-adv-x="793" arabic-form="medial" 
d="M793 0l-99 -0.000976562c-70.667 0 -132.667 15 -186 45s-91 64 -113 102c-28 -45.333 -67.5 -81.166 -118.5 -107.499s-110.5 -39.5 -178.5 -39.5h-168v360h123c59.333 0 108 20.5 146 61.5s57 99.833 57 176.5v123h279v-123c0 -71.333 18 -128.833 54 -172.5
s86 -65.5 150 -65.5h54v-360zM599 -211.001h-148v148h148v-148zM599 -420.001h-148v148h148v-148zM331 -211.001h-148v148h148v-148zM331 -420.001h-148v148h148v-148z" />
    <glyph glyph-name="uniFB5F" unicode="&#x67a;" horiz-adv-x="2107" arabic-form="final" 
d="M2107 0l-159.002 0.000976562c-52 0 -104.667 14.5 -158 43.5s-92.333 64.5 -117 106.5c-26.667 -42.667 -67.167 -78.334 -121.5 -107.001s-115.5 -43 -183.5 -43h-424c-270 0 -474 50.5 -612 151.5s-207 247.167 -207 438.5c0 64 5.33301 125 16 183
s17.667 91.667 21 101h266v-8c-4 -16.667 -9.5 -53 -16.5 -109s-10.5 -107.667 -10.5 -155c0 -75.333 47.333 -134.5 142 -177.5s229 -64.5 403 -64.5h249h128c60.667 0 111.667 12.833 153 38.5s62 64.167 62 115.5c0 56 -1.66699 100.833 -5 134.5
s-5.66602 54.5 -6.99902 62.5v10h270c4 -16 8.83301 -45.833 14.5 -89.5s8.5 -85.5 8.5 -125.5c0 -38.667 14.333 -72.667 43 -102s63.334 -44 104.001 -44h141v-360zM1107 1224h-148v148h148v-148zM1107 1015h-148v148h148v-148z" />
    <glyph glyph-name="uniFB60" unicode="&#x67a;" horiz-adv-x="698" arabic-form="initial" 
d="M537 598c0 -183.333 -40.167 -328.833 -120.5 -436.5s-186.5 -161.5 -318.5 -161.5h-168v360h123c62 0 111.667 21 149 63s56 100.333 56 175v293h279v-293zM465 1224h-148v148h148v-148zM465 1015h-148v148h148v-148z" />
    </font>
</defs>
</svg>
